<svg width="33" height="36" viewBox="0 0 33 36" fill="none" xmlns="http://www.w3.org/2000/svg">
<path d="M27.2869 19.0573C27.3063 17.6917 27.7059 16.3527 28.4485 15.1649C29.1911 13.9771 30.2526 12.9792 31.5342 12.2639C30.7201 11.2083 29.646 10.3396 28.3973 9.72676C27.1486 9.11393 25.7596 8.77386 24.3408 8.73357C21.3143 8.44518 18.3802 10.3776 16.8379 10.3776C15.2658 10.3776 12.8912 8.7622 10.3341 8.80996C8.68019 8.85847 7.06828 9.29508 5.65547 10.0773C4.24265 10.8594 3.07712 11.9605 2.27244 13.2732C-1.21328 18.7518 1.38675 26.8034 4.72578 31.2318C6.39637 33.4003 8.3488 35.8226 10.9035 35.7367C13.4035 35.6426 14.3372 34.2895 17.3548 34.2895C20.3445 34.2895 21.2204 35.7367 23.827 35.6821C26.5096 35.6425 28.1997 33.5039 29.8117 31.3149C31.012 29.7698 31.9356 28.0621 32.5484 26.2551C30.9899 25.6567 29.6599 24.6551 28.7243 23.3751C27.7886 22.0951 27.2887 20.5935 27.2869 19.0573Z" fill="#233375"/>
<path d="M22.3631 5.82072C23.8258 4.22676 24.5463 2.17799 24.3719 0.109497C22.1373 0.322559 20.0731 1.29208 18.5907 2.82489C17.8659 3.57371 17.3108 4.44486 16.9571 5.38855C16.6034 6.33224 16.458 7.32996 16.5294 8.32467C17.6471 8.33512 18.7528 8.1152 19.7633 7.68147C20.7738 7.24775 21.6627 6.61152 22.3631 5.82072Z" fill="#233375"/>
</svg>
