<svg width="74" height="71" viewBox="0 0 74 71" fill="none" xmlns="http://www.w3.org/2000/svg">
<path d="M70.9329 6.34228C70.9306 5.37067 70.6761 4.4163 70.1944 3.5725C69.7127 2.72869 69.0203 2.02435 68.1848 1.52835C67.3493 1.03234 66.3994 0.761656 65.428 0.742761C64.4566 0.723866 63.4969 0.957408 62.6427 1.42055L3.60996 33.4773C2.71908 33.9604 1.97557 34.6756 1.4583 35.547C0.941021 36.4185 0.669278 37.4137 0.671894 38.4271V60.2942C0.671002 61.2674 0.923109 62.2242 1.40348 63.0705C1.88386 63.9169 2.576 64.6239 3.41201 65.1221C4.24801 65.6203 5.19917 65.8926 6.17217 65.9124C7.14517 65.9321 8.10659 65.6986 8.96212 65.2347L68.0417 33.1498C68.9297 32.6683 69.6714 31.956 70.1885 31.0882C70.7056 30.2203 70.979 29.229 70.9797 28.2187L70.9329 6.34228Z" fill="#233375"/>
<mask id="mask0_657_2616" style="mask-type:alpha" maskUnits="userSpaceOnUse" x="0" y="0" width="71" height="66">
<path d="M70.9329 6.34228C70.9306 5.37067 70.6761 4.4163 70.1944 3.5725C69.7127 2.72869 69.0203 2.02435 68.1848 1.52835C67.3493 1.03234 66.3994 0.761656 65.428 0.742761C64.4566 0.723866 63.4969 0.957408 62.6427 1.42055L3.60996 33.4773C2.71908 33.9604 1.97557 34.6756 1.4583 35.547C0.941021 36.4185 0.669278 37.4137 0.671894 38.4271V60.2942C0.671002 61.2674 0.923109 62.2242 1.40348 63.0705C1.88386 63.9169 2.576 64.6239 3.41201 65.1221C4.24801 65.6203 5.19917 65.8926 6.17217 65.9124C7.14517 65.9321 8.10659 65.6986 8.96212 65.2347L68.0417 33.1498C68.9297 32.6683 69.6714 31.956 70.1885 31.0882C70.7056 30.2203 70.979 29.229 70.9797 28.2187L70.9329 6.34228Z" fill="#233375"/>
</mask>
<g mask="url(#mask0_657_2616)">
<path d="M1.29592 176.689L0.914062 176.791L-60.416 -52.0957L-60.0342 -52.198L1.29592 176.689Z" fill="#F3F3F3"/>
<path d="M2.81545 176.277L2.43359 176.379L-58.8965 -52.5078L-58.5147 -52.6101L2.81545 176.277Z" fill="#F3F3F3"/>
<path d="M4.33889 175.867L3.95703 175.969L-57.3731 -52.9181L-56.9912 -53.0204L4.33889 175.867Z" fill="#F3F3F3"/>
<path d="M5.86232 175.461L5.48047 175.563L-55.8496 -53.3237L-55.4678 -53.4261L5.86232 175.461Z" fill="#F3F3F3"/>
<path d="M7.40138 175.048L7.01953 175.151L-54.3106 -53.7363L-53.9287 -53.8387L7.40138 175.048Z" fill="#F3F3F3"/>
<path d="M8.91701 174.645L8.53516 174.747L-52.7949 -54.1396L-52.4131 -54.2419L8.91701 174.645Z" fill="#F3F3F3"/>
<path d="M10.4444 174.237L10.0625 174.339L-51.2676 -54.5477L-50.8857 -54.65L10.4444 174.237Z" fill="#F3F3F3"/>
<path d="M11.9717 173.827L11.5898 173.929L-49.7403 -54.958L-49.3584 -55.0603L11.9717 173.827Z" fill="#F3F3F3"/>
<path d="M13.5029 173.416L13.1211 173.519L-48.209 -55.3684L-47.8272 -55.4707L13.5029 173.416Z" fill="#F3F3F3"/>
<path d="M15.0225 173.004L14.6406 173.107L-46.6895 -55.7803L-46.3076 -55.8826L15.0225 173.004Z" fill="#F3F3F3"/>
<path d="M16.5498 172.599L16.168 172.701L-45.1621 -56.186L-44.7803 -56.2884L16.5498 172.599Z" fill="#F3F3F3"/>
<path d="M18.0694 172.188L17.6875 172.291L-43.6426 -56.5963L-43.2608 -56.6986L18.0694 172.188Z" fill="#F3F3F3"/>
<path d="M19.5928 171.783L19.2109 171.885L-42.1192 -57.002L-41.7373 -57.1043L19.5928 171.783Z" fill="#F3F3F3"/>
<path d="M21.1279 171.372L20.7461 171.475L-40.584 -57.4123L-40.2022 -57.5146L21.1279 171.372Z" fill="#F3F3F3"/>
<path d="M22.6553 170.964L22.2734 171.067L-39.0567 -57.8203L-38.6748 -57.9226L22.6553 170.964Z" fill="#F3F3F3"/>
<path d="M24.1748 170.561L23.793 170.663L-37.5371 -58.2236L-37.1553 -58.3259L24.1748 170.561Z" fill="#F3F3F3"/>
<path d="M25.6944 170.149L25.3125 170.251L-36.0176 -58.6362L-35.6357 -58.7385L25.6944 170.149Z" fill="#F3F3F3"/>
<path d="M27.2334 169.732L26.8516 169.834L-34.4786 -59.0529L-34.0967 -59.1552L27.2334 169.732Z" fill="#F3F3F3"/>
<path d="M28.7647 169.33L28.3828 169.432L-32.9473 -59.4547L-32.5654 -59.557L28.7647 169.33Z" fill="#F3F3F3"/>
<path d="M30.2842 168.92L29.9023 169.023L-31.4278 -59.8644L-31.0459 -59.9667L30.2842 168.92Z" fill="#F3F3F3"/>
<path d="M31.8037 168.508L31.4219 168.61L-29.9082 -60.2769L-29.5264 -60.3792L31.8037 168.508Z" fill="#F3F3F3"/>
<path d="M33.3311 168.102L32.9492 168.205L-28.3809 -60.6825L-27.999 -60.7848L33.3311 168.102Z" fill="#F3F3F3"/>
<path d="M34.8623 167.692L34.4805 167.794L-26.8496 -61.0927L-26.4678 -61.1951L34.8623 167.692Z" fill="#F3F3F3"/>
<path d="M36.3858 167.286L36.0039 167.388L-25.3262 -61.4986L-24.9443 -61.6009L36.3858 167.286Z" fill="#F3F3F3"/>
<path d="M37.9092 166.876L37.5273 166.978L-23.8028 -61.9088L-23.4209 -62.0111L37.9092 166.876Z" fill="#F3F3F3"/>
<path d="M39.4404 166.462L39.0586 166.564L-22.2715 -62.3233L-21.8897 -62.4256L39.4404 166.462Z" fill="#F3F3F3"/>
<path d="M40.9717 166.057L40.5898 166.16L-20.7403 -62.7273L-20.3584 -62.8296L40.9717 166.057Z" fill="#F3F3F3"/>
<path d="M42.4912 165.646L42.1094 165.748L-19.2207 -63.1392L-18.8389 -63.2415L42.4912 165.646Z" fill="#F3F3F3"/>
<path d="M44.0186 165.24L43.6367 165.342L-17.6934 -63.5451L-17.3115 -63.6474L44.0186 165.24Z" fill="#F3F3F3"/>
<path d="M45.542 164.827L45.1602 164.93L-16.17 -63.9575L-15.7881 -64.0599L45.542 164.827Z" fill="#F3F3F3"/>
<path d="M47.0694 164.417L46.6875 164.519L-14.6426 -64.3678L-14.2607 -64.4701L47.0694 164.417Z" fill="#F3F3F3"/>
<path d="M48.5967 164.014L48.2148 164.116L-13.1153 -64.7712L-12.7334 -64.8735L48.5967 164.014Z" fill="#F3F3F3"/>
<path d="M50.1201 163.606L49.7383 163.708L-11.5918 -65.179L-11.21 -65.2814L50.1201 163.606Z" fill="#F3F3F3"/>
<path d="M51.6436 163.195L51.2617 163.298L-10.0684 -65.5893L-9.68653 -65.6916L51.6436 163.195Z" fill="#F3F3F3"/>
<path d="M53.167 162.79L52.7852 162.892L-8.54495 -65.995L-8.16309 -66.0973L53.167 162.79Z" fill="#F3F3F3"/>
<path d="M54.6983 162.373L54.3164 162.475L-7.01371 -66.4119L-6.63185 -66.5142L54.6983 162.373Z" fill="#F3F3F3"/>
<path d="M56.2256 161.965L55.8438 162.067L-5.48636 -66.8198L-5.10451 -66.9222L56.2256 161.965Z" fill="#F3F3F3"/>
<path d="M57.7451 161.555L57.3633 161.657L-3.96683 -67.2301L-3.58498 -67.3324L57.7451 161.555Z" fill="#F3F3F3"/>
<path d="M59.2725 161.149L58.8906 161.251L-2.43948 -67.6357L-2.05762 -67.738L59.2725 161.149Z" fill="#F3F3F3"/>
<path d="M60.7959 160.743L60.4141 160.846L-0.916039 -68.0414L-0.534185 -68.1437L60.7959 160.743Z" fill="#F3F3F3"/>
<path d="M62.3272 160.333L61.9453 160.435L0.615211 -68.4518L0.997065 -68.5541L62.3272 160.333Z" fill="#F3F3F3"/>
<path d="M63.8545 159.927L63.4727 160.03L2.14255 -68.8575L2.52441 -68.9598L63.8545 159.927Z" fill="#F3F3F3"/>
<path d="M65.374 159.522L64.9922 159.624L3.66209 -69.2632L4.04394 -69.3655L65.374 159.522Z" fill="#F3F3F3"/>
<path d="M66.8975 159.105L66.5156 159.207L5.18551 -69.6797L5.56737 -69.782L66.8975 159.105Z" fill="#F3F3F3"/>
<path d="M68.4287 158.695L68.0469 158.797L6.71676 -70.09L7.09862 -70.1923L68.4287 158.695Z" fill="#F3F3F3"/>
<path d="M69.96 158.287L69.5781 158.389L8.24801 -70.4981L8.62987 -70.6004L69.96 158.287Z" fill="#F3F3F3"/>
<path d="M71.4834 157.881L71.1016 157.983L9.77145 -70.9038L10.1533 -71.0061L71.4834 157.881Z" fill="#F3F3F3"/>
<path d="M73.0069 157.471L72.625 157.573L11.2949 -71.3141L11.6768 -71.4164L73.0069 157.471Z" fill="#F3F3F3"/>
<path d="M74.5303 157.065L74.1484 157.167L12.8183 -71.7197L13.2002 -71.822L74.5303 157.065Z" fill="#F3F3F3"/>
<path d="M76.0615 156.655L75.6797 156.757L14.3496 -72.1301L14.7314 -72.2324L76.0615 156.655Z" fill="#F3F3F3"/>
<path d="M77.5811 156.24L77.1992 156.343L15.8691 -72.5443L16.251 -72.6466L77.5811 156.24Z" fill="#F3F3F3"/>
<path d="M79.1084 155.837L78.7266 155.939L17.3965 -72.9482L17.7783 -73.0505L79.1084 155.837Z" fill="#F3F3F3"/>
<path d="M80.6358 155.424L80.2539 155.527L18.9238 -73.3604L19.3056 -73.4627L80.6358 155.424Z" fill="#F3F3F3"/>
<path d="M82.1592 155.014L81.7773 155.116L20.4472 -73.7706L20.8291 -73.873L82.1592 155.014Z" fill="#F3F3F3"/>
<path d="M83.6865 154.608L83.3047 154.711L21.9746 -74.1763L22.3564 -74.2786L83.6865 154.608Z" fill="#F3F3F3"/>
<path d="M85.2178 154.2L84.8359 154.303L23.5058 -74.5843L23.8877 -74.6866L85.2178 154.2Z" fill="#F3F3F3"/>
<path d="M86.7373 153.79L86.3555 153.892L25.0254 -74.9946L25.4072 -75.0969L86.7373 153.79Z" fill="#F3F3F3"/>
<path d="M88.2647 153.384L87.8828 153.487L26.5527 -75.4004L26.9346 -75.5027L88.2647 153.384Z" fill="#F3F3F3"/>
<path d="M89.792 152.968L89.4102 153.07L28.08 -75.8169L28.4619 -75.9192L89.792 152.968Z" fill="#F3F3F3"/>
<path d="M91.3233 152.568L90.9414 152.671L29.6113 -76.2163L29.9932 -76.3186L91.3233 152.568Z" fill="#F3F3F3"/>
<path d="M92.8428 152.156L92.4609 152.259L31.1308 -76.6283L31.5127 -76.7306L92.8428 152.156Z" fill="#F3F3F3"/>
<path d="M94.3623 151.746L93.9805 151.849L32.6504 -77.0386L33.0322 -77.1409L94.3623 151.746Z" fill="#F3F3F3"/>
<path d="M95.8936 151.334L95.5117 151.436L34.1816 -77.4512L34.5635 -77.5535L95.8936 151.334Z" fill="#F3F3F3"/>
<path d="M97.4287 150.928L97.0469 151.03L35.7168 -77.857L36.0986 -77.9593L97.4287 150.928Z" fill="#F3F3F3"/>
<path d="M98.9522 150.522L98.5703 150.624L37.2402 -78.2627L37.6221 -78.365L98.9522 150.522Z" fill="#F3F3F3"/>
<path d="M100.472 150.112L100.09 150.214L38.7597 -78.6729L39.1416 -78.7753L100.472 150.112Z" fill="#F3F3F3"/>
<path d="M101.999 149.704L101.617 149.806L40.2871 -79.081L40.6689 -79.1833L101.999 149.704Z" fill="#F3F3F3"/>
<path d="M103.53 149.293L103.148 149.396L41.8183 -79.4913L42.2002 -79.5936L103.53 149.293Z" fill="#F3F3F3"/>
<path d="M105.05 148.884L104.668 148.986L43.3379 -79.901L43.7197 -80.0033L105.05 148.884Z" fill="#F3F3F3"/>
<path d="M106.569 148.471L106.188 148.574L44.8574 -80.3135L45.2392 -80.4158L106.569 148.471Z" fill="#F3F3F3"/>
<path d="M108.097 148.068L107.715 148.17L46.3847 -80.7169L46.7666 -80.8193L108.097 148.068Z" fill="#F3F3F3"/>
<path d="M109.628 147.658L109.246 147.76L47.916 -81.1272L48.2978 -81.2295L109.628 147.658Z" fill="#F3F3F3"/>
<path d="M111.159 147.249L110.777 147.352L49.4472 -81.5352L49.8291 -81.6376L111.159 147.249Z" fill="#F3F3F3"/>
<path d="M112.69 146.841L112.309 146.944L50.9785 -81.9433L51.3603 -82.0456L112.69 146.841Z" fill="#F3F3F3"/>
<path d="M114.21 146.431L113.828 146.534L52.498 -82.3534L52.8799 -82.4557L114.21 146.431Z" fill="#F3F3F3"/>
</g>
<path d="M73.7563 11.1892C73.7581 10.2147 73.5062 9.25645 73.0253 8.40881C72.5444 7.56117 71.8512 6.8533 71.0138 6.35483C70.1764 5.85635 69.2237 5.58444 68.2493 5.56584C67.275 5.54724 66.3126 5.7826 65.4567 6.24875L6.42399 38.3336C5.53416 38.8139 4.79057 39.5256 4.27178 40.3936C3.75298 41.2615 3.47823 42.2535 3.47656 43.2647V65.1318C3.47729 66.1042 3.73058 67.0597 4.21162 67.9048C4.69266 68.7499 5.38495 69.4556 6.22069 69.9527C7.05644 70.4498 8.00696 70.7213 8.97918 70.7406C9.95139 70.7599 10.912 70.5264 11.7668 70.0629L70.8463 37.9874C71.7344 37.5058 72.4761 36.7936 72.9932 35.9257C73.5103 35.0579 73.7836 34.0665 73.7844 33.0563L73.7563 11.1892Z" fill="#FF5C5C"/>
<path d="M68.0804 20.251C68.2521 20.6409 68.3272 21.0665 68.2993 21.4917V24.9112L67.4548 25.3178V21.9608C67.4848 21.756 67.4716 21.5473 67.4159 21.3479C67.3603 21.1486 67.2634 20.9632 67.1316 20.8036C66.9231 20.6055 66.5999 20.6263 66.1933 20.8557C65.8993 21.0229 65.6379 21.2419 65.4219 21.5021C65.2021 21.7718 65.0262 22.0743 64.9006 22.3987C64.775 22.7104 64.7079 23.0426 64.7025 23.3787V26.8504L63.9102 27.2883L63.9936 21.45L64.7025 21.0538V21.9608C64.863 21.5426 65.0882 21.1521 65.3697 20.8036C65.6544 20.4496 66.0094 20.1585 66.4123 19.9487C66.7187 19.7433 67.0886 19.6546 67.4548 19.6985C67.598 19.7285 67.731 19.7952 67.8406 19.8921C67.9503 19.9889 68.0329 20.1126 68.0804 20.251Z" fill="white" stroke="white" stroke-width="0.5"/>
<path d="M62.131 23.2327C62.3733 23.3964 62.5561 23.6341 62.6522 23.9103C62.7839 24.2704 62.8407 24.6535 62.819 25.0363C62.8153 25.4923 62.745 25.9454 62.6105 26.3812C62.476 26.825 62.2906 27.2518 62.058 27.6531C61.8324 28.0529 61.5593 28.4239 61.2448 28.7582C60.9369 29.0679 60.5857 29.3313 60.2022 29.5401C59.8818 29.7247 59.527 29.8418 59.1597 29.8842C58.8809 29.8935 58.6054 29.821 58.3673 29.6757C58.1271 29.5076 57.9479 29.2661 57.8565 28.9876C57.7204 28.6249 57.6601 28.2381 57.6793 27.8512C57.6889 27.3991 57.759 26.9502 57.8878 26.5167C58.0242 26.0736 58.2096 25.647 58.4403 25.2448C58.6726 24.8659 58.9491 24.5159 59.2639 24.2022C59.5629 23.8769 59.9156 23.6054 60.3065 23.3995C60.6229 23.2094 60.9806 23.0986 61.349 23.0763C61.6199 23.0385 61.8955 23.0936 62.131 23.2327ZM61.8703 26.475C61.9614 26.135 62.0069 25.7844 62.0059 25.4325C62.0214 25.1497 61.9825 24.8665 61.8912 24.5984C61.8259 24.3998 61.7024 24.2255 61.5367 24.098C61.3829 23.9762 61.1906 23.9134 60.9946 23.9208C60.7551 23.9343 60.5226 24.0059 60.3169 24.1293C60.0513 24.2767 59.8117 24.4669 59.608 24.6922C59.3992 24.9285 59.2173 25.1872 59.0659 25.4637C58.9001 25.7513 58.7738 26.0599 58.6905 26.3812C58.6048 26.6977 58.5559 27.023 58.5446 27.3508C58.5396 27.6364 58.5782 27.9212 58.6593 28.1952C58.7227 28.3976 58.8464 28.5758 59.0137 28.7061C59.1713 28.8196 59.3617 28.8782 59.5559 28.8729C59.8005 28.862 60.0379 28.7864 60.2439 28.654C60.5042 28.5074 60.7399 28.321 60.9425 28.1014C61.1522 27.8697 61.3341 27.6143 61.4846 27.3403C61.6493 27.051 61.7788 26.743 61.8703 26.4229" fill="white"/>
<path d="M61.8703 26.475C61.9614 26.135 62.0069 25.7844 62.0059 25.4325C62.0214 25.1497 61.9825 24.8665 61.8912 24.5984C61.8259 24.3998 61.7024 24.2255 61.5367 24.098C61.3829 23.9762 61.1906 23.9134 60.9946 23.9208C60.7551 23.9343 60.5226 24.0059 60.3169 24.1293C60.0513 24.2767 59.8117 24.4669 59.608 24.6922C59.3992 24.9285 59.2173 25.1872 59.0659 25.4637C58.9001 25.7513 58.7738 26.0599 58.6905 26.3812C58.6048 26.6977 58.5559 27.023 58.5446 27.3508C58.5396 27.6364 58.5782 27.9212 58.6593 28.1952C58.7227 28.3976 58.8464 28.5758 59.0137 28.7061C59.1713 28.8196 59.3617 28.8782 59.5559 28.8729C59.8005 28.862 60.0379 28.7864 60.2439 28.654C60.5042 28.5074 60.7399 28.321 60.9425 28.1014C61.1522 27.8697 61.3341 27.6143 61.4846 27.3403C61.6493 27.051 61.7788 26.743 61.8703 26.4229M62.131 23.2327C62.3733 23.3964 62.5561 23.6341 62.6522 23.9103C62.7839 24.2704 62.8407 24.6535 62.819 25.0363C62.8153 25.4923 62.745 25.9454 62.6105 26.3812C62.476 26.825 62.2906 27.2518 62.058 27.6531C61.8324 28.0529 61.5593 28.4239 61.2448 28.7582C60.9369 29.0679 60.5857 29.3313 60.2022 29.5401C59.8818 29.7247 59.527 29.8418 59.1597 29.8842C58.8809 29.8935 58.6054 29.821 58.3673 29.6757C58.1271 29.5076 57.9479 29.2661 57.8565 28.9876C57.7204 28.6249 57.6601 28.2381 57.6793 27.8512C57.6889 27.3991 57.759 26.9502 57.8878 26.5167C58.0242 26.0736 58.2096 25.647 58.4403 25.2448C58.6726 24.8659 58.9491 24.5159 59.2639 24.2022C59.5629 23.8769 59.9156 23.6054 60.3065 23.3995C60.6229 23.2094 60.9806 23.0986 61.349 23.0763C61.6199 23.0385 61.8955 23.0936 62.131 23.2327Z" stroke="white" stroke-width="0.5"/>
<path d="M56.1181 26.5585C56.3636 26.7167 56.5504 26.9511 56.6498 27.2257C56.7706 27.5885 56.827 27.9695 56.8166 28.3517C56.805 28.8112 56.7313 29.2671 56.5977 29.707C56.4674 30.1507 56.2854 30.5776 56.0556 30.9789C55.8262 31.3757 55.5496 31.7432 55.232 32.0736C54.9276 32.3872 54.5758 32.6511 54.1894 32.8555C53.8712 33.045 53.5153 33.1624 53.1469 33.1995C52.8669 33.2201 52.5881 33.1468 52.3545 32.991C52.1142 32.8252 51.9319 32.5882 51.8332 32.3134C51.708 31.9481 51.6514 31.5628 51.6664 31.177C51.6709 30.7252 51.7375 30.2761 51.8645 29.8425C52.0079 29.402 52.1929 28.9761 52.4171 28.5706C52.6473 28.1744 52.9238 27.8069 53.2407 27.4759C53.5475 27.1593 53.8987 26.8889 54.2832 26.6732C54.6008 26.4871 54.9583 26.3799 55.3258 26.3604C55.6051 26.3298 55.8861 26.4001 56.1181 26.5585ZM55.8575 29.7904C55.9475 29.4712 55.9966 29.1419 56.0035 28.8104C56.0138 28.5278 55.975 28.2456 55.8888 27.9763C55.8225 27.7726 55.6951 27.5942 55.5239 27.4655C55.371 27.3506 55.1833 27.2917 54.9922 27.2987C54.7492 27.3106 54.5128 27.3822 54.3041 27.5072C54.0461 27.6571 53.8109 27.8432 53.6056 28.0597C53.3909 28.2975 53.2054 28.56 53.053 28.8417C52.8977 29.1293 52.7753 29.4336 52.6881 29.7487C52.5989 30.0644 52.5498 30.3902 52.5422 30.7183C52.5313 31.0077 52.57 31.2968 52.6569 31.5732C52.7231 31.7741 52.8463 31.9516 53.0113 32.084C53.1701 32.1868 53.3539 32.2445 53.543 32.2508C53.7891 32.2301 54.0276 32.1554 54.2415 32.0319C54.498 31.8843 54.7301 31.6979 54.9296 31.4793C55.1426 31.244 55.3279 30.9852 55.4822 30.7078C55.6496 30.4211 55.776 30.1123 55.8575 29.7904Z" fill="white"/>
<path d="M55.8575 29.7904C55.9475 29.4712 55.9966 29.1419 56.0035 28.8104C56.0138 28.5278 55.975 28.2456 55.8888 27.9763C55.8225 27.7726 55.6951 27.5942 55.5239 27.4655C55.371 27.3506 55.1833 27.2917 54.9922 27.2987C54.7492 27.3106 54.5128 27.3822 54.3041 27.5072C54.0461 27.6571 53.8109 27.8432 53.6056 28.0597C53.3909 28.2975 53.2054 28.56 53.053 28.8417C52.8977 29.1293 52.7753 29.4336 52.6881 29.7487C52.5989 30.0644 52.5498 30.3902 52.5422 30.7183C52.5313 31.0077 52.57 31.2968 52.6569 31.5732C52.7231 31.7741 52.8463 31.9516 53.0113 32.084C53.1701 32.1868 53.3539 32.2445 53.543 32.2508C53.7891 32.2301 54.0276 32.1554 54.2415 32.0319C54.498 31.8843 54.7301 31.6979 54.9296 31.4793C55.1426 31.244 55.3279 30.9852 55.4822 30.7078C55.6496 30.4211 55.776 30.1123 55.8575 29.7904M56.1181 26.5585C56.3636 26.7167 56.5504 26.9511 56.6498 27.2257C56.7706 27.5885 56.827 27.9695 56.8166 28.3517C56.805 28.8112 56.7313 29.2671 56.5977 29.707C56.4674 30.1507 56.2854 30.5776 56.0556 30.9789C55.8262 31.3757 55.5496 31.7432 55.232 32.0736C54.9276 32.3872 54.5758 32.6511 54.1894 32.8555C53.8712 33.045 53.5153 33.1624 53.1469 33.1995C52.8669 33.2201 52.5881 33.1468 52.3545 32.991C52.1142 32.8252 51.9319 32.5882 51.8332 32.3134C51.708 31.9481 51.6514 31.5628 51.6664 31.177C51.6709 30.7252 51.7375 30.2761 51.8645 29.8425C52.0079 29.402 52.1929 28.9761 52.4171 28.5706C52.6473 28.1744 52.9238 27.8069 53.2407 27.4759C53.5475 27.1593 53.8987 26.8889 54.2832 26.6732C54.6008 26.4871 54.9583 26.3799 55.3258 26.3604C55.6051 26.3298 55.8861 26.4001 56.1181 26.5585V26.5585Z" stroke="white" stroke-width="0.5"/>
<path d="M49.4226 32.0213C49.6006 31.9456 49.7921 31.9065 49.9856 31.9065C50.179 31.9065 50.3705 31.9456 50.5486 32.0213C50.7988 32.1568 50.9135 32.4487 50.9135 32.8866C50.9061 33.1678 50.8533 33.4459 50.7571 33.7102C50.6467 33.9898 50.5106 34.2586 50.3505 34.513C50.1771 34.775 49.9703 35.0133 49.7354 35.2219C49.5083 35.4431 49.2523 35.6325 48.9743 35.7849C48.7147 35.9386 48.428 36.0412 48.1298 36.0872C47.9009 36.1243 47.6661 36.0839 47.4626 35.9725C47.2612 35.8668 47.1081 35.6876 47.0352 35.4721L47.7545 34.784C47.8043 34.8802 47.8752 34.9639 47.9618 35.0289C48.0485 35.0939 48.1487 35.1385 48.2549 35.1593C48.5105 35.196 48.7705 35.1366 48.9847 34.9925C49.1952 34.8738 49.3881 34.7264 49.5581 34.5547C49.7151 34.3897 49.8485 34.2037 49.9543 34.0021C50.043 33.8235 50.0928 33.628 50.1003 33.4287C50.1003 32.9387 49.7979 32.7823 49.1724 32.9908L48.7866 33.1159C48.4156 33.2941 47.9905 33.3239 47.5981 33.1993C47.4639 33.1067 47.3579 32.9789 47.2917 32.8299C47.2255 32.6809 47.2016 32.5165 47.2228 32.3549C47.2335 31.995 47.315 31.6407 47.4626 31.3123C47.6251 30.9599 47.8433 30.636 48.109 30.3532C48.386 30.0571 48.7058 29.804 49.0577 29.6025C49.3046 29.4598 49.5775 29.3676 49.8605 29.3315C50.0773 29.2898 50.3019 29.3347 50.486 29.4566C50.6667 29.5849 50.8019 29.7675 50.8718 29.9779L50.1628 30.6451C50.1242 30.5498 50.0633 30.465 49.9854 30.3979C49.9074 30.3308 49.8145 30.2833 49.7145 30.2593C49.5984 30.2335 49.4781 30.2322 49.3614 30.2556C49.2447 30.2789 49.1342 30.3264 49.0369 30.3949C48.8381 30.4996 48.6583 30.6371 48.5052 30.8015C48.363 30.9499 48.2435 31.1185 48.1507 31.3019C48.0706 31.4646 48.0244 31.642 48.0152 31.8232C48.0008 31.9124 48.0165 32.0039 48.0599 32.0832C48.1034 32.1625 48.172 32.2251 48.2549 32.261C48.5236 32.3042 48.799 32.268 49.0473 32.1568L49.4226 32.0213Z" fill="white" stroke="white" stroke-width="0.5"/>
<path d="M43.102 34.0752L43.1541 33.0326L43.8631 32.6365L43.7901 37.9743C43.782 38.419 43.7154 38.8607 43.592 39.288C43.4707 39.7183 43.2955 40.1317 43.0707 40.5182C42.8515 40.8976 42.5853 41.2479 42.2784 41.5607C41.9668 41.8631 41.6161 42.1226 41.2358 42.3322C40.9572 42.4974 40.6492 42.6072 40.3288 42.6554C40.0806 42.7299 39.816 42.7299 39.5678 42.6554C39.346 42.5739 39.1586 42.4195 39.0361 42.2175L39.7033 41.4669C39.8736 41.6643 40.1116 41.7908 40.3705 41.8214C40.6786 41.8323 40.9831 41.7526 41.2463 41.592C41.5986 41.4001 41.9074 41.1375 42.1533 40.8205C42.413 40.5119 42.6143 40.1586 42.7475 39.778C42.8885 39.3685 42.9624 38.939 42.9665 38.5061V37.7658C42.775 38.2263 42.5149 38.6551 42.195 39.0378C41.9027 39.3954 41.5498 39.6989 41.1524 39.9344C40.8674 40.105 40.5457 40.2051 40.2141 40.2263C39.9496 40.238 39.6878 40.1689 39.4635 40.0282C39.2418 39.851 39.0783 39.6112 38.9944 39.3401C38.8662 39.0081 38.8093 38.6529 38.8275 38.2975C38.8337 37.8664 38.9004 37.4382 39.0256 37.0256C39.1547 36.5782 39.3367 36.1477 39.5678 35.7433C39.7836 35.367 40.0425 35.0171 40.3393 34.7007C40.6173 34.4057 40.9369 34.1529 41.288 33.9501C41.6005 33.7575 41.9637 33.663 42.3305 33.679C42.4812 33.6798 42.6296 33.7161 42.7636 33.7849C42.8976 33.8538 43.0136 33.9532 43.102 34.0752ZM42.9144 36.7858C42.9995 36.4837 43.045 36.1718 43.0499 35.858C43.0588 35.5857 43.02 35.3141 42.9352 35.0552C42.8789 34.8634 42.7572 34.6974 42.5912 34.586C42.4394 34.4699 42.2499 34.4141 42.0595 34.4297C41.8197 34.4492 41.5877 34.5241 41.3818 34.6486C41.1276 34.7911 40.8958 34.9703 40.6937 35.1803C40.4793 35.4082 40.297 35.6643 40.1516 35.9414C39.992 36.2123 39.8693 36.5033 39.7867 36.8067C39.7001 37.1121 39.6545 37.4276 39.6512 37.745C39.639 38.0098 39.6743 38.2746 39.7554 38.5269C39.8197 38.7204 39.9393 38.8907 40.0995 39.0169C40.2557 39.1229 40.4427 39.1743 40.6312 39.1629C40.8752 39.1482 41.1117 39.073 41.3192 38.9439C41.5701 38.801 41.7985 38.6219 41.9969 38.4122C42.2098 38.1845 42.3953 37.9326 42.5495 37.6616C42.7072 37.3861 42.8298 37.0919 42.9144 36.7858Z" fill="white"/>
<path d="M42.9144 36.7858C42.9995 36.4837 43.045 36.1718 43.0499 35.858C43.0588 35.5857 43.02 35.3141 42.9352 35.0552C42.8789 34.8634 42.7572 34.6974 42.5912 34.586C42.4394 34.4699 42.2499 34.4141 42.0595 34.4297C41.8197 34.4492 41.5877 34.5241 41.3818 34.6486C41.1276 34.7911 40.8958 34.9703 40.6937 35.1803C40.4793 35.4082 40.297 35.6643 40.1516 35.9414C39.992 36.2123 39.8693 36.5033 39.7867 36.8067C39.7001 37.1121 39.6545 37.4276 39.6512 37.745C39.639 38.0098 39.6743 38.2746 39.7554 38.5269C39.8197 38.7204 39.9393 38.8907 40.0995 39.0169C40.2557 39.1229 40.4427 39.1743 40.6312 39.1629C40.8752 39.1482 41.1117 39.073 41.3192 38.9439C41.5701 38.801 41.7985 38.6219 41.9969 38.4122C42.2098 38.1845 42.3953 37.9326 42.5495 37.6616C42.7072 37.3861 42.8298 37.0919 42.9144 36.7858M43.102 34.0752L43.1541 33.0326L43.8631 32.6365L43.7901 37.9743C43.782 38.419 43.7154 38.8607 43.592 39.288C43.4707 39.7183 43.2955 40.1317 43.0707 40.5182C42.8515 40.8976 42.5853 41.2479 42.2784 41.5607C41.9668 41.8631 41.6161 42.1226 41.2358 42.3322C40.9572 42.4974 40.6492 42.6072 40.3288 42.6554C40.0806 42.7299 39.816 42.7299 39.5678 42.6554C39.346 42.5739 39.1586 42.4195 39.0361 42.2175L39.7033 41.4669C39.8736 41.6643 40.1116 41.7908 40.3705 41.8214C40.6786 41.8323 40.9831 41.7526 41.2463 41.592C41.5986 41.4001 41.9074 41.1375 42.1533 40.8205C42.413 40.5119 42.6143 40.1586 42.7475 39.778C42.8885 39.3685 42.9624 38.939 42.9665 38.5061V37.7658C42.775 38.2263 42.5149 38.6551 42.195 39.0378C41.9027 39.3954 41.5498 39.6989 41.1524 39.9344C40.8674 40.105 40.5457 40.2051 40.2141 40.2263C39.9496 40.238 39.6878 40.1689 39.4635 40.0282C39.2418 39.851 39.0783 39.6112 38.9944 39.3401C38.8662 39.0081 38.8093 38.6529 38.8275 38.2975C38.8337 37.8664 38.9004 37.4382 39.0256 37.0256C39.1547 36.5782 39.3367 36.1477 39.5678 35.7433C39.7836 35.367 40.0425 35.0171 40.3393 34.7007C40.6173 34.4057 40.9369 34.1529 41.288 33.9501C41.6005 33.7575 41.9637 33.663 42.3305 33.679C42.4812 33.6798 42.6296 33.7161 42.7636 33.7849C42.8976 33.8538 43.0136 33.9532 43.102 34.0752Z" stroke="white" stroke-width="0.5"/>
<path d="M36.8675 36.6608C37.0135 36.6887 37.1505 36.7517 37.2667 36.8443C37.3829 36.937 37.4749 37.0564 37.5348 37.1925C37.6995 37.5843 37.7709 38.009 37.7433 38.4331V41.8423L36.9509 42.2906V38.9335C36.9761 38.737 36.9603 38.5374 36.9047 38.3472C36.8491 38.1571 36.7548 37.9805 36.6277 37.8284C36.4192 37.6199 36.1065 37.6512 35.6894 37.8284C35.3986 37.9959 35.1407 38.2149 34.9284 38.4748C34.7074 38.7493 34.5283 39.0549 34.3967 39.3818C34.2711 39.6936 34.204 40.0258 34.1986 40.3618V43.8231L33.4062 44.261L33.4897 38.4331L34.1986 38.0369V38.9335C34.3584 38.5181 34.5836 38.1309 34.8658 37.7867C35.1526 37.432 35.5069 37.1379 35.9084 36.9214C36.1925 36.7353 36.5283 36.644 36.8675 36.6608Z" fill="white" stroke="white" stroke-width="0.5"/>
<path d="M31.9481 37.0256C31.9898 37.0249 32.031 37.0352 32.0675 37.0553C32.1041 37.0754 32.1348 37.1047 32.1566 37.1403C32.2079 37.2169 32.2301 37.3094 32.2191 37.4009C32.2191 37.5228 32.1943 37.6434 32.1461 37.7554C32.0931 37.8793 32.0229 37.9951 31.9376 38.0994C31.8599 38.1896 31.7684 38.267 31.6666 38.3288C31.5835 38.3748 31.4905 38.3999 31.3955 38.4018C31.3183 38.3873 31.2484 38.3468 31.1974 38.2871C31.1475 38.2022 31.1257 38.1037 31.1349 38.0056C31.1351 37.8871 31.1599 37.77 31.2078 37.6616C31.255 37.5402 31.3219 37.4275 31.4059 37.328C31.4808 37.2254 31.5768 37.14 31.6874 37.0777C31.7647 37.0282 31.8577 37.0096 31.9481 37.0256Z" fill="white" stroke="white" stroke-width="0.5"/>
<path d="M31.1641 45.4703L31.2579 39.632L32.0502 39.1941L31.9564 45.022L31.1641 45.4703Z" fill="white" stroke="white" stroke-width="0.5"/>
<path d="M29.0175 41.0081C29.1599 41.0317 29.2936 41.0922 29.4052 41.1837C29.5168 41.2752 29.6024 41.3944 29.6535 41.5294C29.8204 41.9169 29.8919 42.3388 29.862 42.7596L29.8099 46.2209L29.0175 46.6588V43.26C29.0491 43.0591 29.0395 42.8538 28.9893 42.6567C28.9391 42.4595 28.8494 42.2746 28.7256 42.1132C28.5275 41.9151 28.2252 41.936 27.8394 42.1132C27.5612 42.2771 27.3142 42.4889 27.1096 42.7388C26.8934 43.0052 26.721 43.3043 26.5988 43.6249C26.4774 43.927 26.4103 44.2482 26.4007 44.5737V48.0766L25.6084 48.5145L25.6605 45.1262C25.6888 44.9246 25.6767 44.7193 25.6248 44.5224C25.5728 44.3255 25.4822 44.1409 25.3582 43.9794C25.1496 43.7917 24.8473 43.8126 24.4616 43.9794C24.1842 44.136 23.9399 44.3449 23.7422 44.5945C23.5314 44.859 23.3626 45.1544 23.2418 45.4703C23.1204 45.7724 23.0533 46.0935 23.0437 46.419L22.9916 49.922L22.1992 50.3598L22.2826 44.532L23.002 44.1358V45.0011C23.1593 44.5931 23.381 44.2129 23.6588 43.8751C23.9202 43.5419 24.2465 43.2653 24.6179 43.062C24.9082 42.8655 25.2624 42.7872 25.6084 42.843C25.7555 42.8787 25.8907 42.9523 26.0005 43.0566C26.1103 43.1609 26.1907 43.2922 26.2339 43.4373C26.3318 43.1311 26.4647 42.8372 26.6301 42.5615C26.7995 42.2716 27.0064 42.0052 27.2452 41.7692C27.471 41.5378 27.727 41.3379 28.0062 41.1749C28.315 41.0073 28.6713 40.9485 29.0175 41.0081Z" fill="white" stroke="white" stroke-width="0.5"/>
<path d="M20.415 46.3461C20.6632 46.5013 20.8508 46.7367 20.9467 47.0133C21.0724 47.3749 21.129 47.7568 21.1135 48.1393C21.1006 48.5987 21.027 49.0545 20.8946 49.4946C20.7643 49.9383 20.5823 50.3652 20.3525 50.7665C20.117 51.1592 19.841 51.5262 19.5288 51.8612C19.2221 52.1721 18.8707 52.4357 18.4863 52.6431C18.1681 52.8326 17.8122 52.9501 17.4437 52.9872C17.1622 53.005 16.8819 52.9358 16.641 52.7891C16.4087 52.613 16.2315 52.3743 16.1301 52.101C16.0048 51.7357 15.9483 51.3504 15.9633 50.9646C15.9714 50.5123 16.0416 50.0633 16.1718 49.6301C16.3019 49.1846 16.4875 48.7573 16.7244 48.3582C16.9737 47.9554 17.2752 47.5874 17.621 47.2635C17.9228 46.9414 18.2749 46.6703 18.6635 46.4608C18.9811 46.2747 19.3386 46.1675 19.7061 46.148C19.9576 46.1351 20.2066 46.2047 20.415 46.3461ZM20.1544 49.578C20.2401 49.2579 20.2891 48.9292 20.3003 48.598C20.3054 48.3157 20.2667 48.0344 20.1856 47.764C20.1183 47.5635 19.9954 47.3864 19.8312 47.2531C19.6704 47.1381 19.4762 47.0795 19.2786 47.0863C19.0392 47.0999 18.8066 47.1714 18.601 47.2948C18.3407 47.4413 18.105 47.6278 17.9025 47.8474C17.6868 48.0843 17.5013 48.3469 17.3499 48.6293C17.1911 48.9166 17.0652 49.2208 16.9746 49.5363C16.888 49.8559 16.8424 50.1852 16.8391 50.5163C16.8237 50.8025 16.8626 51.089 16.9537 51.3608C17.0172 51.5631 17.1408 51.7414 17.3082 51.8716C17.4656 51.9775 17.6503 52.0355 17.8399 52.0384C18.0833 52.0205 18.319 51.9455 18.528 51.8195C18.7882 51.6773 19.0211 51.4903 19.2161 51.2669C19.4358 51.0348 19.625 50.7755 19.7791 50.4955C19.9423 50.2067 20.0684 49.8984 20.1544 49.578Z" fill="white"/>
<path d="M20.1544 49.578C20.2401 49.2579 20.2891 48.9292 20.3003 48.598C20.3054 48.3157 20.2667 48.0344 20.1856 47.764C20.1183 47.5635 19.9954 47.3864 19.8312 47.2531C19.6704 47.1381 19.4762 47.0795 19.2786 47.0863C19.0392 47.0999 18.8066 47.1714 18.601 47.2948C18.3407 47.4413 18.105 47.6278 17.9025 47.8474C17.6868 48.0843 17.5013 48.3469 17.3499 48.6293C17.1911 48.9166 17.0652 49.2208 16.9746 49.5363C16.888 49.8559 16.8424 50.1852 16.8391 50.5163C16.8237 50.8025 16.8626 51.089 16.9537 51.3608C17.0172 51.5631 17.1408 51.7414 17.3082 51.8716C17.4656 51.9775 17.6503 52.0355 17.8399 52.0384C18.0833 52.0205 18.319 51.9455 18.528 51.8195C18.7882 51.6773 19.0211 51.4903 19.2161 51.2669C19.4358 51.0348 19.625 50.7755 19.7791 50.4955C19.9423 50.2067 20.0684 49.8984 20.1544 49.578M20.415 46.3461C20.6632 46.5013 20.8508 46.7367 20.9467 47.0133C21.0724 47.3749 21.129 47.7568 21.1135 48.1393C21.1006 48.5987 21.027 49.0545 20.8946 49.4946C20.7643 49.9383 20.5823 50.3652 20.3525 50.7665C20.117 51.1592 19.841 51.5262 19.5288 51.8612C19.2221 52.1721 18.8707 52.4357 18.4863 52.6431C18.1681 52.8326 17.8122 52.9501 17.4437 52.9872C17.1622 53.005 16.8819 52.9358 16.641 52.7891C16.4087 52.613 16.2315 52.3743 16.1301 52.101C16.0048 51.7357 15.9483 51.3504 15.9633 50.9646C15.9714 50.5123 16.0416 50.0633 16.1718 49.6301C16.3019 49.1846 16.4875 48.7573 16.7244 48.3582C16.9737 47.9554 17.2752 47.5874 17.621 47.2635C17.9228 46.9414 18.2749 46.6703 18.6635 46.4608C18.9811 46.2747 19.3386 46.1675 19.7061 46.148C19.9576 46.1351 20.2066 46.2047 20.415 46.3461V46.3461Z" stroke="white" stroke-width="0.5"/>
<path d="M13.4548 54.2487C13.833 53.7618 14.1352 53.2205 14.3514 52.6431L15.102 52.5597C14.9619 53.0728 14.7588 53.5666 14.4973 54.0297C14.2041 54.486 13.8537 54.9029 13.4548 55.2704C13.0918 55.6274 12.6814 55.9326 12.235 56.1774C11.8291 56.4226 11.3728 56.5724 10.9005 56.6153C10.5328 56.6404 10.1669 56.5452 9.85799 56.3442C9.54523 56.1067 9.31245 55.7793 9.19075 55.4059C9.01495 54.9149 8.93703 54.3943 8.96139 53.8734C8.96845 53.3859 9.02434 52.9005 9.1282 52.4242C9.24709 51.9319 9.40752 51.4506 9.60777 50.9855C9.81502 50.5252 10.0591 50.0824 10.3376 49.6614C10.6116 49.2619 10.926 48.8916 11.2759 48.5563C11.5868 48.2413 11.9372 47.968 12.3184 47.7431C12.683 47.5286 13.0873 47.3903 13.5069 47.3365C13.8363 47.2864 14.173 47.345 14.4661 47.5033C14.7606 47.6551 14.9875 47.9118 15.102 48.2227L14.3305 48.9733C14.2568 48.8073 14.1429 48.6623 13.9991 48.5513C13.8553 48.4402 13.6862 48.3667 13.5069 48.3374C13.0926 48.2857 12.6731 48.3777 12.3184 48.598C11.9304 48.8128 11.5786 49.0872 11.2759 49.4112C10.9693 49.7699 10.7036 50.1615 10.4835 50.5789C10.252 51.016 10.0702 51.4775 9.94139 51.9551C9.81015 52.4307 9.74009 52.9212 9.73288 53.4146C9.71868 53.8304 9.77149 54.2458 9.88926 54.6448C9.98514 54.9413 10.1621 55.2049 10.4001 55.4059C10.6226 55.5809 10.899 55.673 11.182 55.6665C11.55 55.634 11.9061 55.52 12.2246 55.3329C12.7035 55.0581 13.122 54.6893 13.4548 54.2487Z" fill="white" stroke="white" stroke-width="0.5"/>
</svg>
