<svg width="27" height="28" viewBox="0 0 27 28" fill="none" xmlns="http://www.w3.org/2000/svg">
<path d="M4.69308 0.400993C3.95314 -0.0183342 3.07128 -0.0558307 2.30218 0.293257L15.1974 12.459L19.4138 8.47119L4.69308 0.400993ZM1.11738 1.41921C0.9547 1.74347 0.867188 2.10418 0.867188 2.47545V24.7294C0.867188 25.1022 0.955261 25.4576 1.11963 25.775L14.0098 13.5823L1.11738 1.41921ZM15.1992 14.7041L2.32467 26.882C2.66631 27.0309 3.02982 27.0959 3.39278 27.0959C3.841 27.0959 4.2881 26.995 4.69313 26.7658L19.4166 18.6834L15.1992 14.7041ZM25.0203 11.5449C25.0152 11.5417 25.0096 11.5385 25.0046 11.5359L20.9173 9.29506L16.3862 13.5808L20.9201 17.858C20.9201 17.858 25.0152 15.6103 25.0203 15.6077C25.7804 15.173 26.2342 14.4136 26.2342 13.576C26.2342 12.7384 25.7804 11.979 25.0203 11.5449Z" fill="#233375"/>
</svg>
