<svg width="142" height="37" viewBox="0 0 142 37" fill="none" xmlns="http://www.w3.org/2000/svg">
<path d="M124.582 12.3073C124.582 8.59911 124.582 4.89151 124.582 1.18452C124.582 0.971877 124.612 0.8954 124.852 0.897265C130.023 0.904726 135.194 0.904726 140.364 0.897265C140.58 0.897265 140.63 0.953224 140.628 1.16587C140.617 2.47158 140.617 3.7773 140.628 5.08301C140.628 5.29939 140.56 5.3311 140.369 5.3311C136.878 5.3311 133.388 5.3311 129.895 5.3311C129.701 5.3311 129.638 5.36654 129.64 5.57918C129.651 6.90728 129.651 8.23538 129.64 9.56348C129.64 9.75933 129.679 9.82462 129.889 9.82275C133.188 9.82275 136.488 9.82275 139.787 9.82275C140.003 9.82275 140.053 9.87685 140.051 10.0914C140.04 11.3598 140.04 12.6276 140.051 13.8947C140.051 14.0812 140.01 14.1447 139.811 14.1447C136.518 14.1372 133.226 14.1372 129.936 14.1447C129.603 14.1447 129.647 14.0999 129.647 14.4468C129.647 15.954 129.647 17.4612 129.647 18.9665C129.647 19.1773 129.688 19.2388 129.908 19.2388C133.584 19.2295 137.261 19.2388 140.937 19.2276C141.165 19.2276 141.215 19.2854 141.213 19.5074C141.202 20.843 141.204 22.1785 141.213 23.5141C141.213 23.6801 141.174 23.7267 141.004 23.7267C135.606 23.7267 130.206 23.7267 124.806 23.7267C124.591 23.7267 124.593 23.6316 124.593 23.4731C124.587 19.7437 124.583 16.0218 124.582 12.3073Z" fill="#0F203C"/>
<path d="M41.1692 23.6708C40.8233 22.8258 40.481 21.9808 40.1314 21.1396C39.852 20.4624 39.5598 19.7928 39.2804 19.1157C39.0011 18.4386 38.7254 17.7428 38.4498 17.0639C38.0798 16.1611 37.6895 15.2657 37.3177 14.361C36.9477 13.4862 36.6147 12.6021 36.254 11.7272C35.8932 10.8524 35.514 9.96824 35.144 9.08595C34.8406 8.35102 34.5465 7.61236 34.2468 6.8737C33.8645 5.92985 33.4803 4.98601 33.0943 4.04216C32.7773 3.26619 32.4592 2.4952 32.1397 1.72918C32.03 1.46307 31.9196 1.19633 31.8086 0.928967C31.8641 0.884199 31.9233 0.904718 31.9788 0.904718C33.7325 0.904718 35.4936 0.904718 37.2381 0.904718C37.305 0.895899 37.3727 0.913198 37.4274 0.953075C37.4821 0.992951 37.5196 1.05239 37.5322 1.11923C38.3277 3.27366 39.1343 5.42249 39.9371 7.57505C40.6537 9.49259 41.3696 11.4107 42.0849 13.3295C42.4956 14.4319 42.897 15.5362 43.3077 16.6386C43.3262 16.6871 43.3299 16.7598 43.4168 16.7897C43.5402 16.4763 43.6598 16.1654 43.7757 15.857C43.9922 15.2862 44.2049 14.7136 44.4195 14.1428C44.6045 13.6448 44.7987 13.1486 44.9856 12.6505C45.1724 12.1525 45.3556 11.6713 45.5406 11.1826C45.7255 10.6938 45.9105 10.1827 46.0955 9.69031L46.7134 8.06003C46.9076 7.54894 47.1019 7.03784 47.2924 6.52488C47.483 6.01193 47.6624 5.54746 47.8474 5.05875C48.0324 4.57004 48.2174 4.09066 48.4024 3.60568L49.0462 1.89146L49.3643 1.03902C49.3921 0.966273 49.418 0.91964 49.516 0.921505C51.2907 0.921505 53.0654 0.921505 54.8401 0.921505C54.8531 0.921505 54.8642 0.932697 54.8956 0.945754C54.6625 1.50535 54.4276 2.06494 54.1963 2.62453C53.5797 4.09439 52.9668 5.56425 52.3575 7.03411C51.8617 8.22231 51.3604 9.40865 50.8646 10.5968C50.2973 11.9548 49.7312 13.3121 49.1664 14.6688C48.6657 15.8676 48.1637 17.0663 47.6606 18.2651C47.1672 19.444 46.6739 20.6254 46.1806 21.8092C45.9179 22.4434 45.6515 23.0757 45.387 23.7099C45.3306 23.7298 45.2703 23.7355 45.2113 23.7267H41.3542C41.2931 23.6988 41.2191 23.7323 41.1692 23.6708Z" fill="#0F203C"/>
<path d="M110.375 16.853L112.71 10.6509C113.91 7.45999 115.11 4.2697 116.31 1.08002C116.347 0.981163 116.373 0.893494 116.515 0.893494C118.276 0.893494 120.03 0.893494 121.797 0.893494C121.817 0.89749 121.838 0.903743 121.858 0.912147L121.303 2.26263C118.355 9.32219 115.411 16.3755 112.471 23.4227C112.445 23.5153 112.387 23.5953 112.307 23.6476C112.227 23.6998 112.131 23.7206 112.036 23.7062C110.815 23.6931 109.594 23.7062 108.375 23.7062C108.312 23.7151 108.247 23.7 108.194 23.6638C108.141 23.6277 108.103 23.5731 108.087 23.5103C105.174 16.4222 102.258 9.33773 99.3385 2.25703C99.1535 1.81309 98.9574 1.37661 98.7539 0.904685H98.9778C100.724 0.904685 102.469 0.904685 104.215 0.904685C104.282 0.895811 104.349 0.912854 104.404 0.952351C104.458 0.991848 104.496 1.05084 104.509 1.11733C106.426 6.27179 108.345 11.4269 110.268 16.5826C110.299 16.6628 110.333 16.743 110.375 16.853Z" fill="#0F203C"/>
<path d="M85.1562 23.6708C85.1562 23.5831 85.1562 23.4843 85.1562 23.404C85.1562 15.9963 85.1562 8.5929 85.1562 1.19385C85.1562 0.970013 85.1951 0.895401 85.4374 0.897266C87.0265 0.897266 88.6156 0.897266 90.2065 0.897266C90.262 0.979339 90.2324 1.07074 90.2324 1.15841C90.2324 7.08138 90.2324 13.0031 90.2324 18.9236C90.2167 19.0123 90.2244 19.1036 90.2546 19.1885C90.3083 19.2138 90.3686 19.221 90.4267 19.209C93.5382 19.209 96.6504 19.209 99.7632 19.209H99.8298C99.889 19.2743 99.8594 19.3526 99.8594 19.4235C99.8594 20.774 99.8594 22.1244 99.8594 23.4731C99.8594 23.6596 99.8113 23.7081 99.6263 23.7081C94.8708 23.7081 90.1147 23.7081 85.3579 23.7081C85.2931 23.6988 85.2154 23.7249 85.1562 23.6708Z" fill="#0F203C"/>
<path d="M7.92551 15.0736C9.0611 15.1975 10.1728 15.4871 11.2258 15.9335C11.4039 16.0005 11.5497 16.1341 11.6327 16.3065C12.0729 17.2219 12.6507 18.0631 13.3458 18.8004C14.5612 20.1407 16.1053 21.1347 17.8226 21.6823C18.2967 21.8479 18.7907 21.9483 19.2914 21.9808C19.3617 22.0274 19.4468 21.9808 19.519 22.0144L19.7354 22.0255C19.8815 22.0778 20.0369 22.0255 20.1849 22.0591H20.6308C20.7769 22.0218 20.9323 22.0796 21.0784 22.0274C21.8357 21.9984 22.5851 21.8608 23.3039 21.6189C24.7543 21.1674 26.1117 20.4552 27.3108 19.5167C27.3575 19.4836 27.4063 19.4537 27.457 19.4272C28.1303 19.3992 28.8056 19.4272 29.4808 19.416C29.5085 19.416 29.5196 19.4328 29.5381 19.4458V23.8144C29.4734 23.8685 29.3957 23.8424 29.3254 23.8424H1.30649C1.23619 23.8424 1.1585 23.8685 1.09375 23.8144C1.09375 23.197 1.09375 22.5777 1.09375 21.9491C1.09375 21.7998 1.13815 21.7402 1.27874 21.7029C2.4762 21.4055 3.59855 20.8584 4.57345 20.0968C5.37342 19.4866 6.03291 18.709 6.50662 17.8174C6.8386 17.2338 7.11664 16.6207 7.33723 15.9857C7.42676 15.7253 7.49362 15.4576 7.53702 15.1855C7.53715 15.1653 7.54149 15.1453 7.54979 15.1269C7.55808 15.1085 7.57012 15.0921 7.58514 15.0787C7.60015 15.0653 7.6178 15.0553 7.63692 15.0493C7.65605 15.0432 7.67622 15.0413 7.69612 15.0437C7.76826 15.0903 7.85151 15.0456 7.92551 15.0736Z" fill="#0F203C"/>
<path d="M27.4074 5.37774C26.5812 4.72204 25.6777 4.17195 24.7176 3.74C24.1467 3.47943 23.5582 3.26001 22.9565 3.08342C22.4265 2.93032 21.8832 2.82852 21.3341 2.77937C21.2601 2.7402 21.1731 2.77937 21.0973 2.7458H20.8346C20.4933 2.71035 20.1492 2.71035 19.8079 2.7458H19.5434C19.4694 2.78124 19.3843 2.7458 19.3121 2.77937C18.5648 2.83818 17.8313 3.01506 17.1385 3.30352C15.9537 3.78249 14.8673 4.47883 13.9344 5.35722C13.292 5.95628 12.7015 6.60965 12.1696 7.3102C12.1407 7.3557 12.0971 7.38968 12.0461 7.40635C11.9952 7.42302 11.9401 7.42134 11.8902 7.4016C11.6978 7.36574 11.5031 7.34392 11.3075 7.33631C11.2169 7.29528 11.1225 7.33631 11.0282 7.30647L10.5879 7.29528C10.3048 7.25891 10.0182 7.25891 9.73507 7.29528L9.29294 7.30833C9.20415 7.33631 9.10795 7.29341 9.01916 7.33818L8.80641 7.34937C8.73427 7.38481 8.65102 7.33631 8.58257 7.38481C8.01015 7.43302 7.44309 7.53227 6.88805 7.68139C6.8011 7.70191 6.79185 7.69259 6.76225 7.60492C6.56023 7.03073 6.26105 6.49618 5.87799 6.025C5.68168 5.74951 5.46128 5.49231 5.21942 5.2565C4.66846 4.73718 4.05356 4.29145 3.38985 3.93026C2.90273 3.67886 2.39969 3.46015 1.88401 3.27554C1.67535 3.19888 1.4606 3.14023 1.24209 3.1002C1.11075 3.07969 1.09595 3.02932 1.0978 2.91367C1.0978 2.27387 1.0978 1.63221 1.0978 0.992408C1.16254 0.932719 1.24024 0.960698 1.31054 0.960698H29.322C29.3923 0.960698 29.47 0.932719 29.5348 0.992408V5.36469C29.5237 5.37401 29.5107 5.38893 29.4996 5.38893C28.8022 5.3908 28.1048 5.41132 27.4074 5.37774Z" fill="#0F203C"/>
<path d="M24.9704 11.6843C25.7742 11.6117 26.5635 11.4232 27.3142 11.1247C27.5337 11.0391 27.748 10.9407 27.9562 10.83C28.0542 10.7796 28.0856 10.7759 28.1263 10.8915C28.2207 11.1545 28.328 11.4119 28.4445 11.6675C28.4889 11.7682 28.4612 11.8093 28.3761 11.854C27.5816 12.3157 26.7513 12.7118 25.8935 13.0385C24.9012 13.3988 23.8764 13.6606 22.8337 13.8201C22.7606 13.8281 22.6871 13.8325 22.6136 13.8331C22.5396 13.8648 22.4563 13.8219 22.3842 13.8667L22.1252 13.8779C21.9791 13.9189 21.8255 13.8574 21.6794 13.9133H20.71C20.5639 13.8574 20.4103 13.9133 20.2642 13.8779L20.0052 13.8667C19.933 13.8219 19.8498 13.8667 19.7758 13.8331C18.7452 13.7335 17.7313 13.5022 16.7586 13.1448C15.9095 12.852 15.1307 12.3987 14.3352 11.9865C13.4644 11.5263 12.5342 11.191 11.5714 10.9904C11.0553 10.8859 10.5392 10.8039 10.0193 10.733C9.94718 10.6901 9.86393 10.733 9.78994 10.6994H9.5254C9.3959 10.6472 9.25716 10.6994 9.12581 10.6677C8.71055 10.6434 8.29423 10.6434 7.87897 10.6677C7.73282 10.7087 7.57743 10.6472 7.43314 10.7031H7.1686C7.08165 10.7404 6.98361 10.6863 6.90036 10.7386L6.72462 10.7479C6.65432 10.7833 6.56922 10.7348 6.50078 10.7833C5.74602 10.8598 4.99945 11.0033 4.26977 11.2124C3.99413 11.2907 3.7148 11.3765 3.45211 11.4679C3.36886 11.4959 3.32816 11.4959 3.27637 11.4119C3.15982 11.2254 3.02293 11.0538 2.90638 10.871C2.84718 10.7833 2.80834 10.6975 2.93968 10.6155C4.11819 9.8626 5.39612 9.28112 6.73572 8.88818C7.50489 8.67659 8.29007 8.52935 9.08327 8.44797C9.18501 8.41067 9.29786 8.46476 9.39775 8.4144L9.97308 8.39947C10.1187 8.38175 10.2659 8.38175 10.4115 8.39947H10.9424C11.0423 8.4517 11.1533 8.39947 11.2551 8.43305L11.4734 8.44611C11.5437 8.49274 11.6269 8.44611 11.6991 8.47968C12.5727 8.61058 13.4319 8.82545 14.2649 9.12135C14.7277 9.30634 15.1809 9.5149 15.6227 9.74622C16.9533 10.4094 18.349 10.9308 19.7869 11.3019C20.5053 11.5054 21.2434 11.6304 21.9883 11.675C22.0586 11.7216 22.14 11.675 22.2121 11.7085L22.4767 11.7197C22.5914 11.7719 22.7172 11.7197 22.8356 11.7533C23.2804 11.7794 23.7264 11.7794 24.1712 11.7533C24.2748 11.7197 24.3877 11.7664 24.4913 11.7216L24.7465 11.7085C24.8187 11.6843 24.9019 11.7328 24.9704 11.6843Z" fill="#00ADEE"/>
<path d="M17.6915 17.0638C16.9524 17.0011 16.2223 16.8573 15.5141 16.6348C14.644 16.3836 13.8045 16.0351 13.0112 15.5959C11.8664 14.916 10.6153 14.4373 9.31135 14.1801C8.85256 14.0961 8.38638 14.0141 7.92945 13.9618C7.85546 13.9227 7.77221 13.9618 7.69821 13.932L7.39668 13.9171C7.24868 13.8686 7.09329 13.9171 6.94345 13.8854H5.91674C5.76766 13.886 5.61877 13.896 5.47091 13.9152L5.16382 13.9283C5.08798 13.9562 5.00473 13.9189 4.93073 13.9581L4.72724 13.9712C4.65695 14.0066 4.5737 13.9562 4.50525 14.0066C3.7527 14.0784 3.00833 14.2201 2.28165 14.43C1.99306 14.5065 1.70632 14.596 1.42143 14.6893C1.33079 14.7192 1.28824 14.7248 1.23644 14.6278C1.12545 14.4412 0.986704 14.2678 0.866459 14.0887C0.801712 13.9973 0.773963 13.9451 0.907157 13.8593C2.32576 12.9359 3.89818 12.2787 5.54861 11.9193C6.07028 11.8074 6.59936 11.7328 7.12844 11.6806C7.23018 11.6489 7.33933 11.7011 7.43923 11.6489H8.84517C8.94876 11.6955 9.06161 11.6489 9.1652 11.6806L9.38719 11.6918C9.45564 11.7403 9.53889 11.6918 9.60918 11.7253C10.5869 11.8569 11.5465 12.101 12.4692 12.4528C13.0685 12.6934 13.6272 13.0124 14.2136 13.2829C15.7035 13.9748 17.2733 14.4761 18.8865 14.7751C19.2208 14.8552 19.5624 14.9002 19.9058 14.9094C19.9743 14.9561 20.0557 14.9094 20.1278 14.9411L20.3887 14.9561C20.4904 15.0027 20.6014 14.9561 20.705 14.9859C21.2089 15.0195 21.7144 15.0195 22.2182 14.9859C22.32 14.9523 22.431 15.0045 22.5327 14.9542L22.751 14.943C22.8213 14.9094 22.9046 14.9579 22.973 14.9094C23.7375 14.8398 24.4886 14.6621 25.204 14.3815C25.4565 14.2988 25.6991 14.1881 25.9273 14.0514C26.0106 13.9973 26.0587 14.0197 26.0938 14.1073C26.1974 14.3666 26.3047 14.624 26.412 14.8814C26.4546 14.984 26.412 15.0344 26.3269 15.0941C25.8842 15.3658 25.4252 15.6093 24.9524 15.8234C24.3792 16.0912 23.789 16.3205 23.1857 16.5099C22.4672 16.7387 21.7308 16.9059 20.9843 17.0098C20.8622 17.0265 20.742 17.0471 20.6144 17.0657C20.5422 17.0956 20.459 17.0508 20.3887 17.0974L20.126 17.1105C20.0076 17.1441 19.8818 17.0918 19.756 17.1403H18.5443C18.4259 17.0937 18.3001 17.1403 18.1743 17.1105L17.9135 17.0956C17.8469 17.0527 17.7636 17.0956 17.6915 17.0638Z" fill="#00ADEE"/>
<path d="M51.7296 36.2112C51.3078 36.2112 50.8861 36.2112 50.4661 36.2112C50.4094 36.2165 50.3523 36.2041 50.3027 36.1758C50.2531 36.1474 50.2133 36.1045 50.1886 36.0526C49.5498 34.9994 48.9079 33.9467 48.2629 32.8947C48.2296 32.8947 48.2055 32.8947 48.2055 32.9357C48.1913 33.3412 48.1975 33.7471 48.224 34.1519C48.224 34.7712 48.224 35.3905 48.224 36.0172C48.224 36.1683 48.1944 36.2243 48.039 36.2168C47.743 36.2037 47.4471 36.2075 47.1511 36.2168C47.0253 36.2168 46.9883 36.1795 46.9883 36.0526C46.9883 34.4037 46.9883 32.7554 46.9883 31.1077C46.9883 30.9622 47.0419 30.9343 47.1733 30.9361C47.5433 30.9361 47.8984 30.9454 48.261 30.9361C48.3179 30.9297 48.3754 30.9416 48.4252 30.9701C48.4751 30.9985 48.5147 31.0421 48.5385 31.0947C49.1749 32.156 49.8187 33.2118 50.4606 34.2657C50.4606 34.2657 50.4865 34.2657 50.5272 34.2899V32.6242C50.5068 32.0777 50.5272 31.5311 50.5179 30.9846C50.5179 30.9604 50.5346 30.9454 50.5457 30.9268H51.7259C51.7796 30.9734 51.7574 31.0387 51.7574 31.0947C51.7574 32.7473 51.7574 34.4006 51.7574 36.0545C51.7673 36.1084 51.7574 36.1641 51.7296 36.2112Z" fill="#00ADEE"/>
<path d="M56.2549 33.8031C56.2549 34.5772 56.2549 35.2842 56.2549 35.9911C56.2549 36.1553 56.2272 36.228 56.0422 36.2168C55.7692 36.201 55.4956 36.201 55.2227 36.2168C55.058 36.2261 55.0099 36.1795 55.0118 36.0098C55.0118 35.01 55.0118 34.0102 55.0118 33.0122C55.0118 32.3855 55.0118 31.7587 55.0118 31.1339C55.0118 30.9716 55.0617 30.9305 55.2134 30.9361C55.4946 30.9473 55.7684 30.9473 56.0551 30.9361C56.2087 30.9361 56.2568 30.9716 56.2549 31.132C56.2457 31.7569 56.2549 32.3799 56.2549 33.0439C56.425 32.8932 56.5805 32.7264 56.7192 32.5459C57.1762 32.0423 57.6091 31.5163 58.0475 30.994C58.1011 30.9305 58.1622 30.9399 58.2325 30.9399C58.7116 30.9399 59.1926 30.9399 59.7124 30.9399C59.5774 31.0947 59.4645 31.2346 59.3424 31.3652C58.7727 31.9788 58.2047 32.5944 57.6239 33.1969C57.4944 33.3312 57.5055 33.4077 57.6239 33.5382C58.3638 34.4149 59.1038 35.2991 59.8697 36.2131C59.3147 36.2131 58.7856 36.2243 58.2639 36.2131C58.0549 36.2131 58.0049 35.9725 57.8939 35.84C57.524 35.4147 57.1873 34.9671 56.8376 34.5343L56.2549 33.8031Z" fill="#00ADEE"/>
<path d="M91.8183 30.9324H93.0393C93.1022 31.0033 93.0707 31.0891 93.0707 31.1675C93.0707 32.143 93.0707 33.1186 93.0707 34.0941C93.057 34.1748 93.064 34.2576 93.0911 34.3348C93.0985 34.5467 93.1809 34.749 93.3234 34.9051C93.4659 35.0611 93.6591 35.1605 93.868 35.1853C94.1158 35.2323 94.3719 35.1781 94.58 35.0346C94.7882 34.8912 94.9313 34.6704 94.978 34.4206C95.0058 34.2837 95.0188 34.1443 95.0168 34.0046C95.0168 33.0514 95.0168 32.0964 95.0168 31.1432C95.0168 30.9735 95.0649 30.9268 95.2296 30.9343C95.5237 30.9474 95.8197 30.9343 96.1157 30.9343C96.2433 30.9343 96.3007 30.9604 96.3007 31.1059C96.3007 32.1785 96.3247 33.2529 96.3007 34.3236C96.2637 35.4968 95.4497 36.2411 94.3213 36.3381C93.72 36.3903 93.1355 36.3269 92.6249 35.965C92.3896 35.7999 92.1947 35.5828 92.055 35.3304C91.9152 35.078 91.8343 34.7969 91.8183 34.5082L91.8072 34.3758C91.7758 33.9598 91.8072 33.5439 91.7943 33.1279C91.7943 32.4676 91.7943 31.8054 91.7943 31.1451C91.7887 31.0742 91.7573 30.9959 91.8183 30.9324Z" fill="#00ADEE"/>
<path d="M100.636 32.503C100.664 32.7287 100.85 32.7827 101.015 32.8574C101.42 33.0439 101.857 33.1353 102.258 33.3367C103.242 33.8311 103.183 35.0864 102.628 35.7057C102.197 36.1832 101.642 36.3399 101.028 36.3455C100.46 36.3636 99.8988 36.2089 99.4186 35.9015C99.3076 35.8288 99.2336 35.715 99.1097 35.6646C99.0394 35.6348 99.0283 35.5732 99.0967 35.5061C99.3354 35.2711 99.5722 35.036 99.8015 34.7935C99.894 34.6928 99.9347 34.7712 99.9865 34.8271C100.136 34.986 100.318 35.1087 100.521 35.1859C100.724 35.2631 100.942 35.2929 101.158 35.2729C101.297 35.2686 101.43 35.2133 101.533 35.1172C101.635 35.0211 101.699 34.8908 101.713 34.7506C101.737 34.5138 101.587 34.3776 101.409 34.2787C101.085 34.1122 100.744 33.9815 100.392 33.8889C100.172 33.8301 99.9681 33.7209 99.7968 33.5698C99.6254 33.4187 99.491 33.2298 99.4038 33.0178C99.3757 32.9353 99.3552 32.8504 99.3428 32.7641C99.3234 32.5718 99.3234 32.3781 99.3428 32.1859C99.4186 31.5423 99.8977 31.0667 100.601 30.8951C100.966 30.7965 101.347 30.775 101.721 30.8318C102.094 30.8886 102.453 31.0225 102.773 31.2252C102.791 31.2364 102.811 31.2457 102.83 31.2588C103.094 31.4323 103.091 31.4304 102.871 31.6598C102.697 31.8464 102.525 32.0236 102.362 32.2194C102.271 32.3257 102.219 32.3146 102.119 32.2194C101.976 32.0692 101.794 31.9613 101.594 31.9074C101.394 31.8535 101.183 31.8556 100.984 31.9135C100.808 31.9639 100.66 32.0534 100.64 32.2642C100.608 32.3403 100.606 32.4259 100.636 32.503Z" fill="#00ADEE"/>
<path d="M77.7923 30.9324C79.1132 30.9324 80.434 30.9324 81.7548 30.9324C81.9546 30.9324 82.0101 30.9884 81.9935 31.1805C81.9759 31.3959 81.9759 31.6124 81.9935 31.8278C82.0083 32.0143 81.9324 32.046 81.7659 32.046C81.354 32.0271 80.9414 32.0333 80.5302 32.0647C80.5014 32.1414 80.4944 32.2247 80.5099 32.3053C80.5099 33.5252 80.5099 34.7464 80.5099 35.9688C80.5201 36.0499 80.5145 36.1323 80.4932 36.2113H79.2482C79.2179 36.1355 79.2102 36.0526 79.226 35.9725C79.226 34.7476 79.226 33.5221 79.226 32.296C79.2406 32.216 79.2336 32.1335 79.2057 32.0572L77.796 32.046C77.7411 31.677 77.7399 31.3018 77.7923 30.9324Z" fill="#00ADEE"/>
<path d="M41.1719 23.6708C41.2234 23.7008 41.2829 23.7139 41.3421 23.7081H45.299C45.3284 23.7058 45.3575 23.7008 45.386 23.6931C45.3175 23.7603 45.2306 23.7323 45.1529 23.7323C43.9061 23.7323 42.6592 23.7323 41.4124 23.7323C41.331 23.7211 41.2311 23.7659 41.1719 23.6708Z" fill="#FCFCFC"/>
<path d="M109.689 31.1805C109.704 30.994 109.65 30.9305 109.448 30.9324C108.128 30.9324 106.807 30.9324 105.486 30.9324C105.412 30.9734 105.432 31.048 105.432 31.1189C105.432 31.3707 105.432 31.6226 105.432 31.8762C105.432 31.9397 105.412 32.0124 105.486 32.0628C105.893 32.0628 106.3 32.0628 106.705 32.0534C106.901 32.0534 106.947 32.1019 106.945 32.2978C106.945 33.5345 106.945 34.7693 106.945 36.006C106.945 36.1926 106.999 36.2411 107.179 36.2336C107.517 36.2187 107.857 36.2336 108.198 36.2336C108.266 36.1571 108.235 36.0639 108.235 35.9781C108.235 34.6723 108.235 33.3834 108.235 32.087C108.646 32.0556 109.059 32.0494 109.471 32.0684C109.635 32.0684 109.713 32.0385 109.696 31.8501C109.676 31.6275 109.674 31.4035 109.689 31.1805Z" fill="#00ADEE"/>
<path d="M70.4974 35.0491C70.4252 34.9745 70.3253 34.9241 70.4197 34.801L71.4575 33.4263C71.4353 33.3629 71.3835 33.3666 71.3317 33.3666C70.9247 33.3666 70.5159 33.3535 70.1089 33.3759C70.0072 33.5363 69.9036 33.6949 69.8037 33.8572C69.6094 34.1743 69.6187 34.1743 69.3504 33.9075C69.232 33.7863 69.023 33.6613 69.023 33.5345C69.023 33.3759 69.282 33.3479 69.417 33.2342C69.6067 33.1046 69.7603 32.9282 69.8632 32.7219C69.9662 32.5155 70.0151 32.2861 70.0053 32.0553C69.9994 31.8123 69.9206 31.5769 69.7792 31.3801C69.6379 31.1833 69.4406 31.0343 69.2135 30.9529C68.7131 30.7488 68.1561 30.7355 67.6467 30.9156C66.9067 31.1506 66.6348 31.8482 66.8345 32.5682C66.9335 32.8284 67.0762 33.0695 67.2563 33.2808C66.7272 33.5326 66.3184 33.8833 66.2333 34.5082C66.2139 34.6698 66.2139 34.8333 66.2333 34.995C66.26 35.2198 66.3416 35.4344 66.4707 35.6197C66.5998 35.8049 66.7725 35.9549 66.9733 36.0564C67.2705 36.2155 67.6007 36.3018 67.9371 36.3082C68.0532 36.3231 68.1707 36.3231 68.2867 36.3082C68.7004 36.2975 69.0983 36.1456 69.4152 35.8773C69.6002 35.7169 69.6742 35.7691 69.8055 35.9109C69.9054 36.0209 69.9905 36.1944 70.1496 36.2C70.6398 36.213 71.1282 36.2 71.5925 36.2C71.2263 35.8251 70.8655 35.4352 70.4974 35.0491ZM68.8066 35.0603C68.7263 35.1478 68.6286 35.2173 68.5199 35.2642C68.4112 35.3111 68.294 35.3344 68.1757 35.3326C68.0154 35.349 67.8546 35.3059 67.7233 35.2116C67.5921 35.1172 67.4994 34.9779 67.4625 34.8197C67.4256 34.6615 67.447 34.4951 67.5228 34.3517C67.5985 34.2082 67.7234 34.0974 67.8742 34.04C67.9048 34.0194 67.9421 34.0112 67.9784 34.0171C68.0148 34.023 68.0476 34.0425 68.0703 34.0717C68.3182 34.3347 68.5661 34.6014 68.8232 34.8588C68.912 34.9502 68.8639 35.0062 68.8066 35.064V35.0603ZM68.3626 32.8219C68.3425 32.8266 68.3216 32.8266 68.3015 32.8219C68.0906 32.7548 67.8779 32.281 67.95 32.0385C67.9884 31.9129 68.0747 31.8078 68.1898 31.7463C68.3049 31.6847 68.4396 31.6718 68.5642 31.7102C68.6648 31.7354 68.754 31.794 68.8174 31.8766C68.8808 31.9591 68.9148 32.0609 68.9139 32.1653C68.893 32.3168 68.8302 32.4593 68.7327 32.5764C68.6352 32.6935 68.5069 32.7806 68.3626 32.8275V32.8219Z" fill="#00ADEE"/>
<path d="M36.3702 34.5567C36.3592 34.341 36.2881 34.1328 36.1651 33.9559C36.042 33.7791 35.872 33.6408 35.6746 33.5569C35.5858 33.514 35.473 33.5084 35.4045 33.4114C35.597 33.3354 35.7672 33.2116 35.8995 33.0515C36.0318 32.8914 36.1218 32.7001 36.1612 32.4956C36.1814 32.3633 36.1814 32.2287 36.1612 32.0964C36.1317 31.8777 36.0436 31.6713 35.9063 31.4994C35.7691 31.3275 35.5879 31.1966 35.3823 31.1208C35.2124 31.0588 35.0388 31.0077 34.8625 30.9679C34.7922 30.9306 34.7071 30.9791 34.6368 30.9324C33.9283 30.9324 33.2179 30.9324 32.5094 30.9324C32.3522 30.9324 32.293 30.9604 32.293 31.1376C32.3004 32.7629 32.3004 34.3876 32.293 36.0117C32.293 36.1646 32.3263 36.2168 32.478 36.2131C33.1217 36.2038 33.7729 36.2131 34.4074 36.2131C34.8843 36.236 35.357 36.1131 35.7634 35.8606C35.9785 35.7254 36.1503 35.5304 36.258 35.2991C36.3656 35.0677 36.4046 34.8099 36.3702 34.5567ZM34.0744 31.9584C34.2444 31.9531 34.4144 31.9713 34.5795 32.0124C34.6801 32.0292 34.7719 32.0804 34.8394 32.1576C34.9068 32.2348 34.9457 32.3331 34.9495 32.4359C34.9619 32.5407 34.9403 32.6468 34.888 32.7383C34.8356 32.8298 34.7553 32.9017 34.659 32.9432C34.3205 33.0943 33.9616 33.0178 33.6101 33.0309C33.5343 33.0309 33.5435 32.9675 33.5435 32.9171C33.5435 32.7754 33.5435 32.6355 33.5435 32.4937C33.5361 31.9602 33.5361 31.9621 34.0744 31.9584ZM34.8144 35.0566C34.4278 35.2432 34.0171 35.1648 33.6138 35.1723C33.5398 35.1723 33.5417 35.1126 33.5417 35.0604C33.5417 34.7414 33.5417 34.4206 33.5417 34.1016C33.5417 33.9971 33.5898 33.9766 33.6767 33.9803C33.7951 33.9803 33.9135 33.9803 34.0855 33.9803C34.3107 33.967 34.5365 33.9922 34.7534 34.055C34.856 34.0781 34.948 34.135 35.015 34.2168C35.082 34.2985 35.1201 34.4004 35.1233 34.5064C35.1356 34.6189 35.1116 34.7324 35.055 34.8301C34.9983 34.9278 34.9121 35.0046 34.8089 35.0492L34.8144 35.0566Z" fill="#00ADEE"/>
<path d="M88.8998 35.9818C88.5206 35.3513 88.145 34.7171 87.7566 34.0941C87.6826 33.9728 87.7103 33.9318 87.8158 33.8889C88.0733 33.7998 88.2993 33.6366 88.466 33.4195C88.6327 33.2024 88.7327 32.9409 88.7537 32.6671C88.774 32.5649 88.774 32.4597 88.7537 32.3575C88.7376 32.1106 88.6573 31.8724 88.521 31.6667C88.3846 31.4611 88.1968 31.2953 87.9767 31.1861C87.7376 31.0864 87.4899 31.009 87.2367 30.9548C87.1646 30.9268 87.0832 30.9716 87.0147 30.9231H84.9521C84.8392 30.9231 84.756 30.9231 84.7578 31.0798C84.7578 32.7349 84.7578 34.39 84.7578 36.0452C84.7578 36.1851 84.8152 36.2019 84.9299 36.2C85.2832 36.2 85.6384 36.2 85.9936 36.2C86.0229 36.1319 86.0307 36.0563 86.0158 35.9836C86.0158 35.48 86.0158 34.9745 86.0158 34.4709C86.0158 34.0698 86.0158 34.0698 86.4246 34.1426C86.728 34.7171 87.0221 35.2972 87.3496 35.8624C87.4162 35.978 87.4347 36.1851 87.5993 36.1926C88.0674 36.2131 88.5354 36.1926 89.0367 36.1926L88.8998 35.9818ZM87.1683 33.0719C86.8168 33.2286 86.4413 33.1689 86.075 33.1764C85.9862 33.1764 85.9936 33.1111 85.9936 33.0514C85.9936 32.8872 85.9936 32.7231 85.9936 32.5216C86.0121 32.3668 85.9103 32.115 86.0306 31.9993C86.1508 31.8837 86.4098 31.962 86.6078 31.962C86.7846 31.956 86.9612 31.9813 87.1294 32.0367C87.2337 32.0658 87.3259 32.1279 87.3925 32.2139C87.4591 32.2998 87.4966 32.4051 87.4994 32.5142C87.5133 32.632 87.4884 32.7511 87.4286 32.8532C87.3688 32.9553 87.2773 33.0348 87.1683 33.0794V33.0719Z" fill="#00ADEE"/>
<path d="M44.2559 35.9612C44.0857 35.5472 43.9118 35.1349 43.7416 34.7208C43.2335 33.4972 42.7328 32.2735 42.2395 31.0499C42.2297 31.0145 42.2078 30.9836 42.1777 30.9628C42.1476 30.942 42.1112 30.9326 42.0749 30.9361C41.7437 30.9361 41.4107 30.9361 41.0778 30.9361C41.0371 30.9307 40.9959 30.9403 40.9618 30.9634C40.9278 30.9864 40.9032 31.0211 40.8928 31.0611C40.6042 31.7513 40.3045 32.4358 40.0178 33.1279C39.6145 34.1015 39.2241 35.079 38.8135 36.0489C38.7506 36.1981 38.7783 36.2131 38.9097 36.2131C39.2796 36.2131 39.6348 36.2131 39.9956 36.2131C40.0416 36.2187 40.0881 36.2067 40.1258 36.1794C40.1635 36.1521 40.1896 36.1115 40.1991 36.0657C40.2804 35.8064 40.384 35.5565 40.4784 35.2991C40.5098 35.2095 40.5468 35.1722 40.6449 35.1722C41.2295 35.1722 41.814 35.1722 42.3968 35.1722C42.4383 35.1707 42.4791 35.1833 42.5127 35.208C42.5462 35.2327 42.5706 35.268 42.5818 35.3084C42.6835 35.5714 42.7926 35.8325 42.8814 36.1011C42.9092 36.1907 42.9388 36.2149 43.0239 36.2131C43.4531 36.2131 43.8822 36.2131 44.341 36.2131C44.3114 36.1123 44.2874 36.0359 44.2559 35.9612ZM40.9076 34.1314C41.1166 33.5606 41.322 32.9954 41.5513 32.3668L42.184 34.1314H40.9076Z" fill="#00ADEE"/>
<path d="M67.1473 0.363751C67.0261 0.391562 66.9015 0.401614 66.7773 0.393596C66.8957 0.322715 67.0308 0.371213 67.1473 0.363751Z" fill="#FCFCFC"/>
<path d="M69.2144 0.391752C69.0935 0.40005 68.9721 0.387432 68.8555 0.354446C68.9739 0.371233 69.0997 0.324601 69.2144 0.391752Z" fill="#FCFCFC"/>
<path d="M69.7469 0.43836C69.6684 0.446639 69.5891 0.435763 69.5156 0.406649C69.5933 0.41038 69.6766 0.37867 69.7469 0.43836Z" fill="#FCFCFC"/>
<path d="M66.5148 0.404823C66.4437 0.435706 66.3658 0.446662 66.2891 0.436533C66.3575 0.378709 66.4389 0.410419 66.5148 0.404823Z" fill="#FCFCFC"/>
<path d="M80.7177 11.4605L80.7048 11.1173C80.6678 11.0408 80.7048 10.9569 80.677 10.8785C80.6493 10.8002 80.6308 10.6771 80.6215 10.5745C80.5604 9.90345 80.4296 9.24074 80.2312 8.59727C79.652 6.57533 78.499 4.7683 76.9143 3.39866C75.9567 2.57865 74.8766 1.91638 73.7139 1.43636C72.4439 0.920524 71.1092 0.584682 69.7477 0.43842C69.6737 0.408575 69.5905 0.449612 69.5165 0.40671L69.2149 0.391787C69.0965 0.360077 68.9707 0.41044 68.856 0.360077H67.1449C67.0246 0.404844 66.897 0.360077 66.7749 0.389922L66.5122 0.401114C66.4419 0.445881 66.3586 0.401114 66.2865 0.432824C65.9165 0.483187 65.5465 0.513032 65.1765 0.587644C64.1266 0.787869 63.1009 1.10052 62.1168 1.5203C60.8686 2.06473 59.7228 2.82192 58.7296 3.75866C58.3861 4.08397 58.0681 4.43571 57.7787 4.8107C56.9777 5.83722 56.3604 6.9968 55.9547 8.23726C55.6971 9.00751 55.5271 9.80474 55.4478 10.6137C55.4164 10.6864 55.4626 10.7703 55.4145 10.8394L55.4034 11.0613C55.3701 11.1677 55.4164 11.2833 55.3738 11.3896L55.359 12.0015C55.3387 12.1643 55.3387 12.3291 55.359 12.492L55.3683 13.0721C55.4182 13.1729 55.3683 13.2829 55.3997 13.3855C55.433 13.572 55.4386 13.781 55.4552 13.9768C55.4905 14.3724 55.556 14.7647 55.6513 15.1501C55.8249 15.8995 56.0728 16.6294 56.3913 17.3288C56.8203 18.2736 57.3728 19.1562 58.034 19.9532C58.3041 20.2704 58.589 20.5613 58.8887 20.8561C59.1498 21.122 59.4272 21.3712 59.7193 21.6022C60.9103 22.5232 62.2573 23.2184 63.6948 23.654C64.5811 23.9274 65.493 24.108 66.416 24.1931C66.49 24.2192 66.5732 24.18 66.6454 24.2229L66.9488 24.236C67.0949 24.2733 67.2503 24.2155 67.3964 24.2677H68.5859C68.7469 24.2117 68.9152 24.2677 69.0762 24.2323H69.3407C69.4258 24.18 69.5257 24.2323 69.609 24.1968C70.2729 24.1286 70.9313 24.0133 71.5791 23.8517C73.3577 23.4164 75.0231 22.6016 76.4629 21.4623C77.6864 20.4874 78.6946 19.2657 79.4228 17.8753C80.1068 16.5458 80.5349 15.0977 80.6844 13.6075C80.7196 13.5179 80.6696 13.4209 80.7177 13.3333L80.7325 12.9789C80.7381 12.479 80.7418 11.966 80.7177 11.4605ZM73.6436 17.243C72.5434 18.5758 70.9823 19.4379 69.276 19.6548C67.8256 19.8693 66.3956 19.7611 65.0415 19.1642C62.6089 18.0898 61.2621 16.1797 60.8718 13.5552C60.6097 12.0167 60.8027 10.4344 61.4268 9.00577C62.459 6.72077 64.2164 5.34977 66.6676 4.93381C68.3935 4.64095 70.0733 4.83495 71.6346 5.69112C73.5844 6.75994 74.7055 8.44431 75.1495 10.6081C75.2566 11.1566 75.3087 11.7147 75.3049 12.2738C75.3067 14.1111 74.835 15.8011 73.6455 17.2355L73.6436 17.243Z" fill="#0F203C"/>
</svg>
