<svg width="115" height="47" viewBox="0 0 115 47" fill="none" xmlns="http://www.w3.org/2000/svg">
<path d="M40.7016 31.1877H21.5024H20.6842H19.5045H19.0098C18.9146 31.1877 18.8195 31.2069 18.7434 31.226C17.5827 31.4368 16.8216 32.5675 17.0309 33.7364C17.2212 34.7521 18.0964 35.4994 19.1239 35.4994C19.162 35.4994 19.2001 35.4994 19.2381 35.4994H20.2466C21.902 35.4994 23.4052 37.1475 24.1283 38.6614L25.5744 41.6892C27.1728 45.541 31.5682 47.3806 35.3928 45.7709C37.2575 44.9852 38.7227 43.4905 39.4838 41.6125C39.5028 41.5742 39.5219 41.5359 39.5409 41.4975C39.9595 40.7502 42.7376 34.0814 42.7376 34.0814C42.9469 33.4681 42.8708 32.7974 42.5283 32.2417C42.1477 31.6285 41.5008 31.2452 40.7777 31.226L40.7016 31.1877ZM2.43648 15.7805C1.19966 15.7805 0.210211 16.777 0.210211 18.0226C0.210211 19.2682 1.19966 20.2647 2.43648 20.2647H5.21455C6.43234 20.2263 7.40276 19.1915 7.3647 17.9651C7.32665 16.777 6.37525 15.8188 5.21455 15.7996L2.43648 15.7805ZM46.6954 15.7805H34.7839C34.7078 15.7805 34.6317 15.8188 34.6127 15.8954L32.6147 20.4755C32.5767 20.5713 32.4625 20.6288 32.3674 20.5904C32.3103 20.5713 32.2722 20.533 32.2532 20.4755L31.8156 19.6706C31.7394 19.5365 31.6824 19.4215 31.6063 19.2873C31.2067 18.5975 30.6929 18.0034 30.084 17.486C28.8662 16.4512 27.325 15.8571 25.7266 15.7996C25.6315 15.7996 25.5364 15.7996 25.4412 15.7996H11.8363C10.6565 15.8188 9.72416 16.7961 9.74319 17.9842C9.76222 18.9999 10.5043 19.8814 11.4938 20.0539C11.6079 20.0922 11.7221 20.1114 11.8363 20.1114H13.8342C15.6038 20.1114 16.7645 21.7019 17.5256 23.3116L17.6778 23.6182L18.6863 25.707C18.7434 25.8603 18.8576 26.0711 18.9717 26.2819C19.0859 26.4927 19.2001 26.7035 19.3142 26.8951C19.3903 27.0293 19.4855 27.1634 19.5806 27.2784C20.6462 28.6582 22.568 28.9456 24.4137 28.9456H44.9258C46.2387 25.9561 47.6468 22.6217 49.0548 19.364C49.2832 18.8274 49.4734 18.3675 49.4734 17.9651C49.5115 16.777 48.5791 15.7996 47.3994 15.7613C47.3804 15.7613 47.3614 15.7613 47.3423 15.7613L46.6954 15.7805ZM2.28425 0.354065C1.10452 0.373228 0.153128 1.33139 0.172156 2.51951C0.191183 3.57349 0.9523 4.47416 1.99883 4.62747C2.01786 4.64663 2.113 4.66579 2.28425 4.68496H6.86998C8.63957 4.68496 10.2189 6.29467 10.98 7.90438L11.1132 8.19183C11.3606 8.78589 11.665 9.49493 11.9695 10.2231L12.0075 10.2998C13.1682 13.021 14.9759 13.5575 17.9252 13.5575H29.3419L25.6886 5.20236L25.4602 4.66579C24.8323 3.20939 23.7287 2.02127 22.3397 1.2739L22.2445 1.21641L22.1494 1.15892C21.6356 0.890635 21.0838 0.699003 20.513 0.545697C20.1134 0.449881 19.7138 0.373228 19.2952 0.354065H2.28425ZM38.0757 0.354065C39.2555 0.392391 40.1688 1.36972 40.1498 2.55784C40.1498 2.84529 40.0737 3.13273 39.9595 3.40102C39.9595 3.42018 39.9405 3.45851 39.9214 3.49684C39.9024 3.53516 39.3316 4.85743 39.3125 4.87659L35.6211 13.5384H51.5475C53.2029 9.70572 54.7252 6.14136 55.962 3.26688C56.5518 1.88712 55.4292 0.354065 53.964 0.354065H38.0757Z" fill="url(#paint0_linear_636_5743)"/>
<path d="M58.6469 32.5291C58.6469 33.2382 58.1522 33.6981 57.4291 33.6981H56.4587V35.1353H56.0781V31.3985H57.4291C58.1712 31.3985 58.6469 31.8584 58.6469 32.5291ZM58.2473 32.5675C58.2663 32.1267 57.9238 31.7435 57.4672 31.7243C57.4291 31.7243 57.4101 31.7243 57.372 31.7243H56.4397V33.4107H57.372C57.8097 33.449 58.2093 33.1232 58.2473 32.6633C58.2473 32.625 58.2473 32.5866 58.2473 32.5675Z" fill="#231F20"/>
<path d="M59.0078 33.8131C59.0078 32.9699 59.5596 32.4142 60.3778 32.4142C61.196 32.4142 61.7288 32.9699 61.7288 33.8131C61.7288 34.6563 61.177 35.212 60.3778 35.212C59.5786 35.212 59.0078 34.6371 59.0078 33.8131ZM61.3482 33.8131C61.3482 33.1616 60.9677 32.74 60.3778 32.74C59.788 32.74 59.3884 33.1616 59.3884 33.8131C59.3884 34.4647 59.788 34.8862 60.3778 34.8862C60.9677 34.8862 61.3482 34.4647 61.3482 33.8131Z" fill="#231F20"/>
<path d="M66.4637 32.4717L65.4172 35.1545H65.0557L64.2185 32.8933L63.4003 35.1545H63.0197L61.9922 32.4717H62.3918L63.229 34.7329L64.0662 32.4717H64.3897L65.2079 34.7329L66.0451 32.4717H66.4637Z" fill="#231F20"/>
<path d="M69.2422 33.9472H67.111C67.1491 34.5221 67.4726 34.9054 68.0053 34.9054C68.3478 34.9054 68.6713 34.7329 68.8616 34.4454L69.147 34.5987C68.8997 34.982 68.462 35.212 68.0053 35.1928C67.2442 35.1928 66.7305 34.6371 66.7305 33.7939C66.7305 32.9507 67.2442 32.395 68.0053 32.395C68.7665 32.395 69.2612 32.9315 69.2612 33.7556C69.2422 33.8322 69.2422 33.8897 69.2422 33.9472ZM67.111 33.6789H68.8616C68.8235 33.0848 68.5001 32.7016 67.9863 32.7016C67.4726 32.7016 67.1491 33.0848 67.111 33.6789Z" fill="#231F20"/>
<path d="M71.2982 32.4142L71.2601 32.7591C70.6132 32.7591 70.2326 33.0849 70.2326 33.6023V35.1545H69.8711V32.4717H70.2326V32.9316C70.4229 32.5867 70.7844 32.4142 71.2982 32.4142Z" fill="#231F20"/>
<path d="M73.9062 33.9472H71.7751C71.8131 34.5221 72.1366 34.9054 72.6694 34.9054C73.0119 34.9054 73.3354 34.7329 73.5257 34.4454L73.8111 34.5987C73.5637 34.982 73.1261 35.212 72.6694 35.1928C71.9083 35.1928 71.3945 34.6371 71.3945 33.7939C71.3945 32.9507 71.8893 32.395 72.6694 32.395C73.4495 32.395 73.9252 32.9315 73.9252 33.7556C73.9062 33.8131 73.9062 33.9089 73.9062 33.9472ZM71.7751 33.6789H73.5257C73.4876 33.0848 73.1641 32.7016 72.6504 32.7016C72.1366 32.7016 71.8131 33.0848 71.7751 33.6789Z" fill="#231F20"/>
<path d="M77.0848 31.1877V35.1545H76.7232V34.5796C76.533 34.9821 76.1144 35.2312 75.6577 35.212C74.9156 35.212 74.3828 34.6563 74.3828 33.8323C74.3828 33.0082 74.9156 32.4333 75.6577 32.4333C76.1144 32.4142 76.533 32.6633 76.7232 33.0657V31.2069L77.0848 31.1877ZM76.7232 33.8131C76.7232 33.1615 76.3237 32.74 75.7338 32.74C75.1439 32.74 74.7443 33.1615 74.7443 33.8131C74.7443 34.4646 75.1439 34.8862 75.7338 34.8862C76.3237 34.8862 76.7232 34.4646 76.7232 33.8131Z" fill="#231F20"/>
<path d="M81.9559 33.813C81.9559 34.6562 81.4231 35.1928 80.681 35.1928C80.2243 35.2311 79.8057 34.9628 79.6154 34.5604V35.1353H79.2539V31.1685H79.6154V33.0274C79.8057 32.6249 80.2243 32.3758 80.681 32.395C81.4231 32.4141 81.9559 32.9699 81.9559 33.813ZM81.5753 33.813C81.5753 33.1615 81.1757 32.7399 80.5859 32.7399C79.996 32.7399 79.5964 33.1615 79.5964 33.813C79.5964 34.4646 79.996 34.8862 80.5859 34.8862C81.1757 34.8862 81.5753 34.4646 81.5753 33.813Z" fill="#231F20"/>
<path d="M82.469 36.2659L82.5071 35.9593C82.5832 35.9977 82.6593 36.0168 82.7354 35.9977C82.9637 35.9977 83.0589 35.8443 83.154 35.6144L83.3823 35.1161L82.1836 32.4525H82.5832L83.5726 34.7137L84.524 32.4525H84.9236L83.4965 35.6527C83.3253 36.036 83.154 36.3043 82.7735 36.3043C82.6783 36.3234 82.5642 36.3043 82.469 36.2659Z" fill="#231F20"/>
<path d="M55.5234 37.6458H56.0943L57.4262 40.7694L58.7201 37.6458H59.31L57.6736 41.4401H57.1598L55.5234 37.6458Z" fill="#231F20"/>
<path d="M60.3375 38.0865V39.3896H61.8407V39.8495H60.3375V41.4401H59.8047V37.6458H62.05V38.0865H60.3375Z" fill="#231F20"/>
<path d="M65.9535 39.5429C65.9535 40.6735 65.2114 41.44 64.1078 41.44H62.7188V37.6266H64.1078C65.2114 37.6457 65.9535 38.4122 65.9535 39.5429ZM65.3827 39.562C65.3827 38.6805 64.8499 38.1056 64.0697 38.1056H63.2515V41.0184H64.0697C64.8689 40.9993 65.3827 40.4244 65.3827 39.562Z" fill="#231F20"/>
<path d="M71.6811 41.4401L71.5098 38.5656L70.2159 41.4401H69.8925L68.5986 38.5656L68.4273 41.4401H67.8945L68.1229 37.6074H68.7127L70.0637 40.5585L71.3957 37.6074H71.9855L72.2139 41.4401H71.6811Z" fill="#231F20"/>
<path d="M72.9141 37.799C72.9141 37.6265 73.0663 37.4732 73.2375 37.4732C73.4088 37.4732 73.561 37.6265 73.561 37.799C73.561 37.9715 73.4088 38.1248 73.2375 38.1248C73.0663 38.1248 72.9141 37.9906 72.9141 37.8182V37.799ZM72.9902 38.6997H73.5039V41.4592H72.9902V38.6997Z" fill="#231F20"/>
<path d="M74.1133 40.0795C74.1133 39.2171 74.6841 38.6422 75.5404 38.6422C75.8638 38.6422 76.1873 38.738 76.4537 38.9488L76.1493 39.2938C75.978 39.1405 75.7687 39.0638 75.5404 39.083C75.0076 39.083 74.6461 39.4662 74.6461 40.0603C74.6461 40.6544 75.0076 41.0376 75.5404 41.0376C75.7877 41.0376 76.0541 40.9418 76.2254 40.7693L76.5298 41.1334C76.2444 41.3826 75.8829 41.5167 75.5213 41.4975C74.7793 41.5359 74.1513 40.9801 74.1133 40.2519C74.1133 40.1753 74.1133 40.1369 74.1133 40.0795Z" fill="#231F20"/>
<path d="M78.6072 38.6422L78.5691 39.1213C77.9602 39.1213 77.5797 39.4279 77.5797 39.907V41.44H77.0469V38.6997H77.5416V39.1021C77.7509 38.8147 78.1315 38.6422 78.6072 38.6422Z" fill="#231F20"/>
<path d="M78.7188 40.0795C78.7188 39.2938 79.3467 38.6422 80.1268 38.6422C80.907 38.6422 81.5539 39.2746 81.5539 40.0603C81.5539 40.846 80.926 41.4975 80.1458 41.4975C79.2896 41.4975 78.7188 40.9226 78.7188 40.0795ZM81.0211 40.0795C81.0211 39.5046 80.6596 39.1021 80.1458 39.1021C79.6321 39.1021 79.2515 39.4854 79.2515 40.0795C79.2515 40.6735 79.6131 41.0376 80.1458 41.0376C80.6786 41.0376 81.0211 40.6544 81.0211 40.0795Z" fill="#231F20"/>
<path d="M83.1528 37.3774C83.343 37.3774 83.5524 37.4158 83.7236 37.4924L83.6855 37.8948C83.5714 37.8374 83.4382 37.8182 83.305 37.8182C83.0767 37.799 82.8673 37.9715 82.8293 38.2015C82.8293 38.2206 82.8293 38.2398 82.8293 38.2589V38.6805H83.6475V39.1021H82.8293V41.4209H82.2965V39.1021H81.8398V38.6805H82.2965V38.1823C82.2775 37.7607 82.601 37.3774 83.0386 37.3583C83.0957 37.3583 83.1147 37.3583 83.1528 37.3774ZM84.0661 37.7799C84.0661 37.6074 84.2183 37.4541 84.3896 37.4541C84.5608 37.4541 84.7131 37.6074 84.7131 37.7799C84.7131 37.9523 84.5608 38.1056 84.3896 38.1056C84.2183 38.1056 84.0661 37.9715 84.0661 37.799C84.0661 37.799 84.0661 37.799 84.0661 37.7799ZM84.1232 38.6805H84.6369V41.44H84.1232V38.6805Z" fill="#231F20"/>
<path d="M87.9867 39.7153V41.44H87.473V39.8111C87.473 39.3896 87.1305 39.0446 86.7119 39.0446C86.2932 39.0446 85.9507 39.3896 85.9507 39.8111V41.44H85.418V38.6997H85.9127L85.9317 39.1021C86.141 38.7955 86.5026 38.623 86.8641 38.6422C87.5301 38.6422 87.9867 39.0638 87.9867 39.7153Z" fill="#231F20"/>
<path d="M90.8785 39.7153V41.44H90.3647L90.3457 40.961C90.1554 41.3059 89.7939 41.4975 89.4133 41.4975C88.8615 41.4975 88.5 41.1718 88.5 40.6735C88.5 40.1753 88.9567 39.8112 89.6417 39.8112C89.87 39.8112 90.1174 39.8303 90.3457 39.8878V39.7728C90.3457 39.3321 90.0603 39.0638 89.6036 39.0638C89.3372 39.0446 89.0899 39.1404 88.8996 39.3321L88.6712 39.0255C88.9567 38.7763 89.3372 38.6422 89.7368 38.6614C90.4218 38.6422 90.8785 39.0638 90.8785 39.7153ZM90.3647 40.2519C90.1554 40.2136 89.9461 40.1753 89.7178 40.1753C89.3182 40.1753 89.0518 40.3669 89.0518 40.6543C89.0518 40.9418 89.2421 41.1143 89.5656 41.1143C90.0222 41.0951 90.3838 40.7118 90.3647 40.2519Z" fill="#231F20"/>
<path d="M94.1708 39.7153V41.44H93.6571V39.8111C93.6761 39.4279 93.3717 39.1021 92.9911 39.1021C92.953 39.1021 92.934 39.1021 92.896 39.1021C92.4393 39.1021 92.1348 39.3896 92.1348 39.8111V41.44H91.6211V38.6997H92.1158V39.1021C92.3251 38.7955 92.6867 38.623 93.0672 38.6422C93.7332 38.6422 94.1708 39.0638 94.1708 39.7153Z" fill="#231F20"/>
<path d="M94.7422 40.0795C94.7422 39.2171 95.313 38.6422 96.1693 38.6422C96.4928 38.6422 96.8162 38.738 97.0826 38.9488L96.7782 39.2938C96.6069 39.1405 96.3976 39.0638 96.1693 39.083C95.6365 39.083 95.275 39.4662 95.275 40.0603C95.275 40.6544 95.6365 41.0376 96.1693 41.0376C96.4166 41.0568 96.683 40.9418 96.8543 40.7693L97.1587 41.1334C96.8733 41.3826 96.5118 41.5167 96.1503 41.4975C95.4082 41.555 94.7802 40.9801 94.7422 40.2519C94.7422 40.1944 94.7422 40.1369 94.7422 40.0795Z" fill="#231F20"/>
<path d="M100.071 40.2711H97.9966C98.0537 40.7693 98.3011 41.0951 98.7768 41.0951C99.0812 41.0951 99.3857 40.9418 99.5569 40.6927L99.9565 40.9035C99.6901 41.2867 99.2525 41.5167 98.7768 41.4975C97.9776 41.4975 97.4258 40.9226 97.4258 40.0795C97.4258 39.2363 97.9586 38.6422 98.7577 38.6422C99.5569 38.6422 100.071 39.1979 100.071 40.0411C100.09 40.1178 100.09 40.1944 100.071 40.2711ZM97.9966 39.907H99.5569C99.5188 39.3896 99.2334 39.0638 98.7768 39.0638C98.3201 39.0638 98.0537 39.3896 97.9966 39.907Z" fill="#231F20"/>
<path d="M104.921 40.3669C104.921 41.0184 104.407 41.44 103.646 41.44H102.086V37.6266H103.589C104.274 37.6266 104.731 38.0098 104.731 38.6039C104.731 38.968 104.502 39.2938 104.16 39.4279C104.598 39.5237 104.921 39.907 104.921 40.3669ZM102.638 39.2554H103.475C103.894 39.2554 104.179 39.0255 104.179 38.6614C104.179 38.2973 103.894 38.0673 103.475 38.0673H102.638V39.2554ZM104.35 40.3477C104.35 39.9645 104.046 39.7153 103.608 39.7153H102.619V40.9993H103.589C104.065 40.9993 104.35 40.731 104.35 40.3477Z" fill="#231F20"/>
<path d="M107.699 39.7153V41.44H107.185L107.166 40.961C106.976 41.3059 106.614 41.4975 106.234 41.4975C105.682 41.4975 105.32 41.1718 105.32 40.6735C105.32 40.1753 105.777 39.8112 106.462 39.8112C106.69 39.8112 106.938 39.8303 107.166 39.8878V39.7728C107.166 39.3321 106.881 39.0638 106.424 39.0638C106.158 39.0446 105.91 39.1404 105.72 39.3321L105.492 39.0255C105.777 38.7763 106.158 38.6422 106.557 38.6614C107.242 38.6422 107.699 39.0638 107.699 39.7153ZM107.166 40.2519C106.957 40.2136 106.747 40.1753 106.519 40.1753C106.119 40.1753 105.853 40.3669 105.853 40.6543C105.853 40.9418 106.043 41.1143 106.367 41.1143C106.843 41.0951 107.185 40.731 107.166 40.2519C107.166 40.2711 107.166 40.2711 107.166 40.2519Z" fill="#231F20"/>
<path d="M110.99 39.7153V41.44H110.457V39.8111C110.476 39.4279 110.172 39.1021 109.791 39.1021C109.753 39.1021 109.734 39.1021 109.696 39.1021C109.24 39.1021 108.935 39.3896 108.935 39.8111V41.44H108.402V38.6997H108.897V39.1021C109.106 38.7955 109.468 38.623 109.848 38.6422C110.533 38.6422 110.99 39.0638 110.99 39.7153Z" fill="#231F20"/>
<path d="M112.667 40.2136H112.267V41.44H111.734V37.4349H112.267V39.792H112.667L113.637 38.6997H114.303L113.085 40.0028L114.36 41.44H113.694L112.667 40.2136Z" fill="#231F20"/>
<defs>
<linearGradient id="paint0_linear_636_5743" x1="0.172156" y1="23.3495" x2="56.1185" y2="23.3495" gradientUnits="userSpaceOnUse">
<stop stop-color="#A6418A"/>
<stop offset="0.57" stop-color="#EF3B3E"/>
<stop offset="1" stop-color="#F79532"/>
</linearGradient>
</defs>
</svg>
