<svg width="239" height="45" viewBox="0 0 239 45" fill="none" xmlns="http://www.w3.org/2000/svg">
<path fill-rule="evenodd" clip-rule="evenodd" d="M34.5043 0.901794C34.5724 1.02186 34.6465 1.13841 34.7263 1.251C35.3214 2.0011 35.2683 2.40618 34.6537 3.14649C34.4838 3.35093 34.3135 3.55518 34.1432 3.75948L34.1431 3.7596L34.143 3.75972L34.1429 3.75985L34.1428 3.75997L34.1427 3.76009L34.1426 3.76021L34.1425 3.76034L34.1424 3.76046L34.1423 3.76058L34.1422 3.7607L34.141 3.76214L34.1409 3.76219L34.1409 3.76223L34.1409 3.76226C32.9749 5.16089 31.8072 6.56149 30.7426 8.03538C30.3048 8.6378 29.9604 9.30619 29.6157 9.97538C29.384 10.4249 29.1522 10.8748 28.8918 11.3054C28.6823 11.6504 28.3121 12.0261 27.9503 12.1127C27.6249 12.1895 27.0243 11.9926 26.879 11.73C26.6778 11.3668 26.608 10.7313 26.798 10.3848C27.8218 8.51449 28.8597 6.63995 30.0582 4.87995C30.6176 4.05451 31.3025 3.31443 31.9869 2.57497L31.987 2.57487C32.3159 2.21946 32.6447 1.86418 32.9594 1.49964C33.0716 1.37366 33.1685 1.22757 33.2649 1.08239V1.08238L33.2649 1.08237C33.3052 1.02151 33.3455 0.960797 33.3868 0.901794H34.5043ZM0.130132 21.1203L0.130157 21.1203C0.225913 21.0973 0.321775 21.0743 0.358984 21.0161C0.669079 20.5216 1.17194 20.354 1.61613 20.5733C1.96952 20.7465 2.38718 21.2019 2.41232 21.5581C2.56693 23.8052 2.64141 26.0587 2.71587 28.3113L2.7266 28.6358C2.75314 29.4627 2.25867 29.9362 1.50578 29.8929C0.947048 29.8608 0.586667 29.5465 0.490286 29.0129C0.424163 28.6422 0.38377 28.267 0.343356 27.8916C0.312057 27.6009 0.280746 27.31 0.23746 27.0211C0.217645 26.8908 0.153209 26.767 0.0885059 26.6426C0.0574275 26.5829 0.0262873 26.5231 0 26.4623L0.00279365 21.1558C0.0412869 21.1416 0.0856664 21.131 0.130072 21.1203H0.130075H0.130078H0.130083H0.13009H0.1301L0.130113 21.1203L0.130132 21.1203ZM28.8779 39.0142C30.2999 41.2044 31.9244 43.2256 33.9456 44.9018H34.225C34.3221 44.8412 34.4234 44.7875 34.5281 44.7412C35.4681 44.4031 35.6958 43.5902 35.0644 42.8331C33.6369 41.1234 32.2121 39.4118 30.7902 37.6984C30.2915 37.0963 29.702 36.9497 29.1433 37.3059C28.5692 37.676 28.4365 38.3325 28.8779 39.0142ZM238.301 16.1272L237.296 16.0546V12.522L237.075 12.4968C237.006 12.7797 236.933 13.0618 236.86 13.344L236.86 13.345L236.86 13.3459L236.86 13.3469L236.859 13.348L236.859 13.349L236.859 13.3494C236.691 14.0034 236.522 14.6576 236.4 15.3198C236.277 15.9833 236.008 16.2725 235.266 16.0182C235.126 15.4455 234.984 14.864 234.84 14.2776L234.824 14.2118C234.676 13.6069 234.527 12.9971 234.378 12.3865L234.192 12.4033V16.035H233.315V11.0497H234.76L235.665 14.3281L235.805 14.356C236.008 13.6232 236.212 12.8898 236.416 12.156C236.738 11.0023 236.74 11.0022 237.957 10.9911L237.962 10.9911C238.04 10.9911 238.118 10.9813 238.196 10.9716C238.233 10.967 238.269 10.9625 238.305 10.9589L238.301 16.1272ZM177.436 21.4676C177.437 21.7618 177.437 22.0586 177.437 22.3584C177.566 22.3164 177.683 22.2759 177.792 22.238L177.792 22.2378C177.973 22.1752 178.132 22.1198 178.292 22.0763C179.569 21.741 180.689 22.026 181.622 22.9619C182.555 23.8977 182.828 25.0459 182.473 26.3031C182.001 27.9779 180.459 28.9682 178.742 28.7475C177.937 28.654 177.193 28.2686 176.653 27.6643C176.112 27.0599 175.812 26.2785 175.809 25.4678C175.785 24.1002 175.786 22.7327 175.787 21.3651V21.3623C175.788 20.6132 175.788 19.8641 175.785 19.115C175.785 18.9265 175.766 18.7372 175.747 18.5478L175.746 18.5457C175.742 18.5034 175.738 18.4611 175.734 18.4188C175.732 18.3972 175.73 18.3756 175.728 18.3539C175.726 18.3371 175.725 18.3203 175.723 18.3035H171.882V41.1974H175.837V31.9784C177.331 32.6796 178.794 32.9254 180.29 32.6628C184.445 31.9351 186.99 28.4053 186.447 24.1953C185.94 20.2688 181.684 17.253 177.868 18.1344C177.7 18.1722 177.457 18.4054 177.457 18.5535C177.431 19.5145 177.433 20.4763 177.436 21.4658V21.4676ZM100.434 22.7146C99.8156 21.6977 99.0627 21.3178 98.1869 21.2549C96.7901 21.16 95.6196 21.6656 94.8876 22.9172C94.1194 24.2316 94.2032 25.5474 95.0692 26.7864C95.9073 27.9807 97.082 28.5464 98.5124 28.2642C99.2597 28.1245 99.979 27.7264 100.652 27.3451C101.025 27.1328 101.27 27.0392 101.64 27.3088C102.194 27.7137 102.762 28.1008 103.344 28.4962L103.344 28.4964C103.625 28.6875 103.908 28.8806 104.195 29.0786C103.002 30.5801 101.58 31.5481 99.7388 31.9323C96.6001 32.5888 93.5788 31.4839 91.8034 28.9598C89.7487 26.0405 90.1496 21.9757 92.7407 19.4502C95.2745 16.9848 99.2611 16.6761 102.006 18.7979C103.649 20.0676 104.541 21.7927 104.723 23.8712C104.748 24.1679 104.764 24.4657 104.781 24.7642C104.798 25.0712 104.814 25.3789 104.841 25.6871C104.889 26.2165 104.716 26.4288 104.143 26.4204C103.745 26.4144 103.346 26.4068 102.948 26.3991C101.203 26.3655 99.4562 26.3319 97.7176 26.44C96.2677 26.5294 95.6712 25.0655 96.1462 23.9815C96.5037 23.1616 97.1407 22.7174 98.0598 22.7244L100.434 22.7146ZM203.406 18.2713H199.634V19.0284C199.633 19.6653 199.635 20.3023 199.636 20.9395V20.9396V20.9398V20.9399V20.9401V20.9402V20.9404V20.9406V20.9407V20.9409V20.941V20.9412V20.9413V20.9415V20.9416V20.9418V20.9419V20.9421V20.9422V20.9424V20.9426V20.9427V20.9429V20.943V20.9432V20.9433V20.9435V20.9436V20.9438V20.9439V20.9441V20.9442V20.9444V20.9445V20.9447V20.9449C199.639 22.4228 199.641 23.9013 199.619 25.3798C199.591 27.2766 198.129 28.802 196.322 28.8844C194.46 28.9696 192.853 27.6803 192.61 25.905C192.347 23.9843 193.537 22.2481 195.473 21.9268C195.976 21.8431 196.504 21.9077 197.051 21.9747C197.307 22.0061 197.567 22.0379 197.831 22.0553C197.831 21.8065 197.832 21.5519 197.833 21.2929C197.836 20.4164 197.84 19.4894 197.807 18.5632C197.803 18.4152 197.497 18.1512 197.316 18.1358L197.282 18.133C196.58 18.0752 195.857 18.0157 195.17 18.1009C193.315 18.3282 191.617 19.2552 190.422 20.6926C189.227 22.1299 188.626 23.9691 188.742 25.8346C188.857 27.7 189.68 29.451 191.043 30.7299C192.406 32.0088 194.206 32.7192 196.075 32.7159C196.832 32.7073 197.586 32.551 198.353 32.3921C198.712 32.3178 199.073 32.2429 199.439 32.1823C199.328 32.6407 199.658 32.6327 200 32.6245L200.001 32.6245C200.025 32.6239 200.048 32.6234 200.072 32.6229C200.094 32.6226 200.116 32.6223 200.137 32.6223C200.386 32.6223 200.636 32.6192 200.885 32.6161L200.885 32.6161C201.474 32.6088 202.063 32.6015 202.651 32.6349C203.276 32.6684 203.48 32.4938 203.48 31.8303C203.452 27.5784 203.452 23.3152 203.452 19.0577C203.452 18.8908 203.439 18.7207 203.425 18.543L203.425 18.5425L203.425 18.5412L203.425 18.5397C203.418 18.4523 203.411 18.363 203.406 18.2713ZM83.4701 31.5495C83.1096 31.5941 82.7391 31.6547 82.3617 31.7164C81.5573 31.8479 80.7215 31.9844 79.8858 31.9825C76.6396 31.9825 73.6504 29.3202 73.1182 26.1075C72.4198 21.8611 75.1017 18.1456 79.3522 17.4723C82.6864 16.9499 86.0779 19.2128 87.0906 22.709C87.3401 23.6017 87.4785 24.5217 87.5027 25.4482C87.5379 26.4794 87.5345 27.5122 87.5312 28.5444C87.5284 29.3971 87.5256 30.2493 87.5446 31.0998C87.5614 31.7744 87.3141 31.9518 86.6981 31.9183C86.3588 31.8992 86.0182 31.9034 85.6777 31.9076C85.2964 31.9123 84.9151 31.917 84.5358 31.889C84.2967 31.8718 84.0633 31.7786 83.8195 31.6812L83.8194 31.6812C83.7058 31.6358 83.5899 31.5895 83.4701 31.5495ZM80.2574 28.2041C81.1743 28.1987 82.0524 27.8327 82.7018 27.1854C83.3513 26.538 83.7201 25.6612 83.7285 24.7442C83.7285 22.8515 82.0998 21.2214 80.2113 21.2368C79.7517 21.2435 79.2981 21.3407 78.8761 21.5228C78.4542 21.7049 78.0722 21.9683 77.7521 22.298C77.432 22.6278 77.1799 23.0173 77.0104 23.4445C76.8408 23.8716 76.7571 24.328 76.7639 24.7875C76.7683 25.2414 76.8622 25.69 77.0402 26.1076C77.2183 26.5251 77.477 26.9035 77.8015 27.2208C78.1261 27.5382 78.51 27.7885 78.9315 27.9572C79.3529 28.1259 79.8035 28.2099 80.2574 28.2041ZM132.107 29.7067L132.107 29.7022C132.106 29.4356 132.105 29.1645 132.105 28.8872L131.993 28.8872L131.884 28.8873H131.882H131.882C131.545 28.8875 131.278 28.8876 131.014 28.883C129.456 28.8746 128.782 28.253 128.758 26.7054C128.744 25.6056 128.743 24.5059 128.742 23.4061V23.404C128.742 22.433 128.741 21.4619 128.731 20.4909C128.727 20.0607 128.902 19.9056 129.301 19.9056H131.117C131.47 19.907 131.688 19.8106 131.688 19.3916C131.683 19.0645 131.684 18.7367 131.685 18.4087V18.4086V18.4085V18.4084V18.4083V18.4082V18.4081V18.408V18.4079V18.4078V18.4077V18.4076V18.4075V18.4074V18.4073V18.4072V18.4071V18.407V18.4069V18.4068V18.4067V18.4066V18.4065V18.4064V18.4063V18.4062V18.4061V18.406V18.4059V18.4058V18.4057V18.4056V18.4055V18.4054V18.4053C131.687 17.8267 131.689 17.2475 131.658 16.6706C131.648 16.5023 131.378 16.3248 131.187 16.1996L131.17 16.1887C131.097 16.1441 130.991 16.1553 130.886 16.1663C130.84 16.1712 130.794 16.1761 130.751 16.1761C129.743 16.1747 129.236 16.174 128.981 15.9203C128.724 15.6642 128.724 15.1502 128.724 14.1173V14.1172V12.4968C128.447 12.678 128.176 12.8549 127.91 13.0285L127.906 13.0312C126.884 13.6974 125.936 14.3162 124.995 14.9483C124.936 15.0005 124.889 15.0651 124.858 15.1376C124.826 15.21 124.812 15.2885 124.815 15.3673C124.893 16.0252 124.602 16.2613 123.976 16.1817C123.513 16.123 123.359 16.3549 123.373 16.7949C123.385 17.2139 123.381 17.633 123.377 18.052C123.375 18.2615 123.373 18.4711 123.373 18.6806C123.372 19.2717 123.371 19.5678 123.518 19.7319C123.665 19.8966 123.961 19.9283 124.555 19.9918L124.559 19.9922C124.643 20.022 124.722 20.0633 124.795 20.1151V20.9211C124.795 21.6357 124.786 22.3504 124.777 23.0648C124.758 24.6335 124.738 26.2012 124.808 27.7655C124.972 31.5035 128.069 33.5065 131.677 32.4812C131.848 32.4337 132.085 32.1963 132.085 32.0412C132.113 31.277 132.11 30.5128 132.107 29.7067ZM151.37 29.2909C151.37 29.5743 151.371 29.8518 151.372 30.1248V30.1255V30.1262V30.1266V30.1269V30.1273V30.1276V30.1279V30.1282V30.1286V30.1289V30.1292V30.1295V30.1298V30.1301V30.1304V30.1307V30.131V30.1313V30.1316V30.1319V30.1322V30.1324V30.1327V30.133V30.1333V30.1335V30.1338V30.134V30.1343V30.1346V30.1348V30.1351V30.1353V30.1356V30.1358C151.375 30.935 151.377 31.6954 151.354 32.4519C151.332 32.5436 151.289 32.6288 151.227 32.7005C151.166 32.7721 151.088 32.8281 151.001 32.864C147.442 33.9814 144.21 31.9379 144.057 28.3578C143.969 26.2542 144.006 24.1441 144.043 22.0371C144.048 21.7474 144.053 21.4578 144.057 21.1683C144.066 20.5286 143.859 20.252 143.219 20.3302C142.661 20.3959 142.494 20.1361 142.521 19.5983C142.563 18.8091 142.557 18.0157 142.521 17.2237C142.501 16.739 142.669 16.5253 143.158 16.5839C143.799 16.665 144.122 16.4443 144.064 15.7459C144.072 15.6467 144.1 15.5504 144.148 15.4635C144.197 15.3766 144.263 15.3014 144.344 15.243C145.199 14.667 146.063 14.1073 147.014 13.4908L147.015 13.4904L147.016 13.4897L147.017 13.489L147.018 13.4888L147.02 13.4873L147.021 13.4864C147.311 13.2985 147.61 13.1053 147.918 12.9047V15.0991C147.919 15.1585 147.919 15.2155 147.919 15.2703C147.919 15.3043 147.919 15.3375 147.919 15.3698V15.3756V15.3821V15.3895V15.3981C147.92 16.0299 147.921 16.3269 148.069 16.4645C148.2 16.5866 148.448 16.5834 148.916 16.5773C149.049 16.5755 149.2 16.5736 149.371 16.5742L149.392 16.5743C150.942 16.5811 150.944 16.5811 150.945 18.1568C150.945 18.3128 150.944 18.4689 150.942 18.625C150.938 19.0043 150.934 19.3837 150.954 19.7617C150.976 20.1933 150.797 20.3428 150.385 20.3316C149.966 20.3205 149.547 20.3242 149.128 20.3279C148.918 20.3298 148.709 20.3316 148.499 20.3316C148.119 20.3316 147.941 20.4993 147.941 20.875C147.949 21.5182 147.954 22.1615 147.958 22.8045V22.8053V22.806V22.8068V22.8075V22.8083V22.809V22.8098V22.8105V22.8113V22.8121V22.8128V22.8136V22.8143V22.8151V22.8158V22.8166V22.8173V22.8181V22.8188V22.8196V22.8204V22.8211V22.8219V22.8226V22.8234V22.8241V22.8249V22.8256V22.8264V22.8271V22.8279V22.8287V22.8294V22.8304C147.97 24.413 147.982 25.9946 148.041 27.5728C148.083 28.6902 148.798 29.2671 149.931 29.302C150.144 29.302 150.355 29.2995 150.576 29.2969L150.577 29.2969C150.822 29.294 151.081 29.2909 151.37 29.2909ZM224.401 22.5442L227.74 20.7283C226.751 19.1653 225.572 18.0828 223.642 18.0367C221.572 17.9934 219.779 18.9739 219.128 20.6683C218.459 22.4115 219.061 24.2763 220.738 25.6088C221.015 25.8275 221.298 26.0396 221.581 26.2519C221.856 26.4587 222.132 26.6656 222.403 26.8786C222.486 26.9439 222.571 27.0081 222.657 27.0726L222.657 27.0727L222.657 27.0727L222.657 27.0728L222.657 27.0729L222.657 27.073L222.657 27.0731L222.657 27.0732C222.965 27.3048 223.275 27.5388 223.505 27.8326C223.651 28.0201 223.71 28.277 223.769 28.5341L223.769 28.5344C223.795 28.6489 223.821 28.7634 223.855 28.8718C223.726 28.8988 223.59 28.9439 223.455 28.9889C223.162 29.086 222.871 29.1826 222.65 29.0967C222.317 28.9672 222.072 28.5553 221.861 28.201C221.844 28.1732 221.828 28.1458 221.812 28.1189C221.726 27.9747 221.708 27.7896 221.687 27.5758C221.677 27.4709 221.667 27.359 221.647 27.2417L218.275 29.1708C218.6 31.1459 219.631 32.3374 221.488 32.741C222.281 32.906 223.095 32.9423 223.9 32.8486C226.048 32.6083 227.581 31.185 227.877 29.1484C228.124 27.4373 227.551 25.9748 226.189 24.8811C225.734 24.516 225.265 24.1673 224.796 23.8186L224.796 23.8185L224.796 23.8184L224.796 23.8183L224.795 23.8182L224.795 23.8181L224.795 23.818L224.795 23.8179L224.795 23.8178L224.795 23.8177L224.795 23.8176L224.795 23.8175L224.795 23.8174L224.795 23.8173L224.794 23.8172L224.794 23.8171L224.794 23.817L224.794 23.8169L224.794 23.8168L224.794 23.8167L224.794 23.8166L224.794 23.8165L224.794 23.8164L224.794 23.8163L224.793 23.8162L224.793 23.8162L224.793 23.8161L224.793 23.816L224.793 23.8159L224.793 23.8158L224.793 23.8157L224.793 23.8156L224.792 23.8153C224.255 23.4152 223.717 23.0151 223.199 22.5903C223.084 22.496 223.067 22.2814 223.05 22.0659C223.043 21.9654 223.035 21.8648 223.017 21.776C223.11 21.7905 223.205 21.7996 223.3 21.8087C223.524 21.8302 223.749 21.8518 223.939 21.945C224.074 22.0111 224.167 22.1659 224.263 22.327L224.263 22.3273L224.264 22.3287C224.307 22.4019 224.352 22.4763 224.401 22.5442ZM215.687 20.7367L212.38 22.5372C212.338 22.4786 212.301 22.4187 212.264 22.3606C212.179 22.2249 212.099 22.0991 211.988 22.0218C211.756 21.8626 211.497 21.7484 211.224 21.6852C211.132 21.6628 210.873 21.8877 210.89 21.9478C210.956 22.1964 211.038 22.5065 211.222 22.6462C211.692 23.0193 212.174 23.3763 212.656 23.7331L212.657 23.7333C213.165 24.1097 213.673 24.486 214.167 24.8811C215.506 25.9553 216.085 27.3954 215.86 29.0814C215.58 31.1319 214.091 32.5734 211.937 32.8304C211.018 32.9347 210.087 32.8798 209.186 32.6684C207.429 32.2494 206.582 30.9335 206.222 29.1763L209.615 27.2362C209.635 27.3517 209.649 27.4596 209.663 27.5609C209.69 27.7706 209.714 27.9523 209.782 28.1161C209.909 28.4235 210.062 28.7643 210.299 28.9738C210.696 29.3202 211.528 29.2532 211.777 28.9109C212.133 28.4123 211.736 28.0281 211.439 27.7683C210.825 27.2352 210.18 26.7376 209.536 26.2402L209.536 26.2401C209.26 26.0273 208.984 25.8146 208.711 25.5991C207.746 24.8378 207.043 23.8991 206.895 22.6476C206.616 20.2562 208.166 18.3901 210.566 18.0855C212.879 17.8034 214.541 18.6764 215.687 20.7367ZM156.047 37.6366C156.012 37.7267 155.974 37.8239 155.93 37.9316C156.296 37.9316 156.654 37.9294 157.007 37.9271C157.859 37.9217 158.679 37.9165 159.499 37.9442C160.02 37.961 160.272 37.7766 160.488 37.3059C163.323 31.2008 166.159 25.0962 168.998 18.9921C169.051 18.8701 169.099 18.7445 169.155 18.5959L169.155 18.5951C169.191 18.5005 169.23 18.3966 169.277 18.2783C168.892 18.2783 168.515 18.2805 168.145 18.2827C167.261 18.2878 166.414 18.2927 165.567 18.2671C165.053 18.2518 164.785 18.4152 164.567 18.8943C161.798 24.977 159.025 31.0593 156.249 37.141C156.179 37.2968 156.119 37.452 156.047 37.6366ZM139.628 32.9576H135.298C135.296 32.9165 135.293 32.8763 135.291 32.8367L135.288 32.8003L135.287 32.7761L135.284 32.7354L135.284 32.7351C135.273 32.5666 135.263 32.4083 135.263 32.2508C135.263 30.7557 135.265 29.2606 135.268 27.7656C135.273 24.7754 135.278 21.7853 135.263 18.7951C135.263 18.1289 135.47 17.957 136.101 17.985C137.062 18.0308 138.027 18.0091 138.99 17.9874L138.99 17.9874L139.099 17.985C139.477 17.985 139.642 18.1023 139.642 18.5046C139.627 22.665 139.628 26.8201 139.628 31.0302V31.0336V31.0369V31.0403V31.0437V31.0471V31.0505V31.0539V31.0573V31.0607V31.0641V31.0676V31.071V31.0744V31.0778V31.0812V31.0847V31.0881V31.0915V31.095V31.0984V31.1018V31.1053V31.1087V31.1122V31.1156V31.1191V31.1226V31.126V31.1295L139.628 32.2074L139.628 32.9576ZM70.6131 26.5291C70.6141 25.956 70.615 25.3829 70.615 24.8099C70.615 24.1902 70.6143 23.5705 70.6137 22.9507V22.9504V22.9502V22.9499V22.9496V22.9494V22.9491V22.9489V22.9486V22.9484V22.9481V22.9479V22.9476V22.9473V22.9471V22.9468V22.9466V22.9463V22.9461V22.9458V22.9456V22.9453V22.945V22.9448V22.9445V22.9443V22.944C70.6121 21.2847 70.6104 19.6248 70.6206 17.9626C70.6234 17.4947 70.4907 17.2824 69.9878 17.2977C69.01 17.3257 68.0322 17.3285 67.0545 17.2977C66.5279 17.2852 66.3686 17.4919 66.3686 17.9962C66.3826 22.5144 66.3826 27.0308 66.3686 31.5454C66.3658 32.079 66.5279 32.2997 67.0866 32.2787C68.0169 32.241 68.9514 32.2368 69.8802 32.2787C70.4725 32.3066 70.6345 32.0845 70.6275 31.5146C70.6078 29.8528 70.6105 28.1909 70.6131 26.5291ZM113.602 20.4297L113.602 20.4276C113.597 19.6278 113.592 18.8457 113.635 18.066C113.644 17.8956 114.022 17.6246 114.246 17.605C117.613 17.3005 120.253 19.4377 120.464 22.8152C120.591 24.8844 120.601 26.9611 120.611 29.0382V29.0382V29.0383V29.0384V29.0385V29.0385V29.0386V29.0387V29.0387V29.0388V29.0389V29.0389V29.039V29.0391V29.0392V29.0392V29.0393V29.0394V29.0394V29.0395V29.0396V29.0396V29.0397V29.0398V29.0399V29.0399V29.04V29.0401C120.615 29.9139 120.618 30.7879 120.631 31.6613C120.622 31.7635 120.602 31.8646 120.573 31.963H116.723C116.719 31.8864 116.714 31.8096 116.708 31.7327C116.696 31.5448 116.684 31.3562 116.68 31.1668C116.668 30.425 116.661 29.6827 116.655 28.9404V28.9403V28.9402V28.9401V28.94V28.9399V28.9398V28.9397V28.9396V28.9395V28.9394V28.9393V28.9392V28.9391V28.939V28.9389V28.9388V28.9387V28.9386V28.9385V28.9384V28.9383V28.9382V28.938V28.9379V28.9378V28.9377V28.9376C116.641 27.2644 116.626 25.5909 116.547 23.9215C116.451 21.9045 115.702 21.2689 113.605 21.2284C113.605 20.9599 113.604 20.6938 113.602 20.4297ZM111.837 26.5271V26.5269V26.5268V26.5266V26.5264V26.5263V26.5261V26.5259V26.5258V26.5256V26.5254V26.5253V26.5251V26.5249V26.5248V26.5246V26.5244V26.5243V26.5241V26.5239V26.5238V26.5236V26.5234V26.5233C111.838 25.9321 111.84 25.3409 111.84 24.7498L111.831 24.7721C111.831 24.1742 111.83 23.5766 111.829 22.9792V22.9784V22.9777V22.9769V22.9762V22.9754V22.9746V22.9739V22.9731V22.9724V22.9716V22.9708V22.9701V22.9693V22.9686V22.9678V22.967V22.9663V22.9655V22.9647V22.964V22.9632V22.9625V22.9617V22.9609V22.9602V22.9594C111.827 21.3738 111.824 19.7901 111.84 18.2071C111.84 17.6902 111.726 17.4318 111.141 17.4584C110.32 17.4908 109.497 17.4762 108.676 17.4617L108.487 17.4584C108.078 17.4444 107.901 17.5883 107.901 18.0171C107.904 22.5065 107.899 26.9968 107.885 31.4881C107.884 31.8862 108.032 32.0203 108.419 32.0133C109.324 31.9965 110.235 31.9798 111.14 32.0203C111.689 32.0454 111.861 31.8736 111.852 31.3149C111.83 29.7178 111.833 28.1223 111.837 26.5271ZM33.5656 21.9771C33.6104 21.7264 33.6614 21.4386 33.7174 21.1219C33.9148 20.0075 34.1755 18.5357 34.4539 17.0672C34.5178 16.7719 34.652 16.4964 34.845 16.2641C35.2208 15.8073 35.739 15.7794 36.2419 16.0182C36.8202 16.2976 36.897 16.8354 36.7922 17.3941C36.7138 17.8093 36.6212 18.2224 36.5286 18.6357L36.5285 18.636C36.4234 19.1054 36.3182 19.5749 36.2335 20.0481C35.5351 24.0723 36.3159 27.841 38.2114 31.4168C38.2536 31.4943 38.2977 31.5717 38.342 31.6497L38.3421 31.6498L38.3421 31.6499L38.3422 31.6501L38.3423 31.6502L38.3424 31.6504L38.3424 31.6505L38.3425 31.6506C38.4578 31.8534 38.575 32.0595 38.6668 32.2773C38.9559 32.9617 38.7911 33.5512 38.2477 33.8641C37.6359 34.2189 37.0674 34.1001 36.6483 33.4017C36.134 32.5452 35.6709 31.659 35.2613 30.7478C34.1257 28.2125 33.6871 25.5208 33.5656 21.9771ZM44.0308 10.8416C40.5722 13.7805 38.7102 17.5142 38.4588 21.9087V22.4702C38.4602 23.3711 38.8695 23.9648 39.5567 23.9815C40.244 23.9983 40.6365 23.4717 40.7482 22.5526C40.8588 21.4461 41.0351 20.3472 41.2762 19.2617C41.9411 16.5448 43.5209 14.3951 45.5994 12.5793C46.2796 11.9814 46.3313 11.3794 45.834 10.8207C45.3703 10.301 44.6719 10.2955 44.0308 10.8416ZM39.6727 40.9558C39.5631 41.0812 39.4658 41.208 39.3731 41.3288C39.1799 41.5806 39.0066 41.8065 38.7829 41.9405C38.3275 42.2101 37.8149 42.0802 37.4517 41.6765C37.0449 41.2268 36.625 40.7857 36.2051 40.3447C35.1632 39.2503 34.1213 38.1559 33.278 36.9273C32.3291 35.5449 31.6174 33.9954 30.9088 32.4524L30.9088 32.4523L30.9087 32.4523L30.9087 32.4522L30.9087 32.4522L30.9086 32.4521L30.9086 32.4521L30.9086 32.452L30.9086 32.4519L30.9085 32.4519L30.9085 32.4518L30.9085 32.4518L30.9085 32.4517L30.9084 32.4516L30.9084 32.4516L30.9084 32.4515L30.9084 32.4515L30.9083 32.4514L30.9083 32.4514L30.9083 32.4513L30.9083 32.4512L30.9082 32.4512L30.9082 32.4511L30.9082 32.4511C30.7334 32.0706 30.5589 31.6905 30.381 31.3135C30.2329 31.0006 30.3391 30.3818 30.5723 30.122C30.8056 29.8622 31.4104 29.6848 31.7373 29.7993C32.1033 29.9264 32.4567 30.3734 32.6159 30.7631C33.4777 32.8584 34.4904 34.8726 35.932 36.6298C36.503 37.3251 37.1256 37.9765 37.7489 38.6287L37.7489 38.6288L37.7491 38.629C38.1213 39.0184 38.4937 39.4081 38.8555 39.8076C39.0501 40.0175 39.2099 40.2604 39.3957 40.5429L39.3957 40.543C39.4807 40.6721 39.571 40.8094 39.6727 40.9558ZM24.125 21.1928L24.1248 21.1946L24.124 21.2024C24.0843 21.583 24.0467 21.9424 24.0115 22.2732C24.042 22.7939 24.0645 23.2662 24.0855 23.7054C24.1287 24.6119 24.1652 25.3775 24.2517 26.1369C24.3836 27.2197 24.5701 28.2953 24.8105 29.3593C24.9739 30.1094 25.5745 30.5271 26.1528 30.4111C26.8275 30.2743 27.1725 29.7281 27.0845 28.9235C27.0673 28.7383 27.0402 28.5541 27.0035 28.3718C26.4015 25.5977 26.326 22.7984 26.6054 19.9838C26.6426 19.611 26.6851 19.2388 26.7276 18.8666L26.7276 18.8665L26.7276 18.8664L26.7276 18.8662L26.7276 18.8661L26.7276 18.866L26.7276 18.8658L26.7277 18.8657L26.7277 18.8656L26.7277 18.8655L26.7277 18.8653L26.7277 18.8652L26.7277 18.8651L26.7277 18.8649L26.7277 18.8648L26.7278 18.8647L26.7278 18.8646L26.7278 18.8644L26.7278 18.8643L26.7278 18.8642L26.7278 18.8641L26.7278 18.8639L26.7278 18.8638C26.7904 18.3154 26.853 17.767 26.8987 17.2167C26.949 16.6077 26.5607 16.1747 26.0313 16.1342C25.6472 16.1049 25.1876 16.3758 24.8538 16.6343C24.6512 16.7893 24.5674 17.1678 24.5325 17.457C24.3794 18.7568 24.2426 20.0667 24.125 21.1928ZM4.84142 23.0024L4.87697 22.4755C5.00186 20.6238 5.11321 18.9727 5.24091 17.3229C5.30237 16.5239 5.88066 15.9889 6.54275 16.0657C7.25234 16.1509 7.64345 16.8047 7.56244 17.6176C7.27469 20.5509 7.13082 23.4954 7.44929 26.4441C7.54428 27.32 7.61412 28.2014 7.64904 29.0814C7.68256 29.8929 7.3152 30.3385 6.62796 30.4167C6.01615 30.488 5.45882 30.0242 5.38478 29.2713C5.22895 27.6895 5.09836 26.1047 4.9757 24.6161L4.9757 24.6161C4.93014 24.0632 4.88568 23.5236 4.84142 23.0024ZM153.933 18.2825L158.593 28.0128C158.778 27.6114 158.96 27.2192 159.139 26.8334L159.141 26.8295C159.67 25.6887 160.173 24.6045 160.654 23.5094C160.737 23.3195 160.654 23.0121 160.559 22.7984C160.417 22.4809 160.256 22.1693 160.095 21.8578L160.095 21.8574L160.094 21.857C159.805 21.2971 159.515 20.7375 159.336 20.1445C158.855 18.5716 157.914 17.9975 156.308 18.2615C155.811 18.3431 155.297 18.3236 154.745 18.3027C154.484 18.2927 154.214 18.2825 153.933 18.2825ZM83.7397 9.08161C84.0592 9.27975 84.3697 9.47133 84.6732 9.6586L84.6734 9.65871L84.6744 9.65933C85.5515 10.2005 86.3702 10.7057 87.1773 11.2285C87.2678 11.2935 87.3436 11.3769 87.3997 11.4732C87.4557 11.5695 87.4909 11.6765 87.5028 11.7873C87.5203 13.727 87.5189 15.6668 87.5175 17.6799L87.5175 17.6993C87.5171 18.2486 87.5167 18.8033 87.5167 19.365C86.539 18.0604 85.4341 17.1301 84.0722 16.5267C83.9865 16.478 83.9132 16.4102 83.8579 16.3285C83.8027 16.2469 83.767 16.1536 83.7537 16.056C83.737 14.2429 83.738 12.4343 83.7392 10.54L83.7392 10.5145C83.7394 10.0427 83.7397 9.5655 83.7397 9.08161ZM51.4548 28.1522C51.6789 28.2749 51.9025 28.3973 52.1183 28.5268L52.2161 28.362C52.7902 28.4067 53.1185 28.1273 53.342 27.6091C53.5654 27.0909 53.3434 26.6984 52.9676 26.3785C52.7428 26.2142 52.505 26.0685 52.2566 25.9427C50.9422 25.1619 50.1879 24.0318 50.4002 22.4856C50.4804 21.9049 50.754 21.3449 51.0224 20.7956L51.0224 20.7955C51.0814 20.6749 51.1401 20.5547 51.1964 20.435C51.6113 19.5536 51.2118 18.6233 50.3332 18.5856C49.6976 18.5591 49.3219 18.9935 48.9992 19.467C47.3496 21.8835 47.7798 25.3574 50.0231 27.2417C50.4497 27.6018 50.9537 27.8777 51.4548 28.1522ZM16.02 16.0588C16.745 16.0588 17.2856 16.7139 17.2353 17.4556C17.0956 19.6318 16.9559 21.8095 16.8567 23.9885C16.8404 24.3356 16.8758 24.6849 16.9113 25.0344L16.9113 25.0345C16.9393 25.3108 16.9674 25.5874 16.9699 25.8631C16.9699 26.6523 16.5075 27.1859 15.8524 27.2166C15.6935 27.2197 15.5356 27.1912 15.3879 27.1326C15.2402 27.074 15.1056 26.9866 14.992 26.8754C14.8785 26.7642 14.7883 26.6315 14.7266 26.485C14.665 26.3385 14.6331 26.1812 14.633 26.0223C14.559 24.3531 14.5226 22.6797 14.5618 21.0105C14.5846 20.0544 14.6881 19.0992 14.7916 18.1448L14.7916 18.1444C14.8208 17.8747 14.85 17.605 14.8774 17.3354C14.9487 16.577 15.4348 16.0629 16.02 16.0588ZM19.3412 22.1831C19.3429 22.439 19.3446 22.695 19.3446 22.9507L19.1602 22.9716C19.2324 23.5846 19.3025 24.198 19.3727 24.8114L19.3728 24.8129C19.5415 26.2886 19.7103 27.7646 19.9075 29.2364C20.0193 30.0717 20.5682 30.5061 21.1954 30.4111C21.9441 30.2966 22.2738 29.777 22.1732 28.8509C22.1233 28.3963 22.0682 27.942 22.0131 27.4877C21.8953 26.5167 21.7775 25.5455 21.7109 24.571C21.6547 23.7564 21.6488 22.9391 21.6428 22.1214V22.1213C21.6392 21.6169 21.6355 21.1123 21.6201 20.6082C21.5949 19.8344 21.2052 19.4209 20.5515 19.4069C19.8601 19.3944 19.36 19.8888 19.3446 20.6515C19.3344 21.1591 19.3378 21.6698 19.3412 22.1806V22.1808V22.181V22.1811V22.1813V22.1814V22.1816V22.1817V22.1819V22.182V22.1822V22.1823V22.1825V22.1826V22.1828V22.1829V22.1831ZM137.489 16.5015C136.809 16.5114 136.152 16.2532 135.66 15.7828C135.168 15.3124 134.881 14.6675 134.861 13.9872C134.857 13.6485 134.921 13.3125 135.049 12.9987C135.177 12.6849 135.365 12.3997 135.604 12.1595C135.843 11.9193 136.127 11.729 136.441 11.5996C136.754 11.4703 137.089 11.4044 137.428 11.4059C138.886 11.3961 140.027 12.4912 140.044 13.9202C140.047 14.2577 139.983 14.5925 139.856 14.9052C139.729 15.2179 139.541 15.5023 139.304 15.7422C139.066 15.9821 138.784 16.1727 138.472 16.303C138.161 16.4334 137.827 16.5008 137.489 16.5015ZM65.8797 13.2399C65.8714 14.6074 67.0768 15.785 68.4876 15.785C69.1669 15.7772 69.8156 15.5015 70.2925 15.0178C70.7694 14.534 71.0359 13.8815 71.034 13.2022C71.0263 12.5336 70.7537 11.8954 70.2761 11.4275C69.7985 10.9596 69.1548 10.7001 68.4862 10.7061C67.8057 10.7005 67.1505 10.9633 66.6625 11.4376C66.1746 11.912 65.8933 12.5596 65.8797 13.2399ZM49.6067 31.0916L49.6066 31.0917L49.6066 31.0918L49.6065 31.0918L49.6065 31.0919L49.6064 31.0919L49.6064 31.0919C49.4406 31.3172 49.2926 31.5181 49.1012 31.6655C48.9125 31.8117 48.6762 31.8828 48.4381 31.865C48.1999 31.8472 47.9768 31.7418 47.8119 31.5691C47.7644 31.5236 47.7169 31.4782 47.6693 31.4328L47.5391 31.3085L47.539 31.3084C46.6598 30.4695 45.7771 29.6271 45.0113 28.693C44.5553 28.1367 44.2679 27.4255 43.9906 26.7392L43.9897 26.7371C43.9767 26.7048 43.9636 26.6725 43.9506 26.6403L43.9376 26.6082L43.9239 26.5744L43.9078 26.5349C43.6173 25.8198 43.8827 25.2498 44.5098 24.9761C45.137 24.7023 45.7237 24.8978 46.031 25.6354C46.7002 27.2544 47.7907 28.6647 49.1892 29.7197C49.3695 29.8597 49.4899 30.0802 49.6273 30.3318C49.6995 30.4642 49.7765 30.6052 49.8695 30.7478C49.7728 30.8659 49.6876 30.9817 49.6067 31.0916ZM35.9866 8.57984C36.0252 8.46653 36.0693 8.33739 36.1261 8.18624C36.049 8.102 35.9743 8.00355 35.8978 7.90278L35.8978 7.90274L35.8977 7.9027C35.7193 7.66762 35.5313 7.41992 35.281 7.31043C35.0349 7.18988 34.7519 7.16862 34.4906 7.25106C34.2292 7.33349 34.0096 7.51329 33.8772 7.75322C32.8911 9.39775 31.9277 11.0581 30.9872 12.7343C30.8573 12.9592 30.7944 13.3824 30.9201 13.5724C31.1427 13.9265 31.4697 14.2027 31.856 14.363C32.4105 14.5502 32.8086 14.1842 33.088 13.6967C33.5795 12.8468 34.0765 11.9989 34.573 11.1521C34.9781 10.461 35.3828 9.77062 35.7839 9.08021C35.8633 8.94116 35.9159 8.78695 35.9866 8.57984ZM49.7074 14.9469C49.6102 15.0926 49.53 15.2322 49.4558 15.3613C49.3165 15.6036 49.1985 15.809 49.0299 15.9484C47.8281 16.9109 46.8585 18.1317 46.193 19.5201C45.8493 20.2283 45.2613 20.4015 44.6327 20.09C44.0041 19.7785 43.7946 19.1793 44.0879 18.5046C44.859 16.7418 46.0044 15.2598 47.5884 14.1744C47.7768 14.0595 47.9866 13.9838 48.205 13.9519C48.4234 13.92 48.646 13.9325 48.8595 13.9887C49.0864 14.0595 49.2555 14.3081 49.4389 14.5776L49.4389 14.5777C49.5231 14.7014 49.6102 14.8295 49.7074 14.9469ZM42.1094 29.2466C42.0574 29.2161 42.013 29.19 41.98 29.168C40.7592 29.1778 40.2536 30.0745 40.7592 30.9447C41.6659 32.4922 42.8681 33.8463 44.2974 34.9299C44.8729 35.3727 45.5992 35.3336 46.0001 34.8754C46.468 34.3376 46.3772 33.7551 45.8185 33.1517C45.2933 32.5825 44.7797 32.0029 44.266 31.4232C43.7523 30.8435 43.2386 30.2638 42.7134 29.6946C42.5255 29.4907 42.278 29.3455 42.1094 29.2466ZM12.4708 29.0339C12.5169 29.8161 12.0894 30.372 11.4427 30.4181C10.8421 30.4628 10.275 30.0089 10.1856 29.2699C9.99281 27.6627 9.83823 26.0507 9.72182 24.4341C9.66595 23.6533 10.2359 23.0499 10.891 23.0471C11.5461 23.0443 12.0406 23.6268 12.095 24.402C12.1724 25.4996 12.2654 26.5964 12.3583 27.6931C12.3961 28.14 12.434 28.587 12.4708 29.0339ZM29.0394 19.6972C28.9795 20.0285 28.9197 20.3598 28.8584 20.6906L28.9673 20.706V21.4044C28.9771 22.033 29.2886 22.4087 29.9199 22.4828C30.5695 22.5596 31.0723 22.276 31.1771 21.6586C31.4201 20.2218 31.6245 18.7784 31.7903 17.3285C31.8267 17.0357 31.7471 16.7402 31.5686 16.5053C31.3901 16.2704 31.1267 16.1147 30.8349 16.0713C30.2915 15.9749 29.6965 16.3702 29.5568 17.0086C29.3639 17.9004 29.2016 18.799 29.0394 19.6972ZM42.9075 8.1653C42.8199 8.30028 42.7438 8.42834 42.6724 8.54879C42.5308 8.78734 42.4069 8.99606 42.2454 9.16962C41.6757 9.78175 41.0914 10.3799 40.5072 10.978L40.5059 10.9793L40.5053 10.9799C40.2636 11.2273 40.022 11.4747 39.7814 11.723C39.2967 12.2245 38.6542 12.3125 38.1569 11.9437C37.6219 11.5442 37.4711 10.8514 37.9627 10.2941C38.8936 9.23281 39.8841 8.22546 40.9296 7.27692C41.1671 7.06181 41.7886 7.08137 42.1309 7.22943C42.3655 7.33097 42.5168 7.57111 42.6756 7.82328C42.7484 7.93882 42.8228 8.05689 42.9075 8.1653ZM39.9291 34.3504C39.8148 34.2891 39.6924 34.2234 39.5623 34.1462C39.443 34.2384 39.3099 34.3197 39.1819 34.3979C38.9217 34.5569 38.6826 34.703 38.6236 34.9005C38.5063 35.3028 38.5398 35.9216 38.7856 36.2275C39.3877 36.9804 40.121 37.6397 40.8529 38.2753C41.508 38.848 42.1813 38.8033 42.6255 38.2445C43.018 37.7612 42.9104 37.0279 42.3699 36.5041C42.1867 36.3272 42.0048 36.1487 41.8228 35.9703C41.3929 35.5487 40.9629 35.1269 40.5163 34.7245C40.355 34.5791 40.1583 34.4735 39.9291 34.3504ZM28.9827 25.5781C28.9687 24.4201 29.2802 23.9704 29.9311 23.8796C30.6393 23.7804 31.11 24.1296 31.2749 24.9495C31.4285 25.7187 31.5486 26.494 31.6352 27.2752C31.7218 28.0589 31.3321 28.626 30.691 28.7517C30.0959 28.8676 29.5009 28.4178 29.3361 27.6496C29.1948 26.99 29.0945 26.3217 29.0222 25.8395L29.0222 25.8394L29.0222 25.8393L29.0222 25.8392L29.0221 25.839L29.0221 25.8389L29.022 25.838C29.0078 25.7438 28.9948 25.6566 28.9827 25.5781ZM9.89238 18.6935L9.89236 18.6937C9.86737 18.9304 9.84238 19.1669 9.81406 19.4027L9.84619 19.4055V19.6151C9.85737 20.3931 10.2443 20.8848 10.8882 20.942C11.4903 20.9965 12.0113 20.6054 12.1244 19.8874C12.252 19.0415 12.3308 18.189 12.3605 17.334C12.3898 16.6384 11.9303 16.1244 11.3296 16.0615C10.7835 16.0057 10.2261 16.4135 10.106 17.0658C10.0076 17.6026 9.94999 18.1481 9.89238 18.6935ZM40.0218 24.6869C40.5302 24.6646 40.9102 24.9118 41.0722 25.451C41.1047 25.5584 41.1375 25.6657 41.1703 25.7731L41.1714 25.7767C41.3345 26.3106 41.4979 26.8452 41.6198 27.3884C41.7594 27.9946 41.4521 28.4053 40.9004 28.6455C40.3109 28.9081 39.769 28.7391 39.5371 28.2027C39.2106 27.4394 38.9802 26.6385 38.8512 25.8184C38.7479 25.1688 39.3038 24.6953 40.0218 24.6869ZM232.14 11.0218H228.148L228.16 11.1629L228.167 11.2414L228.167 11.2473L228.168 11.2542C228.184 11.4352 228.197 11.5862 228.208 11.73L229.7 11.797V16.0573H230.651V11.7523H232.187C232.169 11.4632 232.155 11.2509 232.14 11.0218ZM44.5879 21.0566C45.4846 21.0566 46.0001 21.8947 45.8143 23.0485C45.69 23.8153 45.2556 24.2204 44.5795 24.1911C43.8811 24.1589 43.5305 23.7609 43.4942 22.9507C43.4753 22.6511 43.4753 22.3507 43.4942 22.0511C43.5458 21.3988 43.9314 21.0608 44.5879 21.0566ZM52.8363 22.5652C52.7791 23.5918 53.1492 24.138 53.9328 24.1841C54.0953 24.1955 54.2583 24.1737 54.412 24.12C54.5657 24.0663 54.7069 23.9818 54.8269 23.8718C54.9469 23.7617 55.0432 23.6283 55.11 23.4798C55.1767 23.3313 55.2125 23.1708 55.2151 23.0079C55.2514 22.1643 54.7095 21.4198 54.0111 21.3723C53.3615 21.329 52.8768 21.8206 52.8363 22.5652Z" fill="url(#paint0_linear_636_5762)"/>
<defs>
<linearGradient id="paint0_linear_636_5762" x1="176.695" y1="22.9018" x2="1.28282e-06" y2="22.9018" gradientUnits="userSpaceOnUse">
<stop stop-color="#411CB1"/>
<stop offset="0.332799" stop-color="#952FE7"/>
<stop offset="0.990444" stop-color="#9C31EB"/>
</linearGradient>
</defs>
</svg>
