<svg width="140" height="37" viewBox="0 0 140 37" fill="none" xmlns="http://www.w3.org/2000/svg">
<path d="M19.3749 36.7632C17.9587 36.7632 16.5117 36.7486 14.8189 36.7193L14.7443 36.7178L14.6668 36.7149C10.778 36.5584 7.43928 35.2416 5.01646 32.9066C3.76116 31.6966 2.77067 30.314 2.07279 28.7998C1.2959 27.1129 0.902344 25.3104 0.902344 23.4435C0.902344 20.4808 1.93233 17.5357 3.80359 15.1524C5.37491 13.1494 7.48464 11.6088 9.82553 10.7369C9.94258 10.2906 10.0845 9.84877 10.2469 9.4157C10.838 7.85023 11.7041 6.43399 12.8233 5.20356C14.0201 3.88681 15.4568 2.83926 17.0925 2.09017C18.7648 1.32353 20.601 0.894859 22.5468 0.812928C22.5834 0.811464 22.6931 0.808538 22.6931 0.808538C24.1679 0.777814 25.571 0.763184 26.9843 0.763184C28.3947 0.763184 29.8416 0.777814 31.5402 0.807075L31.6149 0.808538L31.688 0.811464C35.5812 0.968012 38.9199 2.28476 41.3427 4.6198C42.598 5.83121 43.5885 7.21234 44.2864 8.7266C45.0633 10.4135 45.4568 12.216 45.4568 14.0829C45.4568 17.0456 44.4269 19.9907 42.5556 22.374C40.9843 24.377 38.8745 25.9176 36.5337 26.7895C36.4166 27.2358 36.2747 27.6776 36.1123 28.1107C35.5212 29.6761 34.6551 31.0939 33.5358 32.3228C32.3391 33.6396 30.9023 34.6871 29.2666 35.4362C27.5929 36.2029 25.7568 36.6315 23.8109 36.7135C23.7626 36.7149 23.6661 36.7178 23.6661 36.7178C22.1942 36.7486 20.7897 36.7632 19.3749 36.7632Z" fill="white"/>
<path d="M56.1274 16.9944C56.1274 16.0375 57.0477 15.3382 58.5941 15.3382C60.2869 15.3382 61.7602 15.8897 62.938 17.2899L65.4778 14.6388C64.1523 12.7983 61.649 11.7303 58.4829 11.7303C53.9914 11.7303 51.709 14.3082 51.709 16.9958C51.709 23.3279 61.1706 21.7815 61.1706 24.9475C61.1706 26.0521 60.2869 26.7881 58.5561 26.7881C56.4581 26.7881 54.7638 26.0521 53.4017 24.5423L50.8984 27.4142C52.4083 29.1816 54.9482 30.396 58.2986 30.396C63.0843 30.396 65.6241 27.8561 65.6241 24.8744C65.6256 18.2833 56.1274 20.0873 56.1274 16.9944Z" fill="#17121F"/>
<path d="M74.8633 12.2452V7.68039H70.3717V12.2452H67.2422V16.2218H70.3351V23.8428C70.3351 28.1501 72.6175 30.3959 76.1888 30.3959C78.3615 30.3959 80.0177 29.5868 81.0111 28.6285L78.9862 25.2781C78.5444 25.7931 77.7338 26.1618 76.9248 26.1618C75.5992 26.1618 74.8999 25.3527 74.8999 23.6951V16.2218H83.0857V29.8809H87.5773V12.2452H83.0857H74.8633Z" fill="#17121F"/>
<path d="M85.2903 4.58768C83.855 4.58768 82.6758 5.80202 82.6758 7.23874C82.6758 8.71204 83.8536 9.85323 85.2903 9.85323C86.7636 9.85323 87.9414 8.71204 87.9414 7.23874C87.9414 5.80348 86.7621 4.58768 85.2903 4.58768Z" fill="#17121F"/>
<path d="M99.6278 26.1618C98.3023 26.1618 97.603 25.3527 97.603 23.6951V16.2218H102.352V12.2452H97.5664V7.68039H93.0748V12.2452H89.9453V16.2218H93.0382V23.8428C93.0382 28.1501 95.3206 30.3959 98.8919 30.3959C101.064 30.3959 102.72 29.5868 103.714 28.6285L101.689 25.2781C101.247 25.7931 100.436 26.1618 99.6278 26.1618Z" fill="#17121F"/>
<path d="M113.909 15.9629C115.64 15.9629 116.965 16.5159 118.07 17.5825L120.646 14.3799C119.1 12.7603 116.706 11.7303 113.688 11.7303C108.534 11.7303 104.484 15.9278 104.484 21.0821C104.484 26.1999 108.534 30.396 113.761 30.396C116.559 30.396 119.1 29.2914 120.499 27.7449L118.216 24.4311C117.112 25.5357 115.676 26.1619 113.872 26.1619C111 26.1619 108.976 23.8795 108.976 21.0441C108.976 18.2087 110.964 15.9629 113.909 15.9629Z" fill="#17121F"/>
<path d="M132.512 11.7303C130.34 11.7303 128.647 12.5408 127.542 13.9761V4.55106H123.051V29.8795H127.542V19.8663C127.542 17.4728 128.905 15.9644 131.15 15.9644C133.323 15.9644 134.722 17.4742 134.722 19.8663V29.8795H139.213V19.2021C139.212 14.6022 136.599 11.7303 132.512 11.7303Z" fill="#17121F"/>
<path d="M41.8936 9.82836C41.3332 8.61256 40.533 7.4977 39.5147 6.51599C37.5644 4.63596 34.8197 3.57378 31.5805 3.44211L31.5366 3.44064L31.4927 3.43918C29.8146 3.40992 28.3823 3.39529 26.9836 3.39529C25.5878 3.39529 24.2008 3.40992 22.7451 3.43918H22.7349C22.7085 3.43918 22.6807 3.44064 22.6544 3.44211C21.0509 3.50941 19.5483 3.85908 18.1877 4.48234C16.8768 5.0822 15.7268 5.92053 14.77 6.97247C13.876 7.95564 13.1825 9.09098 12.7085 10.3434C12.4086 11.1363 12.2067 11.9541 12.1028 12.7837L11.582 12.9285C9.36106 13.5474 7.33326 14.9139 5.87313 16.7749C4.36618 18.6988 3.53516 21.0661 3.53516 23.4421C3.53516 24.9271 3.84826 26.3579 4.4642 27.6966C5.02456 28.9124 5.82485 30.0273 6.84314 31.009C8.79339 32.889 11.5381 33.9512 14.7773 34.0829L14.8212 34.0844L14.8651 34.0858C16.5432 34.1151 17.9755 34.1297 19.3742 34.1297C20.77 34.1297 22.1569 34.1151 23.6127 34.0858H23.6229C23.6493 34.0858 23.6756 34.0844 23.7019 34.0829C25.3054 34.0156 26.8095 33.6659 28.1716 33.0427C29.4825 32.4428 30.6324 31.6045 31.5893 30.5525C32.4832 29.5694 33.1767 28.434 33.6507 27.1816C33.9507 26.3887 34.1526 25.5708 34.2564 24.7413L34.7773 24.5964C36.9982 23.9775 39.026 22.6111 40.4861 20.75C41.9945 18.8276 42.8256 16.4604 42.8256 14.0844C42.8241 12.5993 42.511 11.167 41.8936 9.82836ZM33.7414 20.8876C33.6127 19.9966 32.6105 17.4947 30.9821 16.3462C30.9675 16.336 30.9748 16.3126 30.9938 16.3126C31.1562 16.3141 31.3142 16.3141 31.4752 16.3111C33.1094 16.3111 33.9931 15.2255 33.9931 14.197C33.9931 13.7244 33.8307 13.1948 33.4474 12.7793C33.0772 12.3799 32.4291 12.0961 31.6917 12.0829C28.9792 12.0375 25.8439 12.0331 23.1328 12.0829C22.3954 12.0961 21.7473 12.3799 21.3771 12.7793C20.9938 13.1934 20.8314 13.7244 20.8314 14.197C20.8314 14.712 21.0948 15.2241 21.4254 15.5752C22.018 16.2058 23.1957 16.437 23.8834 16.5716C26.3588 17.0588 27.6288 17.7727 28.7027 18.911C29.7136 19.9439 30.4861 21.5269 30.4861 23.4421V23.4435C30.4861 26.6286 28.1467 30.0478 23.541 30.238C23.541 30.238 23.5395 30.238 23.5366 30.238C20.5154 30.2994 17.9477 30.2906 14.9353 30.238C12.7027 30.1473 10.8226 29.4962 9.51761 28.2394C8.21256 26.9827 7.38739 25.3587 7.38739 23.4435C7.38739 20.2599 9.69317 17.4567 12.6193 16.6403C12.748 17.5313 13.7502 20.0331 15.3786 21.1816C15.3932 21.1919 15.3859 21.2153 15.3669 21.2153C15.2045 21.2138 15.0465 21.2138 14.8855 21.2168C13.2513 21.2168 12.3676 22.3023 12.3676 23.3309C12.3676 23.8034 12.53 24.3331 12.9133 24.7486C13.2835 25.148 13.9316 25.4318 14.669 25.445C17.3815 25.4904 20.5169 25.4947 23.2279 25.445C23.9653 25.4318 24.6134 25.148 24.9836 24.7486C25.3669 24.3345 25.5293 23.8034 25.5293 23.3309C25.5293 22.8159 25.2659 22.3038 24.9353 21.9527C24.3428 21.3221 23.165 21.0909 22.4774 20.9563C20.0019 20.4691 18.7319 19.7552 17.658 18.6169C16.6471 17.584 15.8746 16.001 15.8746 14.0858V14.0844C15.8746 10.8993 18.214 7.48015 22.8197 7.28995C22.8197 7.28995 22.8212 7.28995 22.8241 7.28995C25.8453 7.2285 28.413 7.23728 31.4254 7.28995C33.658 7.38066 35.5381 8.03172 36.8431 9.28849C38.1482 10.5467 38.9733 12.1692 38.9733 14.0844C38.9733 17.268 36.669 20.0712 33.7414 20.8876Z" fill="#911FFF"/>
</svg>
