<svg width="119" height="38" viewBox="0 0 119 38" fill="none" xmlns="http://www.w3.org/2000/svg">
<path d="M118.65 29.4763H110.297V37.8293H118.65V29.4763Z" fill="#151515"/>
<path d="M13.6195 37.9019C6.21086 37.9019 1.27174 33.7618 0.835938 28.4595H9.18886C9.40676 30.4206 11.15 31.6554 13.4743 31.6554C15.6533 31.6554 16.8154 30.6385 16.8154 29.4037C16.8154 24.973 1.70755 28.1689 1.70755 18.0002C1.70755 13.279 5.70242 9.42935 12.9658 9.42935C20.084 9.42935 24.0788 13.4242 24.6599 18.8718H16.8154C16.5975 16.9833 15.1449 15.7485 12.7479 15.7485C10.7868 15.7485 9.6973 16.5475 9.6973 17.8549C9.6973 22.2856 24.6599 19.1623 24.8052 29.4764C24.8052 34.2702 20.5198 37.9019 13.6195 37.9019Z" fill="#151515"/>
<path d="M64.9708 0.785889H56.4727V37.5387H64.9708V0.785889Z" fill="#151515"/>
<path d="M99.5486 23.9562C99.4033 27.0068 96.8611 29.4037 93.7379 29.4037C90.542 29.4037 87.9271 26.7889 87.9271 23.593C87.9271 20.3971 90.542 17.7823 93.7379 17.7823C96.7159 17.7823 99.1854 20.0339 99.476 22.8667C99.476 23.0846 99.5486 23.3025 99.5486 23.5204C99.5486 23.7383 99.5486 23.8835 99.5486 23.9562ZM99.5486 0.785889V10.6641C97.8054 9.86515 95.8442 9.42935 93.8105 9.42935C85.966 9.42935 79.5742 15.8211 79.5742 23.6656C79.5742 31.5101 85.966 37.9019 93.8105 37.9019C101.582 37.9019 107.829 31.728 108.047 24.0288C108.047 23.8835 108.047 23.8109 108.047 23.6656V0.785889H99.5486Z" fill="#151515"/>
<path d="M77.2443 12.6252H68.7461V37.5387H77.2443V12.6252Z" fill="#151515"/>
<path d="M77.099 0.785889H68.7461V9.71988H77.099V0.785889Z" fill="#151515"/>
<path d="M39.9121 29.4764C36.7162 29.4764 34.1013 26.8615 34.1013 23.6656C34.1013 20.4697 36.7162 17.8549 39.9121 17.8549C43.108 17.8549 45.7228 20.4697 45.7228 23.6656C45.7228 26.8615 43.108 29.4764 39.9121 29.4764ZM39.9121 9.42935C32.0676 9.42935 25.6758 15.8212 25.6758 23.6656C25.6758 31.5101 32.0676 37.9019 39.9121 37.9019C47.7565 37.9019 54.1483 31.5101 54.1483 23.6656C54.1483 15.7485 47.8292 9.42935 39.9121 9.42935Z" fill="#151515"/>
</svg>
