<svg width="148" height="41" viewBox="0 0 148 41" fill="none" xmlns="http://www.w3.org/2000/svg">
<path d="M145.573 11.3382C145.9 11.3405 146.222 11.425 146.509 11.584C146.81 11.745 147.057 11.9897 147.221 12.2884C147.387 12.5798 147.475 12.9092 147.476 13.2445C147.475 13.5767 147.388 13.903 147.224 14.1917C147.062 14.4895 146.817 14.7345 146.52 14.8977C146.231 15.0616 145.904 15.1478 145.572 15.1478C145.239 15.1478 144.913 15.0616 144.624 14.8977C144.326 14.7342 144.081 14.4893 143.918 14.1917C143.752 13.9021 143.664 13.574 143.664 13.2401C143.664 12.9061 143.752 12.578 143.918 12.2884C144.082 11.9893 144.33 11.7445 144.631 11.584C144.919 11.4239 145.243 11.3394 145.573 11.3382ZM145.573 11.654C145.3 11.6562 145.033 11.7269 144.795 11.8595C144.544 11.994 144.337 12.1983 144.199 12.4478C144.06 12.6889 143.987 12.9624 143.987 13.2408C143.987 13.5192 144.06 13.7927 144.199 14.0339C144.338 14.2829 144.544 14.487 144.795 14.6221C145.035 14.7607 145.308 14.8336 145.585 14.8336C145.863 14.8336 146.135 14.7607 146.375 14.6221C146.627 14.4879 146.834 14.2835 146.971 14.0339C147.108 13.7933 147.18 13.5214 147.181 13.2445C147.18 12.965 147.106 12.6906 146.968 12.4478C146.83 12.1983 146.623 11.994 146.372 11.8595C146.128 11.7238 145.852 11.6531 145.573 11.654ZM144.737 14.3019V12.2467H145.44C145.616 12.2385 145.793 12.2581 145.963 12.3048C146.068 12.3399 146.159 12.4097 146.22 12.5029C146.282 12.5899 146.316 12.6939 146.317 12.8007C146.318 12.8735 146.304 12.9456 146.276 13.0129C146.249 13.0802 146.208 13.1412 146.156 13.1924C146.043 13.3068 145.891 13.3739 145.73 13.3801C145.795 13.4044 145.854 13.4413 145.905 13.4888C146.019 13.6127 146.119 13.7491 146.203 13.8954L146.453 14.296H146.048L145.866 13.9728C145.78 13.7944 145.663 13.6329 145.52 13.4962C145.442 13.4436 145.349 13.4184 145.255 13.4247H145.062V14.3019H144.737ZM145.068 13.1477H145.468C145.605 13.1614 145.743 13.1317 145.861 13.0628C145.895 13.0355 145.922 13.0007 145.94 12.9611C145.958 12.9216 145.967 12.8784 145.966 12.835C145.967 12.7768 145.949 12.7199 145.915 12.6726C145.88 12.6236 145.831 12.5862 145.775 12.5654C145.667 12.5354 145.555 12.5234 145.443 12.5297H145.068V13.1477Z" fill="#58595B"/>
<path d="M23.9806 12.3987C27.1391 12.3987 29.6996 9.83822 29.6996 6.67974C29.6996 3.52127 27.1391 0.960815 23.9806 0.960815C20.8222 0.960815 18.2617 3.52127 18.2617 6.67974C18.2617 9.83822 20.8222 12.3987 23.9806 12.3987Z" fill="#F16522"/>
<path d="M32.0783 37.559C35.2368 37.559 37.7972 34.9985 37.7972 31.8401C37.7972 28.6816 35.2368 26.1211 32.0783 26.1211C28.9198 26.1211 26.3594 28.6816 26.3594 31.8401C26.3594 34.9985 28.9198 37.559 32.0783 37.559Z" fill="#F16522"/>
<path d="M6.34783 32.2227C9.50631 32.2227 12.0668 29.6622 12.0668 26.5037C12.0668 23.3453 9.50631 20.7848 6.34783 20.7848C3.18936 20.7848 0.628906 23.3453 0.628906 26.5037C0.628906 29.6622 3.18936 32.2227 6.34783 32.2227Z" fill="#F16522"/>
<path d="M7.10793 18.6878C9.16094 18.6878 10.8252 17.0235 10.8252 14.9705C10.8252 12.9175 9.16094 11.2532 7.10793 11.2532C5.05492 11.2532 3.39062 12.9175 3.39062 14.9705C3.39062 17.0235 5.05492 18.6878 7.10793 18.6878Z" fill="#F6921E"/>
<path d="M33.7017 17.1645C35.7547 17.1645 37.419 15.5002 37.419 13.4471C37.419 11.3941 35.7547 9.72984 33.7017 9.72984C31.6487 9.72984 29.9844 11.3941 29.9844 13.4471C29.9844 15.5002 31.6487 17.1645 33.7017 17.1645Z" fill="#F6921E"/>
<path d="M21.5025 40.4183C23.5555 40.4183 25.2198 38.754 25.2198 36.701C25.2198 34.648 23.5555 32.9837 21.5025 32.9837C19.4494 32.9837 17.7852 34.648 17.7852 36.701C17.7852 38.754 19.4494 40.4183 21.5025 40.4183Z" fill="#F6921E"/>
<path d="M12.7337 37.1778C14.155 37.1778 15.3072 36.0256 15.3072 34.6043C15.3072 33.183 14.155 32.0308 12.7337 32.0308C11.3124 32.0308 10.1602 33.183 10.1602 34.6043C10.1602 36.0256 11.3124 37.1778 12.7337 37.1778Z" fill="#FFC10E"/>
<path d="M36.179 24.407C37.6003 24.407 38.7525 23.2548 38.7525 21.8335C38.7525 20.4122 37.6003 19.26 36.179 19.26C34.7577 19.26 33.6055 20.4122 33.6055 21.8335C33.6055 23.2548 34.7577 24.407 36.179 24.407Z" fill="#FFC10E"/>
<path d="M13.304 11.0643C14.7253 11.0643 15.8775 9.91211 15.8775 8.4908C15.8775 7.06948 14.7253 5.91728 13.304 5.91728C11.8827 5.91728 10.7305 7.06948 10.7305 8.4908C10.7305 9.91211 11.8827 11.0643 13.304 11.0643Z" fill="#FFC10E"/>
<path d="M56.5469 40.9608V12.0504H59.6372V15.7037C60.3699 14.3018 61.338 13.2255 62.5413 12.4749C63.7469 11.7237 65.1421 11.3331 66.5624 11.349C69.2998 11.349 71.4985 12.3051 73.1586 14.2174C74.8186 16.1296 75.6482 18.6649 75.6472 21.8232C75.6472 25.0381 74.835 27.5913 73.2107 29.4827C71.5864 31.3741 69.413 32.3208 66.6905 32.3228C65.1268 32.3228 63.7645 31.958 62.6039 31.2282C61.4432 30.4984 60.496 29.4112 59.7623 27.9666V40.9608H56.5469ZM59.6744 21.8173C59.6744 24.0016 60.2622 25.751 61.4377 27.0656C62.6133 28.3801 64.1706 29.0404 66.1097 29.0464C68.0021 29.0464 69.4914 28.4442 70.5776 27.2398C71.6638 26.0355 72.2064 24.364 72.2054 22.2253C72.2054 19.8315 71.6628 17.955 70.5776 16.5958C69.4924 15.2365 67.9817 14.5564 66.0457 14.5554C64.0679 14.5554 62.512 15.2008 61.3782 16.4915C60.2443 17.7823 59.6779 19.5595 59.6789 21.8232L59.6744 21.8173Z" fill="#58595B"/>
<path d="M96.5962 12.05V31.4899H93.4434V27.9633C92.6829 29.3791 91.7113 30.4593 90.5288 31.204C89.341 31.9496 87.9637 32.3379 86.5613 32.3225C83.8369 32.3225 81.6417 31.3628 79.9756 29.4436C78.3096 27.5244 77.4766 24.9842 77.4766 21.8229C77.4766 18.6219 78.2857 16.0756 79.9041 14.1842C81.5225 12.2928 83.6865 11.3496 86.396 11.3545C87.9846 11.3545 89.3637 11.7194 90.5333 12.4492C91.7029 13.1789 92.6461 14.2656 93.363 15.7093V12.05H96.5962ZM93.4434 21.9509C93.4434 19.7557 92.8591 17.9884 91.6905 16.649C90.5219 15.3096 88.9973 14.6404 87.1168 14.6414C85.1678 14.6414 83.6468 15.2575 82.5536 16.4897C81.4605 17.7218 80.9144 19.443 80.9154 21.6531C80.9154 24.0042 81.4649 25.8172 82.564 27.092C83.6631 28.3669 85.2224 29.0043 87.2419 29.0043C89.178 29.0043 90.6956 28.3847 91.7947 27.1456C92.8938 25.9065 93.4434 24.175 93.4434 21.9509Z" fill="#58595B"/>
<path d="M118.845 12.0501V31.1504C118.845 33.2603 118.707 34.762 118.431 35.6556C118.155 36.5454 117.688 37.3642 117.063 38.0549C116.173 39.0361 115.059 39.7872 113.816 40.2441C112.537 40.7217 111.068 40.9605 109.409 40.9605C106.53 40.9605 104.286 40.2878 102.677 38.9425C101.069 37.5971 100.229 35.6918 100.158 33.2265H103.808V33.4812C103.808 34.9407 104.299 36.0671 105.281 36.8604C106.263 37.6537 107.653 38.0509 109.451 38.0519C110.75 38.0519 111.86 37.8359 112.781 37.404C113.668 37.0011 114.404 36.3282 114.885 35.4813C115.188 34.9653 115.398 34.4003 115.506 33.8118C115.631 33.1744 115.693 32.261 115.692 31.0715V27.795C114.96 29.1851 113.999 30.2509 112.811 30.9926C111.61 31.739 110.221 32.1261 108.807 32.1081C106.082 32.1081 103.887 31.1589 102.222 29.2605C100.557 27.3621 99.7236 24.8408 99.7227 21.6963C99.7227 18.5192 100.531 16.0017 102.149 14.1441C103.766 12.2864 105.93 11.3551 108.641 11.3501C110.217 11.3501 111.6 11.715 112.79 12.4448C113.979 13.1745 114.92 14.2473 115.611 15.6632V12.0501H118.845ZM115.692 21.8229C115.692 19.6386 115.112 17.8822 113.951 16.5538C112.791 15.2253 111.263 14.5596 109.367 14.5566C107.417 14.5566 105.896 15.1727 104.804 16.4048C103.712 17.637 103.166 19.3581 103.166 21.5683C103.166 23.9204 103.715 25.7333 104.815 27.0072C105.914 28.281 107.473 28.9185 109.494 28.9195C111.43 28.9195 112.948 28.293 114.047 27.04C115.146 25.787 115.694 24.048 115.692 21.8229Z" fill="#58595B"/>
<path d="M141.181 12.05V31.4899H138.028V27.9633C137.269 29.3801 136.296 30.4603 135.111 31.204C133.923 31.9496 132.546 32.3379 131.143 32.3225C128.418 32.3225 126.223 31.3628 124.558 29.4436C122.893 27.5244 122.06 24.9842 122.059 21.8229C122.059 18.6219 122.867 16.0756 124.485 14.1842C126.102 12.2928 128.266 11.3496 130.977 11.3545C132.565 11.3545 133.945 11.7194 135.115 12.4492C136.286 13.1789 137.229 14.2656 137.945 15.7093V12.05H141.181ZM138.028 21.9509C138.028 19.7557 137.445 17.9884 136.277 16.649C135.109 15.3096 133.585 14.6404 131.703 14.6414C129.753 14.6414 128.232 15.2575 127.14 16.4897C126.048 17.7218 125.502 19.443 125.502 21.6531C125.502 24.0042 126.051 25.8172 127.151 27.092C128.25 28.3669 129.811 29.0043 131.834 29.0043C133.77 29.0043 135.288 28.3847 136.387 27.1456C137.486 25.9065 138.033 24.175 138.028 21.9509Z" fill="#58595B"/>
</svg>
