<svg width="222" height="31" viewBox="0 0 222 31" fill="none" xmlns="http://www.w3.org/2000/svg">
<path d="M146.064 27.5982C142.435 32.357 136.024 31.3214 132.861 28.6427C127.786 24.3268 127.73 15.701 132.812 11.391C136.854 7.95833 142.329 8.31627 146.014 12.2712C146.067 12.2096 146.158 12.1539 146.17 12.0864C146.539 9.48985 146.539 9.48692 149.13 9.48692C152.39 9.48692 152.39 9.48692 152.39 12.6967C152.39 18.2154 152.366 23.7342 152.413 29.25C152.413 30.2417 152.211 30.7023 151.146 30.5527C150.609 30.516 150.071 30.516 149.535 30.5527C146.625 30.5263 146.625 30.5263 146.064 27.5982ZM145.345 20.0081C145.345 17.0976 143.292 14.9969 140.428 14.9881C137.494 14.9881 135.297 17.1416 135.314 20.0139C135.314 22.81 137.506 24.9547 140.361 24.9782C143.215 25.0016 145.342 22.8863 145.345 20.0081Z" fill="#042530"/>
<path d="M93.9691 27.6422C89.7677 32.9791 81.4735 31.4182 78.4632 25.8613C76.207 21.6951 76.2657 17.4761 78.871 13.5006C81.1419 10.0385 84.5218 8.68013 88.6176 9.1701C90.6244 9.41068 91.5926 10.0063 93.9339 12.1979C93.9683 12.1654 93.9988 12.1289 94.0249 12.0894C94.4356 11.2679 93.8078 9.97987 94.6968 9.55444C95.4537 9.19357 96.5158 9.47229 97.4459 9.46936C100.324 9.46936 100.324 9.46936 100.324 12.3417C100.324 17.9602 100.289 23.5787 100.353 29.1972C100.353 30.3297 100.031 30.6877 98.9568 30.5351C98.4684 30.5012 97.9783 30.5012 97.4899 30.5351C94.5413 30.5234 94.5413 30.5234 93.9691 27.6422ZM88.3184 14.9852C85.4695 14.9676 83.2573 17.0771 83.1927 19.8761C83.1776 20.5474 83.2982 21.2148 83.5473 21.8383C83.7964 22.4619 84.1688 23.0288 84.6422 23.5049C85.1156 23.9811 85.6803 24.3567 86.3024 24.6094C86.9245 24.8621 87.5912 24.9865 88.2626 24.9753C89.5854 24.9827 90.857 24.4643 91.7976 23.5341C92.7382 22.604 93.2708 21.3383 93.2782 20.0154C93.2856 18.6926 92.7672 17.421 91.837 16.4804C90.9069 15.5398 89.6412 15.0072 88.3184 14.9999V14.9852Z" fill="#042530"/>
<path d="M60.5707 12.1071C62.0083 11.045 63.2787 10.1619 64.7574 9.63375C70.4962 7.57999 75.1964 10.3819 75.613 16.4141C75.9064 20.8356 75.6952 25.2952 75.7392 29.7372C75.7392 30.4384 75.4194 30.5381 74.859 30.5323C73.3451 30.5088 71.8312 30.4795 70.3173 30.5323C69.4694 30.5675 69.3755 30.1685 69.3813 29.476C69.4107 26.7915 69.4048 24.104 69.3813 21.4194C69.3947 20.4912 69.3477 19.5631 69.2405 18.641C68.9471 16.4845 67.9789 15.3139 66.374 15.0381C64.2939 14.6801 62.3633 15.5486 61.3658 17.2884C60.8073 18.3251 60.534 19.4915 60.5736 20.6683C60.5736 23.6023 60.5413 26.5362 60.5736 29.4702C60.5883 30.2829 60.3947 30.588 59.5321 30.5469C58.1179 30.4765 56.6979 30.4912 55.2837 30.5469C54.5444 30.5763 54.2744 30.3944 54.2774 29.5875C54.3106 23.1915 54.3106 16.7945 54.2774 10.3966C54.2774 9.55747 54.603 9.43718 55.3072 9.46652C56.427 9.56043 57.5526 9.56043 58.6724 9.46652C59.9751 9.29635 60.4328 9.82739 60.4328 11.0274C60.4582 11.3896 60.5042 11.7501 60.5707 12.1071Z" fill="#042530"/>
<path d="M214.321 21.8947C212.317 21.8947 210.313 21.8947 208.309 21.8947C207.916 21.8947 207.362 21.6219 207.136 22.1705C206.966 22.6047 207.247 23.0214 207.473 23.3998C208.758 25.5416 212.684 26.149 214.767 24.2478C215.9 23.2091 216.932 23.2062 218.194 23.4057C218.625 23.4732 219.074 23.5172 219.502 23.5583C221.615 23.749 221.656 23.8311 220.623 25.7705C218.71 29.3587 214.656 31.345 210.208 30.8521C205.854 30.3768 202.424 27.4604 201.177 23.1681C199.848 18.5911 201.356 13.6855 204.903 11.0479C208.292 8.52766 213.359 8.31054 216.903 10.6577C220.673 13.1516 221.8 16.9158 221.744 21.2199C221.744 22.0121 221.242 21.8977 220.761 21.8947H214.321ZM211.208 17.617C212.332 17.617 213.456 17.5936 214.576 17.617C215.339 17.6405 215.577 17.4175 215.19 16.6928C214.342 15.1114 212.883 14.6537 211.255 14.6391C209.627 14.6244 208.151 15.0938 207.28 16.6371C206.957 17.2092 206.936 17.6552 207.84 17.62C208.961 17.5848 210.084 17.62 211.208 17.617Z" fill="#042530"/>
<path d="M46.3467 28.0239C44.7213 29.2503 43.0049 30.2948 40.9541 30.7232C35.7199 31.8146 31.809 29.089 31.5009 23.755C31.2457 19.3248 31.407 14.874 31.3542 10.432C31.3542 9.67209 31.5948 9.4139 32.3723 9.44911C33.7865 9.51366 35.2065 9.50779 36.6207 9.44911C37.448 9.41684 37.6916 9.68676 37.6974 10.5259C37.7209 13.941 37.5008 17.362 37.8177 20.7712C38.0788 23.6025 39.0822 24.8025 41.1947 24.9902C43.6357 25.2044 45.5956 23.7785 46.2558 21.2847C46.6958 19.6035 46.4347 17.8813 46.4729 16.1796C46.5169 14.2755 46.511 12.3655 46.4729 10.4672C46.4729 9.73077 46.6577 9.41977 47.4616 9.45204C48.9286 9.51365 50.3956 9.50779 51.8625 9.45204C52.6635 9.4227 52.8513 9.74544 52.8483 10.476C52.8288 16.8231 52.8288 23.1702 52.8483 29.5173C52.8483 30.3975 52.5256 30.6234 51.7334 30.5501C51.1466 30.4943 50.5599 30.5501 49.9731 30.5325C49.0459 30.5325 48.0367 30.7261 47.2152 30.4239C46.288 30.0777 47.0244 28.778 46.3467 28.0239Z" fill="#05A6B5"/>
<path d="M190.301 23.4878C191.971 19.1162 193.623 14.8443 195.219 10.549C195.512 9.7422 195.882 9.40774 196.785 9.44588C198.678 9.52803 200.573 9.47228 202.677 9.47228L199.297 17.5406C197.616 21.5425 195.914 25.5357 194.274 29.5522C193.963 30.3092 193.57 30.5732 192.76 30.5439C191 30.4823 189.239 30.494 187.479 30.5439C186.795 30.5615 186.437 30.3649 186.162 29.7077C183.436 23.1327 180.66 16.5812 177.903 10.0209C177.862 9.83996 177.842 9.65486 177.844 9.46935C179.959 9.46935 182.042 9.49282 184.125 9.46935C184.906 9.46935 184.941 10.0561 185.117 10.5197C186.625 14.4336 188.104 18.3563 189.609 22.2555C189.756 22.6457 189.762 23.1327 190.301 23.4878Z" fill="#042530"/>
<path d="M163.732 22.9364C163.732 25.1369 163.703 27.3373 163.732 29.5319C163.747 30.2859 163.547 30.5705 162.755 30.5383C161.341 30.4825 159.921 30.462 158.507 30.5383C157.545 30.5969 157.389 30.2155 157.398 29.3647C157.439 25.1163 157.377 20.8562 157.442 16.6167C157.459 15.5546 157.122 15.226 156.127 15.3639C155.696 15.4226 155.247 15.3316 154.81 15.3815C154.065 15.4695 153.88 15.1233 153.93 14.4514C153.98 13.7796 153.93 13.0842 153.93 12.3977C153.95 11.4764 153.675 10.3439 154.115 9.69256C154.555 9.04123 155.743 9.49012 156.6 9.48425C157.257 9.48425 157.43 9.22606 157.418 8.60407C157.386 7.13709 157.445 5.67012 157.395 4.20314C157.368 3.45499 157.568 3.16453 158.366 3.1968C159.833 3.25841 161.3 3.25548 162.767 3.1968C163.562 3.16746 163.762 3.45499 163.732 4.20901C163.674 5.62318 163.75 7.04321 163.7 8.45737C163.674 9.20553 163.876 9.57814 164.671 9.45198C164.72 9.44466 164.769 9.44466 164.818 9.45198C166.065 9.54293 168.121 8.95614 168.394 9.6955C168.981 11.2417 168.641 13.1312 168.644 14.8827C168.644 15.4695 168.136 15.3492 167.763 15.3522C166.74 15.3522 165.71 15.402 164.689 15.3522C163.917 15.3052 163.679 15.5575 163.697 16.335C163.779 18.5413 163.735 20.7389 163.732 22.9364Z" fill="#042530"/>
<path d="M4.43378 22.8395C4.43378 20.7857 4.3839 18.732 4.45725 16.6782C4.49246 15.6895 4.26654 15.3139 3.19565 15.3257C0.945312 15.3785 0.945312 15.3139 0.945312 13.0254V12.1453C0.945312 9.58392 0.945312 9.54871 3.45971 9.48123C4.23133 9.4607 4.48365 9.24358 4.45138 8.47195C4.39564 7.10767 4.48952 5.73751 4.41617 4.36443C4.36923 3.48424 4.64209 3.08229 5.55161 3.19085C5.93889 3.23192 6.33204 3.19085 6.72519 3.23192C8.01906 3.33755 9.78823 2.64513 10.4806 3.52532C11.129 4.35269 10.6948 6.03971 10.7066 7.33945C10.7242 9.44309 10.7066 9.44309 12.775 9.44309C15.6532 9.44309 15.6532 9.44309 15.6503 12.3389C15.6503 15.3286 15.6503 15.4137 12.5931 15.3198C11.0792 15.2699 10.6215 15.6748 10.6684 17.2327C10.7887 21.2317 10.6684 25.2365 10.733 29.2384C10.733 30.2565 10.4718 30.6115 9.43323 30.5411C8.11713 30.4643 6.79783 30.4594 5.4812 30.5264C4.62448 30.5617 4.40444 30.2331 4.42204 29.4174C4.46605 27.2404 4.43671 25.0488 4.43378 22.8395Z" fill="#05A6B5"/>
<path d="M122.651 11.3737C124.258 9.90677 125.649 8.84468 127.591 9.097C129.284 9.31705 129.586 9.72487 129.325 11.3591C129.249 11.8432 129.185 12.3273 129.108 12.8084C128.985 13.5801 129.085 14.5131 128.677 15.0764C128.222 15.6984 127.389 14.9238 126.682 14.959C125.177 15.0324 124.223 15.8099 123.622 17.0979C122.923 18.5913 122.78 20.202 122.765 21.8215C122.745 24.2655 122.68 26.7124 122.791 29.1564C122.844 30.3799 122.416 30.6234 121.324 30.553C120.054 30.4824 118.781 30.4824 117.51 30.553C116.794 30.5823 116.475 30.4444 116.481 29.6112C116.516 23.2093 116.516 16.8064 116.481 10.4026C116.481 9.56937 116.774 9.43147 117.499 9.46961C118.475 9.53577 119.456 9.53577 120.433 9.46961C121.682 9.34345 122.786 9.36106 122.651 11.3737Z" fill="#042530"/>
<path d="M107.974 11.4881C109.511 10.1532 110.632 9.21431 112.187 9.07348C114.276 8.87984 115.03 9.60746 114.772 11.6055C114.719 11.9928 114.657 12.3771 114.596 12.7615C114.475 13.5331 114.572 14.4573 114.17 15.0353C113.665 15.7629 112.823 14.8944 112.084 14.959C111.449 14.9931 110.836 15.2063 110.317 15.5739C109.798 15.9415 109.393 16.4484 109.15 17.0362C108.55 18.3764 108.257 19.8341 108.293 21.3022C108.279 23.9427 108.217 26.5833 108.308 29.2033C108.349 30.3446 107.979 30.6204 106.909 30.5441C105.593 30.4737 104.275 30.4737 102.96 30.5441C102.226 30.5705 101.938 30.3828 101.941 29.573C101.977 23.1828 101.977 16.7937 101.941 10.4055C101.941 9.57519 102.252 9.42849 102.965 9.4637C103.986 9.51064 105.019 9.48424 106.037 9.4637C107.155 9.4549 108.461 9.1615 107.974 11.4881Z" fill="#042530"/>
<path d="M23.1749 11.3206C23.9759 10.7045 24.4952 10.2761 25.0409 9.8947C25.6834 9.44358 26.4251 9.15375 27.2032 9.04972C29.3245 8.75633 30.2017 9.65411 29.8731 11.6903C29.8027 12.1245 29.7382 12.5705 29.6707 12.9929C29.5562 13.7118 29.6501 14.5831 29.2687 15.1113C28.8228 15.7303 28.0629 14.9558 27.3969 14.9734C25.8829 15.0174 24.7358 15.7861 24.0903 17.3997C23.5035 18.8286 23.392 20.3337 23.3862 21.8535C23.3862 24.3884 23.3539 26.9263 23.4067 29.4641C23.4243 30.3032 23.172 30.5732 22.3329 30.5409C20.9187 30.4851 19.5016 30.5027 18.0874 30.5585C17.3422 30.5878 17.0635 30.3795 17.0664 29.5844C17.0958 23.1943 17.0958 16.8032 17.0664 10.4111C17.0664 9.59837 17.3804 9.4194 18.1021 9.45461C19.0762 9.50155 20.0532 9.45461 21.0361 9.45461C22.1774 9.46928 23.571 9.09666 23.1749 11.3206Z" fill="#05A6B5"/>
<path d="M175.642 30.4999H171.452C171.339 30.4253 171.206 30.3869 171.071 30.3901C170.936 30.3932 170.805 30.4377 170.695 30.5176C169.941 30.5909 169.971 30.0863 169.974 29.5669C169.974 23.2179 169.974 16.8688 169.974 10.5198C169.974 9.75693 170.173 9.48407 170.962 9.51634C172.429 9.57209 173.896 9.53981 175.363 9.51634C175.891 9.51634 176.387 9.49874 176.243 10.2616C176.217 10.2792 176.164 10.3026 176.167 10.3114C176.189 10.3714 176.215 10.4301 176.243 10.4875V12.6117C176.178 12.6785 176.142 12.7679 176.142 12.861C176.142 12.9542 176.178 13.0436 176.243 13.1104C176.243 18.6928 176.243 24.278 176.243 29.8662L176.193 29.9043H176.255C176.255 30.2828 176.097 30.4911 175.704 30.4911V30.4325L175.642 30.4999Z" fill="#042530"/>
<path d="M176.101 4.06223C176.086 4.65828 175.894 5.23636 175.551 5.72371C175.207 6.21107 174.727 6.5859 174.171 6.80105C173.615 7.01619 173.008 7.06202 172.426 6.93278C171.843 6.80353 171.313 6.50497 170.9 6.0747C170.487 5.64442 170.211 5.10165 170.106 4.51471C170.001 3.92777 170.072 3.32289 170.31 2.77621C170.548 2.22953 170.942 1.76549 171.444 1.4425C171.945 1.1195 172.53 0.951987 173.126 0.961042C173.528 0.961915 173.925 1.04368 174.293 1.20144C174.662 1.35921 174.995 1.58973 175.273 1.87923C175.551 2.16873 175.767 2.51126 175.91 2.88635C176.052 3.26143 176.117 3.66136 176.101 4.06223Z" fill="#042530"/>
<path d="M170.695 30.5147C170.805 30.4348 170.936 30.3903 171.071 30.3872C171.206 30.384 171.339 30.4224 171.452 30.4971L170.695 30.5147Z" fill="#05A6B5"/>
<path d="M176.222 13.1194C176.157 13.0526 176.121 12.9632 176.121 12.87C176.121 12.7769 176.157 12.6875 176.222 12.6207C176.287 12.6875 176.323 12.7769 176.323 12.87C176.323 12.9632 176.287 13.0526 176.222 13.1194Z" fill="#05A6B5"/>
<path d="M176.221 10.4961C176.192 10.4388 176.167 10.38 176.145 10.3201C176.145 10.3201 176.194 10.2878 176.221 10.2702C176.249 10.3227 176.273 10.3777 176.291 10.4345C176.297 10.4492 176.247 10.4756 176.221 10.4961Z" fill="#05A6B5"/>
<path d="M176.237 29.925L176.176 29.9133L176.226 29.8751L176.29 29.8839L176.237 29.925Z" fill="#05A6B5"/>
<path d="M175.645 30.4998L175.677 30.4529L175.689 30.5115L175.65 30.5585L175.645 30.4998Z" fill="#05A6B5"/>
</svg>
