<svg width="107" height="36" viewBox="0 0 107 36" fill="none" xmlns="http://www.w3.org/2000/svg">
<path d="M106.895 36.0046H0.800781V30.7055C1.16411 30.6819 1.53651 30.6401 1.91437 30.6401C36.538 30.6401 71.1622 30.6329 105.787 30.6183C106.648 30.6183 106.957 30.8363 106.913 31.7265C106.844 33.1307 106.895 34.5459 106.895 36.0046Z" fill="#DC1983"/>
<path d="M30.4646 13.5893C30.5736 12.285 30.6463 11.0842 29.4782 10.3776C28.1956 9.6073 26.7914 9.61639 25.4816 10.2976C25.0075 10.5483 24.7459 11.2059 24.3735 11.6546C24.2063 11.8617 24.0101 12.1996 23.8285 12.2087C22.2026 12.2523 20.5749 12.2341 18.9599 12.2341C18.7074 10.0923 20.0027 7.72347 22.1753 6.72978C25.676 5.12933 29.2729 5.04758 32.7772 6.72978C35.0098 7.78705 35.9181 9.79623 36.0925 12.176C36.1125 12.4467 36.1161 12.721 36.1161 12.9917C36.1161 16.9247 36.1161 20.8558 36.1161 24.8706H31.2512C31.1277 24.3692 30.9914 23.8278 30.8352 23.1938C29.0004 24.5345 27.0421 25.3102 24.8658 25.2993C23.7828 25.3036 22.7054 25.1437 21.6703 24.8251C19.3996 24.0858 18.0916 22.1002 18.0371 19.6042C17.9826 17.2153 19.0835 15.3278 21.3797 14.5176C22.8911 13.9872 24.5424 13.7801 26.1483 13.6093C27.5416 13.4749 28.9713 13.5893 30.4646 13.5893ZM30.4137 17.4878C28.6661 17.4878 26.9167 17.3843 25.1873 17.5241C23.9865 17.6204 23.4397 18.4325 23.5523 19.4152C23.6559 20.2654 24.4407 20.8213 25.5706 20.8576C26.9081 20.8861 28.2264 20.5353 29.3728 19.8458C30.6317 19.13 30.6953 18.9774 30.4137 17.4878Z" fill="#29054B"/>
<path d="M69.9556 18.4106H74.984C75.945 20.785 78.4229 21.8259 80.8081 20.7904C81.2296 20.6088 81.7273 20.0438 81.7437 19.6387C81.76 19.2336 81.2931 18.6359 80.8862 18.447C80.0469 18.0582 79.1096 17.8766 78.2067 17.6259C76.7806 17.2298 75.3255 16.921 73.9267 16.4432C72.0992 15.8183 70.7731 14.6484 70.4951 12.6065C70.1827 10.3012 70.8803 8.33748 72.8931 7.13487C74.4587 6.24514 76.2019 5.71302 77.9975 5.57671C79.7932 5.44039 81.5967 5.70327 83.2787 6.34646C85.7493 7.30564 87.0464 9.15859 87.3062 11.9217C85.6185 11.9217 83.969 11.938 82.3232 11.8962C82.1415 11.8962 81.938 11.5674 81.8181 11.3513C80.948 9.79441 77.8743 9.26577 76.5499 10.4575C75.8233 11.1151 75.9468 12.0252 76.9441 12.3577C78.2576 12.7937 79.6364 13.0262 80.9716 13.4022C82.1402 13.6991 83.2888 14.0699 84.4105 14.5122C88.7449 16.3524 87.9256 21.597 85.5004 23.4263C84.9125 23.9008 84.2559 24.283 83.553 24.5599C80.1904 25.7425 76.8188 25.6717 73.5416 24.2729C71.1382 23.2574 69.8466 21.0393 69.9556 18.4106Z" fill="#29054B"/>
<path d="M62.3933 20.3018H66.8149V24.8924H52.1875V20.3145H56.7291V4.50986H53.0722V0.00463867H62.3933V20.3018Z" fill="#29054B"/>
<path d="M92.1797 5.96498C93.5967 5.96498 94.9282 5.9886 96.2562 5.95227C96.7848 5.93773 97.0228 6.0976 97.0846 6.6335C97.1409 7.13307 97.2917 7.61993 97.4479 8.32659C100.147 5.47813 103.519 5.94863 106.869 5.9995V11.1224C105.405 11.1224 103.933 11.077 102.467 11.1351C101.034 11.1914 99.6424 11.4584 98.4707 12.4067C98.2172 12.5947 98.0138 12.8422 97.8786 13.1273C97.7433 13.4124 97.6802 13.7264 97.6949 14.0417C97.7295 17.3116 97.7113 20.5815 97.7113 23.8514V24.8924H92.1797V5.96498Z" fill="#29054B"/>
<path d="M15.4738 11.1278C13.9315 11.1278 12.451 11.0879 10.9759 11.1405C9.63338 11.1878 8.33086 11.453 7.21364 12.2868C6.60143 12.7428 6.27081 13.2733 6.28534 14.1034C6.33621 17.3734 6.30533 20.6433 6.30351 23.9132V24.8924H0.777344V5.9668C2.23064 5.9668 3.66759 5.94863 5.10817 5.9886C5.27893 5.9886 5.52963 6.27562 5.59139 6.47545C5.75671 7.02044 5.84209 7.58541 5.98923 8.29207C7.34807 7.10582 8.7505 6.18297 10.4581 6.07216C12.1058 5.96498 13.7644 6.04854 15.4738 6.04854V11.1278Z" fill="#29054B"/>
<path d="M41.5547 6.01221H47.03V24.8924H41.5547V6.01221Z" fill="#29054B"/>
</svg>
