<svg width="146" height="37" viewBox="0 0 146 37" fill="none" xmlns="http://www.w3.org/2000/svg">
<path d="M77.1094 1.39055C77.1293 1.3569 77.1522 1.3569 77.1797 1.39055L77.1384 1.4242L77.1094 1.39055Z" fill="#0124DD"/>
<path d="M41.9622 13.145C42.4043 11.8081 42.8235 10.5445 43.2334 9.29172C43.2839 9.13875 43.3864 9.10357 43.5195 9.0791C45.733 8.66608 47.9556 8.31424 50.2165 8.42591C51.812 8.50087 53.3463 8.82669 54.72 9.68333C56.5831 10.8428 57.4352 12.5898 57.556 14.7313C57.6264 15.9628 57.426 17.1789 57.2501 18.3843C56.8845 20.841 56.5082 23.2946 56.1548 25.7513C56.1452 25.8543 56.108 25.9529 56.0472 26.0366C55.9863 26.1203 55.9041 26.1861 55.8091 26.2271C54.3681 27.0179 52.8048 27.4508 51.1986 27.7139C49.2108 28.0583 47.1834 28.1099 45.1807 27.8669C43.5118 27.6573 41.9561 27.1388 40.7446 25.9119C40.2188 25.3736 39.8107 24.7318 39.5461 24.0274C39.2814 23.323 39.1661 22.5712 39.2074 21.8198C39.2487 21.0685 39.4457 20.3339 39.7859 19.6627C40.1261 18.9915 40.602 18.3983 41.1836 17.9208C42.4257 16.8989 43.8943 16.3911 45.4408 16.0622C47.7828 15.5666 50.1461 15.6339 52.5111 15.8144C52.8063 15.8358 52.8705 15.7455 52.8843 15.4824C52.9899 13.6376 51.8824 12.3129 49.9381 11.9565C48.5889 11.7087 47.2642 11.9228 45.9395 12.14C44.5878 12.3624 43.2573 12.6986 41.9622 13.145ZM50.2349 18.7101C49.393 18.7046 48.552 18.7665 47.72 18.8952C46.8206 19.0482 45.9471 19.2853 45.222 19.8818C44.4021 20.5564 44.1834 21.462 44.3455 22.4594C44.4985 23.3696 45.1348 23.8683 45.9593 24.162C46.3373 24.2949 46.7304 24.3797 47.1296 24.4144C48.6042 24.5566 50.036 24.2996 51.4586 23.9478C51.5551 23.9351 51.6436 23.8874 51.7073 23.8138C51.771 23.7403 51.8055 23.6459 51.8043 23.5485C51.9986 22.103 52.1914 20.6559 52.4055 19.2134C52.4422 18.964 52.3596 18.9166 52.1516 18.8768C51.5179 18.7722 50.8771 18.7165 50.2349 18.7101Z" fill="#114185"/>
<path d="M110.256 23.2197C110.011 23.9632 109.797 24.6286 109.571 25.294C109.39 25.8401 109.197 26.3816 109.026 26.9323C109.01 27.0166 108.969 27.0941 108.908 27.1551C108.848 27.2161 108.771 27.2578 108.687 27.275C106.346 27.8991 103.975 28.2372 101.558 27.9328C98.8047 27.5855 96.5285 26.4031 95.1334 23.8775C94.2752 22.3142 94.003 20.6116 94.1192 18.857C94.341 15.5192 95.7315 12.752 98.3167 10.6089C99.8877 9.30558 101.72 8.63557 103.736 8.43671C105.127 8.30057 106.51 8.32657 107.867 8.70441C110.629 9.46926 112.471 11.6185 112.824 14.4637C113.028 16.099 112.824 17.7052 112.56 19.3129C112.528 19.5133 112.427 19.5194 112.274 19.5194C111.532 19.5194 110.788 19.5194 110.046 19.5194C106.477 19.5194 102.908 19.5194 99.3386 19.5194C99.051 19.5194 98.9668 19.5898 98.9622 19.885C98.9225 22.2897 100.25 23.8775 102.614 24.2829C104.361 24.5888 106.06 24.3242 107.757 23.954C108.605 23.7643 109.44 23.519 110.256 23.2197ZM104.015 16.3973H107.441C108.488 16.3973 108.488 16.3973 108.523 15.351C108.595 13.2323 107.299 11.851 105.193 11.7332C102.673 11.591 100.298 13.4159 99.6858 16.1235C99.6353 16.3483 99.6858 16.4034 99.9153 16.4019C101.278 16.3912 102.638 16.3973 104.015 16.3973Z" fill="#114185"/>
<path d="M119.049 27.9941C116.803 27.9791 114.573 27.6074 112.444 26.8927C112.231 26.8193 112.175 26.7581 112.251 26.5271C112.601 25.4675 112.936 24.4028 113.256 23.3331C113.336 23.07 113.429 23.0914 113.64 23.1923C115.686 24.1928 117.996 24.5185 120.238 24.1224C120.764 24.0423 121.263 23.8377 121.694 23.5258C121.893 23.3876 122.059 23.2064 122.179 22.9956C122.3 22.7848 122.371 22.5498 122.388 22.3078C122.406 22.0658 122.368 21.823 122.28 21.5972C122.191 21.3715 122.052 21.1685 121.875 21.0033C121.486 20.6434 121.049 20.3387 120.577 20.0978C119.407 19.443 118.217 18.8296 117.105 18.0709C114.117 16.0257 114.481 11.7685 117.423 9.90076C118.726 9.07319 120.154 8.65864 121.67 8.50108C124.197 8.2395 126.64 8.67241 129.047 9.39749C129.268 9.46326 129.324 9.52292 129.24 9.75697C128.878 10.762 128.527 11.7731 128.198 12.7904C128.111 13.0581 128.007 13.0382 127.801 12.9433C126.295 12.2327 124.646 11.8769 122.981 11.9031C122.173 11.923 121.385 12.0561 120.701 12.5334C120.411 12.7187 120.189 12.9944 120.07 13.318C119.951 13.6416 119.942 13.9953 120.043 14.3247C120.175 14.6941 120.424 15.0104 120.752 15.2257C121.46 15.758 122.271 16.1175 123.046 16.5427C123.995 17.0382 124.901 17.6123 125.754 18.259C128.275 20.2599 128.019 24.0719 125.601 26.0085C124.041 27.2552 122.214 27.7539 120.271 27.9314C119.783 27.9742 119.299 27.9818 119.049 27.9941Z" fill="#114185"/>
<path d="M135.55 27.9939C133.334 27.9725 131.135 27.6045 129.032 26.9033C128.789 26.8222 128.726 26.7503 128.817 26.4933C129.162 25.4562 129.49 24.4129 129.808 23.3666C129.884 23.1127 129.961 23.0759 130.209 23.1953C132.245 24.1864 134.542 24.5128 136.774 24.1284C137.252 24.0533 137.711 23.8826 138.122 23.6266C139.136 22.9796 139.26 21.791 138.403 20.9588C138.044 20.636 137.644 20.3609 137.215 20.1404C135.991 19.446 134.72 18.8249 133.568 17.9989C130.911 16.0791 131.241 12.6051 132.866 10.8613C133.961 9.688 135.344 9.05776 136.878 8.7197C138.914 8.26079 140.949 8.37093 142.982 8.74723C143.838 8.9002 144.677 9.13272 145.515 9.35911C145.793 9.43713 145.894 9.51973 145.776 9.83791C145.423 10.797 145.102 11.7669 144.79 12.7443C144.703 13.012 144.615 13.0503 144.352 12.9356C142.866 12.2378 141.243 11.8829 139.601 11.8969C138.836 11.9107 138.097 12.0239 137.43 12.4246C136.799 12.8025 136.479 13.3516 136.574 14.1073C136.633 14.5876 136.922 14.9226 137.287 15.198C138.051 15.7777 138.931 16.1602 139.763 16.6191C140.712 17.1438 141.648 17.6899 142.475 18.3951C144.794 20.3837 144.533 24.0703 142.206 25.9671C140.956 26.9874 139.506 27.5167 137.941 27.7905C137.151 27.9189 136.351 27.9869 135.55 27.9939Z" fill="#114185"/>
<path d="M74.9463 23.4905C74.8683 23.9494 74.671 24.3609 74.5257 24.7938C74.2488 25.6183 73.9536 26.4352 73.6797 27.2612C73.6596 27.3438 73.6138 27.4179 73.549 27.4729C73.4841 27.5279 73.4035 27.5609 73.3187 27.5672C71.4831 27.8731 69.6276 28.0674 67.7628 27.9266C64.9803 27.7171 62.594 26.7029 60.9541 24.3318C59.7977 22.6614 59.3893 20.7631 59.4918 18.7637C59.6631 15.429 61.0765 12.7 63.6816 10.6104C65.1746 9.41419 66.9307 8.82679 68.8015 8.58204C71.1173 8.25381 73.4755 8.39479 75.7356 8.99659C76.167 9.11437 76.5831 9.27958 77.0068 9.41726C77.1598 9.46621 77.1996 9.53198 77.143 9.69872C76.782 10.7542 76.424 11.8128 76.086 12.8759C76.011 13.11 75.9055 13.0625 75.754 13.0029C74.6739 12.56 73.5301 12.292 72.3657 12.209C69.8463 12.0667 67.6558 12.7597 66.0832 14.8569C64.6101 16.8225 64.3822 20.0869 65.9593 22.0602C66.9399 23.284 68.234 23.9326 69.7698 24.1116C71.4265 24.3043 73.0281 23.9846 74.6098 23.5303C74.7108 23.5012 74.8132 23.4813 74.9157 23.4569L74.9463 23.4905Z" fill="#114185"/>
<path d="M92.386 23.4692C92.0342 24.4819 91.6304 25.4838 91.3413 26.5179C91.1317 27.2721 90.7783 27.63 89.9553 27.7126C87.6608 27.9421 85.3662 28.1991 83.0717 27.5918C79.4631 26.6327 77.1059 23.7538 76.9101 20.0121C76.6959 15.9462 78.2531 12.6971 81.5282 10.2939C82.905 9.28584 84.5111 8.80857 86.1877 8.58982C88.5029 8.26268 90.8603 8.40312 93.1203 9.00284C93.5394 9.11757 93.9418 9.2889 94.3594 9.40975C94.5781 9.47399 94.5842 9.57342 94.5123 9.76463C94.162 10.788 93.8148 11.8114 93.489 12.8424C93.4109 13.0887 93.3176 13.0795 93.1172 13.003C91.5141 12.3911 89.8743 12.0592 88.1442 12.2382C85.2056 12.5533 82.9692 14.496 82.4047 17.355C81.9978 19.4186 82.3711 21.3062 84.0155 22.7671C85.3265 23.9297 86.922 24.254 88.6215 24.1545C89.8204 24.0756 91.0051 23.8495 92.1489 23.4815C92.2178 23.4692 92.279 23.4126 92.386 23.4692Z" fill="#114185"/>
<path d="M34.1145 19.2591L15.059 0.203613V3.12841L31.1897 19.2591L31.1959 19.2652L17.2236 33.2375L17.2067 33.2207L3.24363 19.2591L3.23139 19.2469L10.086 12.3923H7.11071L0.25 19.253L0.256119 19.2591L17.2006 36.2036L17.2067 36.1975L34.1298 19.2744L34.1145 19.2591Z" fill="#FE6309"/>
<path d="M15.0537 5.14142V8.06621L26.2527 19.2652L17.2305 28.2873L8.20066 19.259L8.18842 19.2468L15.043 12.3922H12.0677L5.20703 19.2529L5.21315 19.259L15.736 29.7819L17.2075 31.2534L18.7036 29.7589L29.1866 19.2743L15.0537 5.14142Z" fill="#FE6309"/>
<path d="M24.2481 19.259L18.6601 13.6649L17.1732 12.1781L15.7108 13.6405L10.0938 19.2529L15.7139 24.873L17.1854 26.3446L18.6784 24.8501L24.2634 19.2743L24.2481 19.259ZM17.2115 23.3892L13.0813 19.259L13.069 19.2468L17.1885 15.1273L21.3187 19.2575L17.2115 23.3892Z" fill="#FE6309"/>
</svg>
