<svg width="163" height="30" viewBox="0 0 163 30" fill="none" xmlns="http://www.w3.org/2000/svg">
<path d="M142.762 7.98857C143.952 7.98857 145.142 7.98857 146.333 7.98857C147.063 7.98857 147.285 8.23101 147.283 8.94665C147.282 9.66229 147.064 9.89304 146.32 9.89596C144.595 9.89596 142.87 9.91203 141.145 9.89596C140.599 9.89596 140.343 10.042 140.371 10.6379C140.41 11.4835 140.41 12.3321 140.371 13.1762C140.342 13.7969 140.599 13.9693 141.186 13.9561C142.546 13.924 143.907 13.943 145.268 13.9474C146.103 13.9474 146.261 14.108 146.261 14.9113C146.261 15.678 146.083 15.8518 145.239 15.8562C143.878 15.8562 142.516 15.8796 141.149 15.8474C140.542 15.8328 140.332 16.0475 140.359 16.6492C140.402 17.5664 140.393 18.488 140.359 19.4052C140.34 19.947 140.558 20.1354 141.09 20.1354C142.79 20.1194 144.491 20.1252 146.191 20.1354C147.079 20.1354 147.32 20.4144 147.254 21.2761C147.219 21.7376 146.994 22.0063 146.524 22.0063C144.021 22.0131 141.518 22.0131 139.017 22.0063C138.452 22.0063 138.198 21.6981 138.199 21.13C138.206 17.0669 138.206 13.0048 138.199 8.94373C138.199 8.26606 138.515 7.99003 139.179 8.00025C140.381 8.00025 141.577 7.98857 142.762 7.98857Z" fill="#083454"/>
<path d="M67.872 12.9849C67.872 11.653 67.872 10.3225 67.872 8.99195C67.872 8.12442 68.0618 7.95647 68.9732 7.96961C69.813 7.96961 69.9575 8.12588 69.959 9.02262C69.959 11.393 69.9502 13.7648 69.959 16.1352C69.9678 17.8498 70.7404 19.0883 72.0913 19.6111C74.3799 20.4991 76.74 18.9028 76.7649 16.4287C76.7838 13.9853 76.7649 11.542 76.7649 9.09857C76.7649 8.19891 76.9971 7.97691 77.8807 7.99298C78.6241 8.00612 78.8461 8.23542 78.8519 9.01532C78.8694 11.0717 78.8519 13.128 78.9089 15.1815C78.9351 16.2038 78.979 17.2057 78.6912 18.1974C77.9303 20.816 75.3555 22.4328 72.547 22.0633C69.9459 21.7157 67.8924 19.3964 67.8734 16.7603C67.8603 15.5013 67.872 14.2424 67.872 12.9849Z" fill="#083454"/>
<path d="M84.9409 14.9885C84.9409 12.9804 84.9409 10.9722 84.9409 8.96258C84.9409 8.16808 85.1278 7.99136 85.9398 7.9899C88.299 7.9899 90.6577 7.9899 93.0159 7.9899C93.7578 7.9899 93.9988 8.22796 94.0075 8.91877C94.0178 9.64901 93.7724 9.89583 92.9852 9.89729C91.2837 9.89729 89.5808 9.91336 87.8735 9.89729C87.2981 9.89729 87.022 10.0623 87.0513 10.686C87.0907 11.5316 87.0761 12.3801 87.0513 13.2272C87.0381 13.7559 87.2543 13.9574 87.7815 13.9574C89.1909 13.937 90.6017 13.9458 92.0169 13.9574C92.7647 13.9574 92.9896 14.1838 92.9925 14.8921C92.9954 15.6005 92.7471 15.859 92.0374 15.8634C90.6265 15.8751 89.2157 15.8897 87.8019 15.8634C87.2178 15.8502 87.0264 16.0708 87.0425 16.6272C87.0702 17.5459 87.0673 18.4674 87.0425 19.3861C87.0279 19.9367 87.2178 20.1616 87.8049 20.1514C89.5063 20.1207 91.2078 20.1353 92.9166 20.1426C93.7432 20.1426 93.9637 20.3529 93.9681 21.0861C93.9725 21.8192 93.7505 22.0149 92.9224 22.0149C90.6129 22.0149 88.3029 22.0149 85.9924 22.0149C85.0942 22.0149 84.9233 21.8455 84.9219 20.9634C84.9336 18.9654 84.9399 16.9738 84.9409 14.9885Z" fill="#083454"/>
<path d="M127.643 18.3724C128.104 16.2518 127.337 14.5401 125.953 12.9686C125.047 11.9361 124.311 10.7589 123.48 9.66063C123.092 9.148 123.042 8.73176 123.626 8.32428C124.297 7.86131 124.649 7.85839 125.109 8.45865C126.188 9.88554 127.263 11.3168 128.311 12.7656C128.62 13.1892 128.777 13.1658 129.075 12.7496C130.087 11.3343 131.135 9.94542 132.173 8.5492C132.665 7.88614 133.049 7.82918 133.682 8.30238C134.298 8.75951 134.324 9.03262 133.81 9.73803C132.582 11.4351 131.354 13.1468 130.106 14.8337C129.904 15.1038 129.801 15.4355 129.814 15.7728C129.826 17.464 129.823 19.1552 129.814 20.8465C129.814 21.7505 129.55 22.0412 128.758 22.0514C127.916 22.0616 127.645 21.771 127.64 20.8377C127.638 20.0111 127.643 19.1947 127.643 18.3724Z" fill="#083454"/>
<path d="M43.1707 15.8358C43.1707 14.1431 43.1547 12.4504 43.1795 10.7577C43.1882 10.1253 43.0057 9.82586 42.3032 9.86383C41.3831 9.91349 40.4586 9.86383 39.5356 9.8799C38.9061 9.89012 38.6826 9.5878 38.6797 8.98462C38.6768 8.38144 38.8345 7.98857 39.5195 7.98857H48.9937C49.6304 7.98857 49.8261 8.3683 49.8261 8.93204C49.8261 9.49579 49.6377 9.87698 48.9966 9.87552C48.1451 9.87552 47.2951 9.87552 46.4451 9.87552C45.3454 9.87552 45.3454 9.87552 45.3454 10.9402C45.3454 14.2506 45.3454 17.5611 45.3454 20.8715C45.3454 21.7682 45.1321 21.9815 44.307 21.9888C43.3577 21.9975 43.1722 21.8121 43.1722 20.835C43.1693 19.171 43.1688 17.5046 43.1707 15.8358Z" fill="#083454"/>
<path d="M98.9704 15.0456C98.9704 13.0857 98.9704 11.1271 98.9704 9.16863C98.9704 8.12 99.7328 7.63658 100.691 8.0645C101.157 8.27189 101.16 8.68229 101.16 9.10729C101.154 12.4177 101.154 15.7311 101.16 19.0473C101.16 20.1237 101.16 20.1237 102.259 20.1237C103.548 20.1237 104.836 20.1456 106.122 20.115C106.766 20.1004 107.078 20.3267 107.066 20.9913C107.053 21.7755 106.864 21.999 106.095 22.0004C104.05 22.0063 102.009 22.0063 99.9723 22.0004C99.1982 22.0004 98.9777 21.7785 98.9748 20.9971C98.9646 19.005 98.9704 17.0231 98.9704 15.0456Z" fill="#083454"/>
<path d="M30.9398 14.2437C30.9252 12.6488 30.9398 11.054 30.9485 9.45768C30.9485 8.66756 30.636 8.04393 29.9423 7.65544C25.3817 5.0996 20.8172 2.54861 16.2488 0.00250244H15.0804C14.708 0.0951077 14.3473 0.229855 14.0055 0.404136C9.94824 2.74091 5.8545 5.01343 1.78705 7.33122C1.27442 7.62331 0.894693 7.97529 0.785156 8.56971V9.29995C0.969177 9.89437 1.41755 10.2259 1.95354 10.518C2.79478 10.981 3.62434 11.4688 4.51377 12.0018C3.54839 12.6299 2.62975 13.1702 1.7111 13.6916C1.23499 13.9589 0.900535 14.2831 0.785156 14.8133V21.0569C1.14298 21.9784 1.81772 22.5626 2.68379 23.0358C6.68113 25.2178 10.6566 27.4392 14.632 29.662C15.2965 30.033 15.9231 30.1513 16.6212 29.7599C20.9501 27.3257 25.2828 24.8984 29.6195 22.4779C30.9339 21.7477 30.9427 20.9926 29.6809 20.1849C28.6366 19.516 27.604 18.8252 26.4868 18.0935C27.6552 17.4334 28.7096 16.8302 29.7714 16.2519C30.579 15.8123 30.9471 15.1565 30.9398 14.2437ZM16.665 2.29254L28.14 8.86472C26.8855 9.61103 25.7156 10.3106 24.5414 11.0029C24.3691 11.1051 24.2157 10.9927 24.0682 10.905C21.7139 9.50685 19.3567 8.11209 16.9965 6.72073C16.7234 6.56008 16.6548 6.36291 16.6562 6.07228C16.6723 4.86446 16.665 3.65371 16.665 2.29254ZM15.3462 8.18122C15.5346 8.0746 15.6952 7.96945 15.9391 8.1155C18.1299 9.42993 20.344 10.7298 22.6574 12.0968C20.8493 13.1191 19.0777 13.9677 17.4785 15.0674C16.1641 15.9773 15.1417 15.8561 13.8623 15.0075C12.2193 13.9136 10.4302 13.0373 8.60459 12.0091C10.9282 10.6933 13.1379 9.44016 15.3462 8.18122ZM3.05475 8.91146L14.7664 2.30715C14.7664 3.66832 14.7562 4.87468 14.7664 6.08104C14.778 6.2108 14.7483 6.34091 14.6813 6.45269C14.6144 6.56447 14.5138 6.65217 14.394 6.70321C11.9082 8.06633 9.42538 9.43431 6.94548 10.8072C6.83921 10.8839 6.71145 10.9252 6.58036 10.9252C6.44927 10.9252 6.32151 10.8839 6.21524 10.8072C5.22357 10.1792 4.19685 9.58328 3.05475 8.91146ZM2.52313 20.2331V16.7207L5.6807 18.4733L2.52313 20.2331ZM28.2014 21.3869L18.7623 26.557C17.886 27.0346 17.0097 27.5049 16.148 27.9883C15.8822 28.1344 15.6617 28.2074 15.3477 28.0336C11.5562 25.9315 7.75897 23.8381 3.95587 21.7535C3.86661 21.692 3.78347 21.6221 3.70759 21.5447C4.85261 20.9006 5.97718 20.2843 7.08423 19.6358C7.42014 19.4386 7.63775 19.6358 7.87727 19.7672C10.1863 21.0481 12.4997 22.3202 14.7883 23.6361C15.4353 24.0085 15.9654 23.9968 16.608 23.6215C19.0748 22.18 21.5737 20.791 24.0448 19.3583C24.483 19.1071 24.7926 19.1056 25.203 19.3963C26.1479 20.0666 27.1279 20.68 28.2014 21.3869ZM24.3238 17.2727C21.6122 18.78 18.8986 20.2843 16.183 21.7856C15.8997 21.9434 15.6617 22.0558 15.3228 21.8645C11.3591 19.6202 7.38947 17.3837 3.41403 15.155C3.35689 15.1105 3.30318 15.0616 3.25338 15.009C4.34582 14.3927 5.38714 13.8216 6.40802 13.2184C6.70012 13.0446 6.89436 13.16 7.13827 13.2944C9.69411 14.7286 12.2631 16.1379 14.8058 17.5955C15.4572 17.9694 15.9742 17.9621 16.6197 17.5794C19.012 16.1496 21.4393 14.7724 23.8331 13.344C24.2245 13.1118 24.5005 13.1235 24.8759 13.363C25.8558 13.9866 26.8665 14.5635 27.9662 15.2193C26.7102 15.932 25.5199 16.6082 24.3238 17.2727ZM29.2807 14.0144L26.3305 12.2618C26.0924 12.1158 26.0954 11.9902 26.3378 11.8514C27.1966 11.3622 28.0509 10.8685 28.9097 10.3792C29.1405 10.2493 29.2792 10.3135 29.2792 10.5881C29.2821 11.6864 29.2807 12.7817 29.2807 14.0144Z" fill="#F6AA1B"/>
<path d="M159.717 16.9851C159.455 16.5367 159.485 16.3439 159.994 16.0781C161.802 15.1346 162.655 13.0651 162.135 11.0847C161.659 9.26933 159.945 7.99579 157.954 7.98995C156.422 7.9841 154.89 7.9841 153.359 7.98995C152.454 7.98995 152.22 8.21048 152.219 9.07801C152.219 11.038 152.219 12.9979 152.219 14.9579C152.219 16.9661 152.219 18.9743 152.219 20.9839C152.219 21.7696 152.45 21.9872 153.212 21.9945C154.031 21.9945 154.275 21.7828 154.281 20.9853C154.29 19.7279 154.294 18.4689 154.281 17.2114C154.281 16.7222 154.447 16.5002 154.963 16.5265C155.547 16.5557 156.131 16.5513 156.716 16.5265C157.108 16.5104 157.33 16.6565 157.507 17.0114C158.208 18.4149 158.944 19.8023 159.661 21.1986C160.088 22.031 160.438 22.1859 161.122 21.8295C161.852 21.4498 161.957 21.054 161.506 20.223C160.917 19.1349 160.335 18.0498 159.717 16.9851ZM157.71 14.7783C156.767 14.8279 155.812 14.7783 154.872 14.7929C154.449 14.7929 154.322 14.5855 154.325 14.2087C154.325 13.5807 154.325 12.9527 154.325 12.3247C154.325 11.7215 154.325 11.1183 154.325 10.5151C154.325 10.1529 154.471 9.98789 154.84 9.99227C155.835 10.0054 156.831 9.96452 157.824 10.0098C159.016 10.0638 159.956 11.1125 159.971 12.3276C159.994 12.9519 159.77 13.5601 159.346 14.0193C158.922 14.4784 158.334 14.7513 157.71 14.7783Z" fill="#083454"/>
<path d="M61.3538 17.1297C61.0457 16.6083 61.0121 16.3644 61.6328 16.0095C63.4613 14.9623 64.2295 12.9702 63.6775 11.0438C63.1254 9.11744 61.4955 7.98703 59.3325 7.98557C57.8496 7.98557 56.3672 7.98557 54.8853 7.98557C54.0091 7.98557 53.771 8.2207 53.7695 9.10138C53.7695 11.0594 53.7695 13.0189 53.7695 14.9798C53.7695 16.9632 53.7695 18.9465 53.7695 20.9298C53.7695 21.7214 54.0456 21.9931 54.805 21.9902C55.5645 21.9872 55.8434 21.7375 55.8522 20.9357C55.8639 19.7512 55.8829 18.5653 55.8434 17.3809C55.823 16.766 55.9895 16.4739 56.6569 16.5411C57.1426 16.5874 57.6317 16.5874 58.1174 16.5411C58.6256 16.4973 58.9119 16.6769 59.1397 17.1399C59.8159 18.5273 60.5374 19.8944 61.2414 21.2687C61.624 22.015 62.0169 22.1654 62.6858 21.828C63.4263 21.4542 63.5314 21.1066 63.102 20.2989C62.5281 19.2371 61.9687 18.1666 61.3538 17.1297ZM59.3179 14.7929C58.8798 14.7856 58.4416 14.7929 58.0035 14.7929C55.9077 14.7929 55.9077 14.7929 55.9077 12.6971C55.9077 11.9946 55.9194 11.2936 55.9077 10.5925C55.8989 10.1909 56.064 10.0171 56.4656 10.0215C57.4879 10.0317 58.5103 9.99081 59.5326 10.0405C60.8091 10.1033 61.8387 11.2848 61.7715 12.5306C61.7397 13.1535 61.465 13.7392 61.0062 14.1619C60.5475 14.5846 59.9414 14.8106 59.3179 14.7914V14.7929Z" fill="#083454"/>
<path d="M122.868 20.3252C121.003 16.4033 119.133 12.4843 117.258 8.56827C117.112 8.27618 116.991 7.98408 116.61 7.96948C116.228 7.95487 116.065 8.22944 115.926 8.52008L110.175 20.534C109.923 21.0613 109.931 21.5038 110.549 21.79C111.266 22.123 111.696 22.0383 112.009 21.4235C112.339 20.7808 112.656 20.1295 112.944 19.4664C113.09 19.129 113.285 19.0107 113.656 19.0151C115.577 19.0341 117.496 19.0312 119.417 19.0151C119.783 19.0151 119.986 19.132 120.137 19.4737C120.446 20.1791 120.789 20.8729 121.147 21.5564C121.344 21.9317 121.674 22.1274 122.114 21.9726C122.554 21.8178 123.074 21.6995 123.109 21.0014C123.147 20.7867 122.979 20.5574 122.868 20.3252ZM118.567 17.2801C117.235 17.2801 115.903 17.2801 114.572 17.2801C114.27 17.2801 114.008 17.1997 114.191 16.8113C114.946 15.2047 115.708 13.5982 116.528 11.869C117.362 13.6099 118.12 15.1901 118.878 16.7704C119.04 17.1019 118.938 17.2786 118.567 17.2801Z" fill="#083454"/>
</svg>
