<svg width="136" height="31" viewBox="0 0 136 31" fill="none" xmlns="http://www.w3.org/2000/svg">
<path d="M20.3348 2.41367C21.6589 2.41367 22.7274 2.00731 23.3509 1.38377H23.7573L25.3371 9.72801L24.7101 9.87513C22.321 6.27401 20.0055 4.0671 17.8722 4.0671C16.4044 4.0671 15.8124 4.72917 15.8124 5.75907V26.0171C15.8124 27.597 16.6601 28.739 18.3135 29.3275V29.9861H7.78342V29.3275C9.53493 28.739 10.3581 27.597 10.3581 26.0171V5.75907C10.3581 4.72917 9.73461 4.0671 8.29836 4.0671C6.19654 4.0671 3.85301 6.27401 1.49897 9.87513L0.777344 9.72801L2.43078 1.38377H2.83713C3.53774 2.00731 4.49056 2.41367 5.88827 2.41367H20.3348Z" fill="#002D24"/>
<path d="M28.5115 26.1642V7.63317C28.5115 5.83261 27.7408 4.69412 26.2695 4.24924V3.54863C28.7342 3.25115 31.067 2.27216 33.0059 0.72168L33.6329 0.72168V12.5619C33.6329 13.3676 33.5944 14.3135 33.5594 14.7654L33.6329 14.8389C35.507 12.9648 39.2588 10.5022 42.0157 10.5022C44.4678 10.5022 45.9111 12.1941 45.9111 14.7303V26.1642C45.9111 27.6355 46.5731 28.8125 47.7501 29.317V29.9755H38.6107V29.3275C40.0119 28.5183 40.7441 27.6355 40.7441 26.2378V16.6044C40.7441 14.8529 40.1205 13.9562 38.7964 13.9211C37.5808 13.8826 35.6717 14.7654 33.6119 16.128V26.2378C33.6119 27.639 34.4561 28.5533 35.7452 29.3275V29.986H26.4517V29.3275C27.0727 29.0707 27.6016 28.6323 27.9692 28.0697C28.3368 27.5071 28.5258 26.8466 28.5115 26.1747" fill="#002D24"/>
<path d="M62.1993 26.1642H62.1257C60.2901 28.0453 56.7591 30.4975 53.9636 30.4975C51.466 30.4975 50.1418 28.809 50.1418 26.2938V17.3401C50.1418 15.501 49.6619 14.2889 48.082 13.774V13.1119C50.4914 12.8222 52.7647 11.8388 54.6257 10.2814H55.1792V24.3987C55.1792 26.2378 55.8027 27.1556 57.2004 27.2011C58.4125 27.2747 60.0309 26.3534 62.1257 24.9206V17.5643C62.1257 15.6166 61.6843 14.2189 59.9959 13.7775V13.1119C62.4387 12.7822 64.7488 11.8049 66.6867 10.2814H67.2752V24.5843C67.2752 26.6862 67.8251 27.6705 69.377 28.1504V28.8125C67.0989 29.0513 64.8824 29.698 62.8333 30.7217H62.1327V28.4447C62.1327 27.597 62.2063 26.6406 62.2063 26.1642" fill="#002D24"/>
<path d="M72.6171 26.0171V17.1859C72.6171 15.1647 72.0286 14.2084 70.4102 13.767V13.1119C72.8581 12.7972 75.1733 11.8184 77.1045 10.2814H77.7665V12.3833C77.7756 13.145 77.7381 13.9066 77.6544 14.6637L77.7665 14.6988C79.6021 12.8247 83.2803 10.4951 86.1108 10.4951C88.647 10.4951 90.0096 12.1836 90.0096 14.7233V26.0171C90.0096 27.6355 90.7102 28.8195 91.9188 29.324V29.986H82.8109V29.324C84.1736 28.5183 84.9443 27.6355 84.9443 26.0171V16.6044C84.9443 14.8529 84.3557 13.9561 82.958 13.9211C81.6724 13.8826 79.9069 14.6217 77.777 15.9809V26.0171C77.777 27.6355 78.6213 28.5183 79.9069 29.324V29.986H70.4102V29.324C71.078 29.0734 71.6504 28.6194 72.0464 28.0261C72.4423 27.4327 72.642 26.73 72.6171 26.0171Z" fill="#002D24"/>
<path d="M101.362 30.5395C96.9131 30.5395 92.3906 27.3412 92.3906 21.0813C92.3906 15.2733 96.4366 10.4951 101.915 10.4951C106.326 10.4951 109.671 13.6199 109.671 18.2509V19.2527H97.1337C97.2458 24.6194 100.076 27.1206 103.604 27.1206C104.656 27.1222 105.692 26.8605 106.617 26.3594C107.542 25.8583 108.327 25.1337 108.9 24.2516L109.489 24.6019C108.385 28.3887 104.935 30.557 101.362 30.557M97.2073 17.5958H104.413C104.413 14.3975 103.127 12.3412 101.033 12.3412C99.1935 12.3412 97.5296 13.9596 97.2073 17.5958Z" fill="#002D24"/>
<path d="M118.422 30.4975C115.805 30.4616 113.208 30.0402 110.715 29.2469L113.142 23.642H113.573C114.274 27.0995 117.101 28.6444 119.858 28.6444C122.138 28.6444 123.501 27.5935 123.501 26.1432C123.501 24.4863 121.697 23.607 119.455 22.8714C116.11 21.7294 112.064 20.5173 112.064 16.6219C112.064 13.1189 115.3 10.4811 120.226 10.4811C122.191 10.4818 124.146 10.7541 126.037 11.2903L124.303 16.2751H123.792C123.561 15.1232 122.934 14.0883 122.021 13.3495C121.107 12.6107 119.964 12.2144 118.789 12.2291C116.915 12.2291 115.738 13.1855 115.738 14.4711C115.738 16.4573 118.495 17.228 121.252 18.2228C124.23 19.2527 127.172 20.675 127.172 24.0694C127.172 27.8527 123.532 30.501 118.415 30.501" fill="#002D24"/>
<path d="M128.91 26.9734C128.908 26.5149 128.997 26.0604 129.173 25.6369C129.349 25.2133 129.607 24.8292 129.934 24.507C130.26 24.1849 130.648 23.9313 131.073 23.7611C131.499 23.5909 131.955 23.5075 132.413 23.5159C132.862 23.5159 133.307 23.6044 133.722 23.7762C134.136 23.948 134.513 24.1998 134.831 24.5173C135.148 24.8348 135.4 25.2117 135.572 25.6265C135.744 26.0413 135.832 26.4859 135.832 26.9349C135.832 27.3839 135.744 27.8285 135.572 28.2433C135.4 28.6581 135.148 29.035 134.831 29.3525C134.513 29.6699 134.136 29.9218 133.722 30.0936C133.307 30.2654 132.862 30.3539 132.413 30.3539C131.961 30.3645 131.51 30.2853 131.088 30.1207C130.667 29.9562 130.282 29.7095 129.956 29.3951C129.63 29.0807 129.37 28.7047 129.19 28.2891C129.011 27.8734 128.916 27.4262 128.91 26.9734Z" fill="#46E696"/>
</svg>
